<svg width="55" height="186" viewBox="0 0 55 186" fill="none" xmlns="http://www.w3.org/2000/svg">
<path d="M0.184655 72.5835C0.939668 72.3835 1.8047 72.6535 2.2597 73.2786C2.89972 74.1436 2.78969 75.5486 1.95468 76.1986C1.46967 76.5786 0.794665 76.6786 0.184655 76.5286V72.5835Z" fill="black"/>
<path d="M0.184392 62.873C0.759402 62.898 1.3244 63.1631 1.67441 63.6331C2.30942 64.4981 2.19942 65.9031 1.36441 66.5531C1.0294 66.8131 0.614399 66.9381 0.184392 66.9431V62.873Z" fill="black"/>
<path d="M0.18471 53.4326C0.419714 53.5226 0.624729 53.6626 0.789732 53.8626C1.61975 54.8776 1.55973 56.2277 0.649715 56.9627C0.504712 57.0777 0.349713 57.1577 0.18471 57.2277V53.4326Z" fill="black"/>
<path d="M0.184644 82.4676C0.989658 81.9076 2.19468 82.0876 2.87469 82.8976C3.63971 83.8126 3.5847 84.8677 2.74469 85.5627C1.84467 86.3077 0.874656 86.3427 0.184644 85.6877V82.4676Z" fill="black"/>
<path d="M3.49437 95.2779C2.63436 96.013 1.46934 95.928 0.749327 95.0729C-0.0106864 94.1779 0.0443196 92.9579 0.879334 92.2229C1.62435 91.5629 2.97437 91.7079 3.65438 92.5279C4.39939 93.4229 4.33439 94.5629 3.49437 95.2779Z" fill="black"/>
<path d="M0.184534 44.3926C0.214534 44.4276 0.254541 44.4526 0.284541 44.4876C0.954553 45.2876 0.894546 46.3826 0.184534 47.0976V44.3926Z" fill="black"/>
<path d="M6.42499 70.9729C5.62997 71.6129 4.34995 71.4729 3.70494 70.6529C2.98993 69.7529 3.06494 68.6579 4.02996 67.9779C4.74497 67.2578 6.04498 67.3628 6.64499 68.1729C7.305 69.0629 7.245 70.3079 6.42499 70.9729Z" fill="black"/>
<path d="M7.11478 80.5277C6.34977 81.1327 5.05977 80.9827 4.44975 80.2227C3.70974 79.2977 3.82972 78.2727 4.76473 77.5226C5.67475 76.7926 6.67478 76.8976 7.39979 77.8026C8.0348 78.5927 7.89979 79.9027 7.11478 80.5277Z" fill="black"/>
<path d="M5.9048 61.2472C5.21478 61.8972 3.84975 61.8722 3.23974 61.1022C2.54473 60.2222 2.25473 59.3771 3.37475 58.4121C4.24477 57.6571 5.07477 57.5271 6.01478 58.5121C6.7048 59.2571 6.65481 60.5422 5.9048 61.2472Z" fill="black"/>
<path d="M0.184488 116.679C0.209488 116.709 0.24448 116.729 0.269481 116.759C1.06449 117.724 1.03952 118.879 0.199503 119.589C0.199503 119.589 0.189488 119.594 0.184488 119.599V116.679Z" fill="black"/>
<path d="M7.72989 90.1232C6.94987 90.7832 5.66484 90.6532 5.03483 89.8082C4.34982 88.8931 4.40482 88.0231 5.34484 87.2281C6.23485 86.4481 7.33988 86.6881 7.85489 87.3531C8.5899 88.3081 8.54988 89.4332 7.73486 90.1232H7.72989Z" fill="black"/>
<path d="M5.10473 51.7279C4.30972 52.3829 3.03469 52.2429 2.40968 51.3929C1.74466 50.4879 1.79465 49.6479 2.67467 48.8629C3.56968 48.1329 4.56971 48.1479 5.18972 48.8979C5.98474 49.8629 5.94975 51.0279 5.10473 51.7279Z" fill="black"/>
<path d="M4.26964 102.263C4.92465 103.133 4.79965 104.333 3.98463 104.968C3.18462 105.593 1.9596 105.453 1.32959 104.663C0.699575 103.868 0.829581 102.643 1.61459 102.003C2.39461 101.368 3.69463 101.493 4.26964 102.258V102.263Z" fill="black"/>
<path d="M4.23473 41.9566C3.43472 42.6166 2.4247 42.4666 1.70469 41.7116C1.01468 40.9915 1.07968 39.8415 1.85969 39.1365C2.6197 38.4465 3.72973 38.5765 4.39974 39.3915C5.10976 40.2515 5.03975 41.2915 4.23974 41.9566H4.23473Z" fill="black"/>
<path d="M8.34971 99.6078C7.54969 100.253 6.48968 100.118 5.82467 99.2878C5.17966 98.4828 5.25465 97.4128 6.00466 96.7528C6.73968 96.1078 7.91468 96.2528 8.57969 97.0728C9.2497 97.8978 9.15472 98.9628 8.34971 99.6078Z" fill="black"/>
<path d="M4.63989 114.403C3.83988 115.053 2.77987 114.923 2.11485 114.093C1.45484 113.273 1.55985 112.083 2.34487 111.508C3.15488 110.918 4.20489 111.068 4.8599 111.868C5.53491 112.693 5.43991 113.758 4.63989 114.403Z" fill="black"/>
<path d="M10.0748 56.0272C9.35481 56.6422 8.24977 56.5622 7.61476 55.8572C6.96475 55.1272 7.04477 53.9772 7.78978 53.3422C8.5098 52.7272 9.61481 52.8072 10.2498 53.5122C10.8998 54.2422 10.8198 55.3922 10.0748 56.0272Z" fill="black"/>
<path d="M12.1399 84.9535C11.3998 85.5085 10.2298 85.3585 9.64982 84.6185C8.99481 83.7885 9.11982 82.8584 9.97484 82.1734C10.6098 81.5034 11.8299 81.6284 12.4749 82.4734C13.0249 83.1934 12.7399 84.5035 12.1399 84.9535Z" fill="black"/>
<path d="M11.5996 75.2684C10.8646 75.9034 9.7246 75.7934 9.09959 75.0384C8.47458 74.2783 8.58457 73.1633 9.34459 72.5383C10.0796 71.9433 11.1996 72.0233 11.7746 72.7183C12.4446 73.5283 12.3696 74.6033 11.5996 75.2684Z" fill="black"/>
<path d="M10.865 65.7331C10.115 66.3532 8.98495 66.2331 8.36993 65.4631C7.75492 64.6931 7.88493 63.5781 8.65494 62.9681C9.39496 62.3831 10.515 62.4831 11.08 63.1881C11.74 64.0081 11.65 65.0831 10.865 65.7331Z" fill="black"/>
<path d="M3.58972 32.3272C2.85471 32.8972 1.6697 32.7372 1.09969 31.9872C0.484678 31.1822 0.619667 30.2122 1.42968 29.5722C2.2447 28.9322 3.20973 29.0322 3.84974 29.8272C4.43975 30.5572 4.31474 31.7622 3.58972 32.3272Z" fill="black"/>
<path d="M0.184723 125.979C0.499728 126.074 0.78974 126.264 1.03474 126.559C1.63975 127.284 1.53475 128.474 0.814739 129.064C0.629736 129.214 0.414727 129.314 0.184723 129.374V125.984V125.979Z" fill="black"/>
<path d="M12.8247 94.4732C12.1046 95.0232 11.0046 94.8982 10.4346 94.1932C9.84458 93.4681 9.97959 92.3131 10.7196 91.7481C11.4396 91.1981 12.5396 91.3231 13.1096 92.0281C13.6996 92.7531 13.5647 93.9081 12.8247 94.4732Z" fill="black"/>
<path d="M9.44995 46.3629C8.77494 46.9279 7.5449 46.7829 6.96489 46.0729C6.34988 45.3229 6.51488 44.1278 7.20489 43.7228C8.0599 43.0228 8.98993 43.0828 9.64994 43.8828C10.2299 44.5879 10.135 45.7879 9.44995 46.3579V46.3629Z" fill="black"/>
<path d="M9.05986 109.129C8.34485 109.719 7.19982 109.604 6.6098 108.884C6.01979 108.169 6.13482 107.024 6.85483 106.434C7.56985 105.844 8.71485 105.959 9.30486 106.679C9.89487 107.394 9.77987 108.539 9.05986 109.129Z" fill="black"/>
<path d="M5.12471 123.934C4.3497 124.559 3.49967 124.464 2.85966 123.684C2.14964 122.819 2.20464 121.949 3.01466 121.304C3.78467 120.689 4.63971 120.779 5.25972 121.544C5.99474 122.444 5.94973 123.269 5.12471 123.934Z" fill="black"/>
<path d="M8.78486 34.3518C9.47488 35.1718 9.42988 36.0819 8.65986 36.7119C7.92485 37.3169 7.02484 37.2469 6.41483 36.5319C5.70481 35.6969 5.73981 34.7668 6.49982 34.1168C7.17983 33.5368 8.18985 33.6418 8.78486 34.3518Z" fill="black"/>
<path d="M9.65482 118.819C8.9298 119.404 7.98978 119.299 7.39477 118.569C6.75476 117.783 6.81975 116.748 7.54476 116.183C8.27978 115.608 9.27982 115.768 9.90983 116.563C10.4898 117.298 10.3848 118.238 9.65482 118.824V118.819Z" fill="black"/>
<path d="M13.4047 103.988C12.6697 104.598 11.7647 104.538 11.1597 103.828C10.4397 102.988 10.4646 102.083 11.2197 101.408C11.8747 100.828 12.9197 100.923 13.5097 101.618C14.2097 102.443 14.1697 103.348 13.4047 103.983V103.988Z" fill="black"/>
<path d="M15.8551 69.9573C15.1001 70.6073 14.1751 70.5523 13.5501 69.8123C12.8501 68.9822 12.8901 68.0322 13.6501 67.3972C14.3501 66.8172 15.3301 66.9272 15.9351 67.6472C16.6001 68.4422 16.5701 69.3372 15.8551 69.9573Z" fill="black"/>
<path d="M16.5201 79.5681C15.8101 80.1482 14.83 80.0632 14.245 79.3631C13.655 78.6581 13.73 77.6731 14.425 77.0831C15.125 76.4831 16.1101 76.5481 16.7051 77.2331C17.3351 77.9531 17.2551 78.9681 16.5201 79.5681Z" fill="black"/>
<path d="M14.4948 50.7981C13.8298 51.3581 12.7547 51.2281 12.1747 50.5281C11.6297 49.8631 11.6948 48.7931 12.3248 48.2231C12.9298 47.6681 14.0998 47.8031 14.6648 48.4931C15.2498 49.2081 15.1798 50.2281 14.4948 50.7981Z" fill="black"/>
<path d="M15.445 58.0876C16.025 58.7976 15.93 59.7777 15.225 60.3627C14.52 60.9477 13.535 60.8677 12.9449 60.1727C12.3299 59.4476 12.4299 58.4326 13.1699 57.8426C13.8849 57.2726 14.865 57.3776 15.44 58.0926L15.445 58.0876Z" fill="black"/>
<path d="M0.184399 21.1219C0.2494 20.7419 0.449414 20.3868 0.78942 20.1168C1.50443 19.5518 2.48444 19.6618 3.05945 20.3768C3.63446 21.0919 3.53447 22.0669 2.82446 22.6519C2.11445 23.2319 1.13441 23.1469 0.549396 22.4469C0.349392 22.2069 0.2294 21.9319 0.184399 21.6519V21.1219Z" fill="black"/>
<path d="M17.2848 89.2523C16.6048 89.7723 15.5448 89.6273 15.0098 88.9373C14.4448 88.2123 14.5697 87.3073 15.3148 86.7223C16.0448 86.1473 16.9798 86.2523 17.5398 86.9723C18.0748 87.6573 17.9498 88.7373 17.2848 89.2523Z" fill="black"/>
<path d="M0.184588 135.864C0.709598 135.774 1.2346 135.959 1.61961 136.429C2.17462 137.109 2.07961 138.174 1.4196 138.714C1.07459 138.994 0.619596 139.094 0.184588 139.029V135.859V135.864Z" fill="black"/>
<path d="M8.10966 24.6719C8.75967 25.4519 8.71469 26.537 8.00468 27.072C7.35466 27.567 6.29965 27.442 5.78964 26.777C5.23463 26.052 5.22462 25.1769 6.05963 24.6019C6.77465 24.0269 7.59465 24.0569 8.10966 24.6769V24.6719Z" fill="black"/>
<path d="M13.9502 38.7568C14.5802 39.5168 14.5552 40.5269 13.9002 41.1069C13.2802 41.6519 12.1501 41.5419 11.6201 40.8519C11.0551 40.1169 11.1051 39.2818 11.8351 38.7218C12.6151 38.1168 13.4202 38.1118 13.9552 38.7568H13.9502Z" fill="black"/>
<path d="M5.80979 133.463C5.16478 133.963 4.11476 133.853 3.58975 133.188C3.02974 132.473 3.00474 131.598 3.83975 131.008C4.57977 130.408 5.4248 130.453 5.94981 131.118C6.55482 131.883 6.4898 132.933 5.80979 133.463Z" fill="black"/>
<path d="M14.0596 113.544C13.4196 114.049 12.3646 113.939 11.8396 113.274C11.2796 112.564 11.2446 111.684 12.0796 111.094C12.8196 110.489 13.6646 110.529 14.1897 111.194C14.7947 111.959 14.7347 113.004 14.0596 113.539V113.544Z" fill="black"/>
<path d="M17.92 98.8177C17.29 99.3777 16.235 99.2877 15.69 98.6327C15.1499 97.9827 15.2649 96.9277 15.9299 96.4126C16.575 95.9076 17.575 96.0176 18.095 96.6477C18.615 97.2727 18.535 98.2777 17.92 98.8177Z" fill="black"/>
<path d="M10.27 128.243C9.55502 128.823 8.805 128.723 8.20499 127.978C7.59498 127.223 7.65498 126.423 8.365 125.858C9.06001 125.303 9.86503 125.423 10.47 126.173C11.0701 126.918 11 127.663 10.275 128.248L10.27 128.243Z" fill="black"/>
<path d="M20.335 62.6221C21.0101 63.4321 20.9801 64.1372 20.24 64.7422C19.5 65.3572 18.79 65.2922 18.185 64.5622C17.51 63.7471 17.545 62.9921 18.29 62.3921C18.985 61.8321 19.75 61.9171 20.335 62.6221Z" fill="black"/>
<path d="M0.184582 10.5069C0.184582 10.5069 0.204581 10.4869 0.214581 10.4769C0.944594 9.90693 1.6746 10.0219 2.30461 10.8069C2.91462 11.562 2.84963 12.267 2.11961 12.862C1.4246 13.427 0.779587 13.387 0.179577 12.762V10.5069H0.184582Z" fill="black"/>
<path d="M20.9901 74.3327C20.3301 74.8877 19.4151 74.8127 18.865 74.1527C18.315 73.4877 18.4051 72.5726 19.0751 72.0326C19.7201 71.5126 20.6051 71.5876 21.1451 72.2076C21.7101 72.8576 21.6451 73.7827 20.9901 74.3327Z" fill="black"/>
<path d="M13.0649 31.4917C12.3898 32.0317 11.5448 31.9167 10.9798 31.2017C10.4798 30.5717 10.5648 29.5667 11.1598 29.1067C11.7748 28.6266 12.7648 28.7916 13.2948 29.4617C13.8199 30.1267 13.7249 30.9667 13.0649 31.4917Z" fill="black"/>
<path d="M21.79 81.9583C22.29 82.6133 22.17 83.4983 21.515 84.0133C20.86 84.5233 19.98 84.4183 19.455 83.7633C18.935 83.1083 19.03 82.2333 19.675 81.7033C20.345 81.1533 21.26 81.2683 21.79 81.9583Z" fill="black"/>
<path d="M19.6302 55.1482C18.9751 55.6682 18.1001 55.5732 17.5701 54.9282C17.0201 54.2582 17.1301 53.3431 17.8251 52.8131C18.4801 52.3131 19.3651 52.4331 19.8802 53.0881C20.3902 53.7431 20.2852 54.6232 19.6302 55.1482Z" fill="black"/>
<path d="M5.20486 17.1921C4.62985 16.5321 4.68488 15.5321 5.32489 15.027C5.9049 14.577 6.84489 14.652 7.2999 15.187C7.91491 15.9071 7.89991 16.8321 7.26489 17.3771C6.67488 17.8821 5.73487 17.7971 5.20486 17.1921Z" fill="black"/>
<path d="M18.5199 108.333C17.8749 108.853 16.9699 108.748 16.4548 108.093C15.9448 107.443 16.0649 106.538 16.7249 106.033C17.3549 105.553 18.2249 105.653 18.7299 106.268C19.2549 106.908 19.1649 107.813 18.5149 108.333H18.5199Z" fill="black"/>
<path d="M22.26 93.4976C21.675 93.9976 20.7 93.9026 20.195 93.2976C19.61 92.5976 19.68 91.8926 20.39 91.2976C21.11 90.6975 21.81 90.7425 22.4 91.4226C22.915 92.0226 22.855 92.9926 22.265 93.4976H22.26Z" fill="black"/>
<path d="M14.715 122.978C14.1199 123.473 13.1549 123.363 12.6499 122.748C12.0799 122.048 12.1599 121.338 12.8749 120.748C13.5949 120.153 14.3 120.208 14.88 120.903C15.39 121.513 15.31 122.483 14.715 122.973V122.978Z" fill="black"/>
<path d="M0.184771 145.929C0.184771 145.929 0.214759 145.899 0.234759 145.884C0.964772 145.314 1.66978 145.389 2.23479 146.104C2.7248 146.724 2.61482 147.699 2.00481 148.169C1.4798 148.574 0.70478 148.524 0.184771 148.109V145.924V145.929Z" fill="black"/>
<path d="M6.44479 142.874C5.93478 143.314 4.90976 143.194 4.43475 142.659C3.92974 142.089 3.96974 141.274 4.52474 140.794C5.35476 140.079 5.94476 140.074 6.54477 140.769C7.23978 141.289 6.8848 142.489 6.44479 142.869V142.874Z" fill="black"/>
<path d="M16.0197 35.5825C15.5097 34.9275 15.6047 34.2175 16.2747 33.6724C17.0347 33.0524 17.5997 33.1324 18.2447 33.7974C18.7947 34.3675 18.5297 35.4625 18.0797 35.8525C17.5447 36.3175 16.4747 36.1675 16.0197 35.5825Z" fill="black"/>
<path d="M10.3648 21.702C9.89984 21.147 9.96983 20.242 10.5148 19.752C11.0749 19.252 12.0349 19.327 12.5199 19.907C12.9849 20.462 12.9149 21.367 12.3699 21.857C11.8099 22.3571 10.8499 22.2821 10.3648 21.702Z" fill="black"/>
<path d="M19.1048 43.5126C19.6048 44.1126 19.5398 45.0126 18.9548 45.5276C18.3698 46.0426 17.4648 46.0026 16.9348 45.4326C16.3798 44.8376 16.4248 43.8926 17.0298 43.3576C17.6398 42.8176 18.5798 42.8876 19.0998 43.5126H19.1048Z" fill="black"/>
<path d="M22.7799 59.4022C22.2999 58.8272 22.3749 57.9522 22.9499 57.4722C23.525 56.9922 24.4 57.0672 24.88 57.6422C25.36 58.2172 25.285 59.0922 24.71 59.5722C24.1349 60.0523 23.2599 59.9772 22.7799 59.4022Z" fill="black"/>
<path d="M0.184792 0.825941C0.664801 0.700939 1.15981 0.825941 1.49481 1.21595C2.00482 1.81596 1.95484 2.76098 1.38483 3.25598C1.06482 3.53099 0.6098 3.60599 0.184792 3.50599V0.825941Z" fill="black"/>
<path d="M23.1648 101.119C23.6698 101.729 23.5998 102.679 23.0148 103.154C22.4547 103.609 21.5297 103.494 21.0297 102.914C20.5597 102.364 20.6647 101.479 21.2547 100.999C21.8698 100.494 22.6898 100.549 23.1648 101.124V101.119Z" fill="black"/>
<path d="M19.0902 117.909C18.5452 118.374 17.6152 118.274 17.1051 117.699C16.6151 117.149 16.7051 116.274 17.3001 115.779C17.9151 115.274 18.7402 115.314 19.2152 115.874C19.7252 116.479 19.6702 117.424 19.0952 117.909H19.0902Z" fill="black"/>
<path d="M25.5551 67.0976C26.0651 67.6977 26.0102 68.6427 25.4401 69.1327C24.8751 69.6177 23.8801 69.4877 23.4001 68.8677C22.9701 68.3077 23.0751 67.4727 23.6401 67.0076C24.2551 66.5026 25.0801 66.5376 25.5551 67.0926V67.0976Z" fill="black"/>
<path d="M10.79 137.845C10.215 138.29 9.37998 138.2 8.90998 137.65C8.41997 137.075 8.49996 136.19 9.08497 135.71C9.66998 135.23 10.55 135.32 11.025 135.915C11.5 136.51 11.395 137.385 10.795 137.85L10.79 137.845Z" fill="black"/>
<path d="M26.0103 78.7772C25.4253 79.2622 24.5453 79.1722 24.0703 78.5822C23.6153 78.0172 23.6853 77.1772 24.2303 76.6971C24.7953 76.1971 25.6853 76.2621 26.1753 76.8371C26.6653 77.4122 26.5903 78.2972 26.0053 78.7772H26.0103Z" fill="black"/>
<path d="M22.015 49.6571C21.455 48.977 21.48 48.252 22.08 47.742C22.695 47.222 23.4251 47.322 23.9751 47.992C24.5151 48.652 24.4551 49.337 23.8151 49.8521C23.2051 50.3421 22.52 50.2671 22.015 49.6571Z" fill="black"/>
<path d="M26.8103 86.413C27.3553 87.073 27.3003 87.758 26.6653 88.278C26.0553 88.773 25.3702 88.703 24.8602 88.098C24.2902 87.413 24.3102 86.693 24.9103 86.178C25.5153 85.658 26.2653 85.748 26.8103 86.413Z" fill="black"/>
<path d="M4.63475 7.56618C4.02473 6.84617 4.04971 6.11615 4.70472 5.59615C5.29973 5.12114 6.02974 5.22114 6.54475 5.84115C7.09976 6.50616 7.05978 7.19617 6.43977 7.70618C5.82976 8.21119 5.13475 8.16119 4.63475 7.56618Z" fill="black"/>
<path d="M15.58 25.9114C14.995 25.2414 15.07 24.6314 15.69 24.0064C16.21 23.4814 17.02 23.6164 17.5151 24.2164C18.0651 24.8764 18.0151 25.6264 17.3851 26.1264C16.8051 26.5864 16.0801 26.4914 15.575 25.9164L15.58 25.9114Z" fill="black"/>
<path d="M15.2898 132.644C14.7148 133.109 13.9798 133.024 13.4798 132.444C12.9347 131.809 12.9697 131.019 13.5647 130.524C14.1348 130.049 14.9098 130.139 15.4048 130.734C15.9548 131.394 15.9098 132.144 15.2898 132.644Z" fill="black"/>
<path d="M23.5603 112.709C23.0003 113.184 22.2153 113.099 21.7153 112.519C21.2303 111.949 21.2703 111.094 21.8053 110.619C22.2803 110.199 23.1903 110.289 23.6353 110.799C24.1753 111.419 24.1453 112.219 23.5603 112.709Z" fill="black"/>
<path d="M21.41 39.9875C20.925 39.4175 20.97 38.5575 21.505 38.0874C21.975 37.6774 22.895 37.7674 23.335 38.2724C23.875 38.8925 23.8401 39.6925 23.255 40.1825C22.69 40.6525 21.91 40.5725 21.415 39.9875H21.41Z" fill="black"/>
<path d="M19.905 125.584C20.34 126.139 20.26 126.944 19.73 127.384C19.2 127.824 18.385 127.744 17.9299 127.209C17.4249 126.619 17.495 125.909 18.105 125.409C18.725 124.904 19.42 124.969 19.905 125.584Z" fill="black"/>
<path d="M9.7397 11.8118C9.25469 11.2068 9.34471 10.5068 9.97472 10.0168C10.5747 9.54678 11.2397 9.61678 11.7197 10.1918C12.1898 10.7568 12.1048 11.6118 11.5347 12.0468C10.9847 12.4668 10.1797 12.3568 9.7397 11.8118Z" fill="black"/>
<path d="M28.595 73.2582C28.19 72.7532 28.275 71.9332 28.77 71.5182C29.29 71.0832 30.165 71.1882 30.565 71.7282C30.95 72.2482 30.84 73.0732 30.33 73.4632C29.815 73.8582 28.995 73.7632 28.59 73.2582H28.595Z" fill="black"/>
<path d="M25.4603 97.7478C24.9953 97.1878 25.0903 96.3428 25.6703 95.9028C26.2253 95.4828 27.0253 95.5828 27.4553 96.1328C27.8853 96.6828 27.7953 97.4828 27.2553 97.9228C26.7153 98.3628 25.9103 98.2828 25.4603 97.7478Z" fill="black"/>
<path d="M2.47988 157.679C1.97987 158.054 1.09485 157.924 0.689838 157.424C0.249831 156.884 0.334814 156.174 0.889824 155.714C1.50483 155.209 2.15485 155.229 2.58486 155.764C3.06987 156.369 3.01989 157.274 2.47988 157.679Z" fill="black"/>
<path d="M6.9297 152.419C6.44469 152.804 5.5597 152.699 5.13469 152.204C4.67468 151.664 4.76966 150.914 5.35967 150.439C5.93968 149.974 6.5797 149.999 6.99471 150.504C7.48972 151.104 7.45971 151.994 6.9297 152.419Z" fill="black"/>
<path d="M27.8352 63.6775C27.3952 63.1375 27.4802 62.4224 28.0352 61.9674C28.6502 61.4624 29.3003 61.4774 29.7303 62.0124C30.2153 62.6175 30.1653 63.5175 29.6252 63.9275C29.1302 64.3025 28.2452 64.1775 27.8352 63.6775Z" fill="black"/>
<path d="M29.26 82.9677C28.89 82.4226 28.72 81.8776 29.495 81.2776C30.04 80.8426 30.705 80.8476 31.085 81.2926C31.595 81.8926 31.575 82.7827 31.035 83.2127C30.535 83.6127 29.64 83.5227 29.26 82.9677Z" fill="black"/>
<path d="M27.255 53.9827C26.76 53.2477 26.9 52.7577 27.505 52.2927C28.05 51.8577 28.715 51.8727 29.09 52.3227C29.6001 52.9327 29.5701 53.8177 29.025 54.2427C28.52 54.6377 27.625 54.5377 27.25 53.9827H27.255Z" fill="black"/>
<path d="M20.7049 30.3523C20.2099 29.6173 20.3449 29.1273 20.9549 28.6623C21.4999 28.2273 22.1649 28.2373 22.5399 28.6873C23.0499 29.2973 23.0199 30.1823 22.4799 30.6073C21.9749 31.0023 21.0799 30.9023 20.7049 30.3523Z" fill="black"/>
<path d="M11.455 147.24C10.945 147.67 10.155 147.6 9.72997 147.085C9.32496 146.595 9.37996 145.845 9.85497 145.415C10.345 144.965 11.145 145.01 11.585 145.515C12.025 146.015 11.965 146.81 11.46 147.245L11.455 147.24Z" fill="black"/>
<path d="M24.1751 122.128C23.5501 122.643 23.0651 122.593 22.5451 121.953C21.9901 121.273 22.0201 120.763 22.6401 120.263C23.2501 119.778 23.7601 119.868 24.3101 120.553C24.8001 121.163 24.7551 121.648 24.1751 122.128Z" fill="black"/>
<path d="M27.9651 105.683C28.5151 106.338 28.4951 106.828 27.9001 107.323C27.2751 107.843 26.785 107.798 26.27 107.168C25.72 106.493 25.74 105.968 26.3451 105.478C26.9351 104.998 27.4501 105.063 27.9651 105.683Z" fill="black"/>
<path d="M14.9998 16.2722C14.4348 15.5922 14.4498 15.0772 15.0448 14.5772C15.6598 14.0622 16.1648 14.1322 16.7198 14.8122C17.2448 15.4572 17.1999 15.9422 16.5748 16.4422C15.9848 16.9172 15.4948 16.8622 15.0048 16.2672L14.9998 16.2722Z" fill="black"/>
<path d="M26.6601 44.4176C26.175 43.8476 26.215 43.1275 26.75 42.7125C27.2151 42.3575 27.9351 42.4475 28.3301 42.9075C28.8451 43.5126 28.8351 44.0876 28.2951 44.5576C27.74 45.0426 27.1451 44.9926 26.655 44.4176H26.6601Z" fill="black"/>
<path d="M15.9049 142.069C15.3399 142.524 14.7648 142.444 14.2748 141.834C13.8398 141.294 13.8898 140.589 14.3948 140.189C14.8798 139.799 15.6099 139.904 16.0299 140.429C16.5199 141.039 16.4749 141.609 15.9049 142.069Z" fill="black"/>
<path d="M30.0401 92.4382C29.6251 91.9182 29.6901 91.1732 30.1851 90.7932C30.6801 90.4132 31.4002 90.5282 31.8152 91.0532C32.3002 91.6582 32.2502 92.2382 31.6701 92.6932C31.1001 93.1382 30.5301 93.0532 30.0401 92.4382Z" fill="black"/>
<path d="M9.10469 2.11658C8.76968 1.69157 8.82967 0.816555 9.21467 0.486549C9.62468 0.141543 10.5247 0.271545 10.8847 0.731553C11.3247 1.29156 11.2747 1.91157 10.7597 2.34158C10.2147 2.79659 9.57469 2.70659 9.10469 2.11158V2.11658Z" fill="black"/>
<path d="M20.2649 135.204C20.7099 135.694 20.7199 136.444 20.2849 136.864C19.8499 137.284 19.0549 137.234 18.6349 136.764C18.2049 136.284 18.2299 135.454 18.6899 135.064C19.0799 134.729 19.8999 134.809 20.2649 135.209V135.204Z" fill="black"/>
<path d="M20.2252 20.6762C19.8302 20.2112 19.8552 19.4462 20.2752 19.0312C20.6402 18.6712 21.5352 18.7512 21.9052 19.1812C22.3352 19.6762 22.3152 20.4362 21.8702 20.8362C21.4202 21.2412 20.6402 21.1662 20.2252 20.6762Z" fill="black"/>
<path d="M26.8352 116.788C26.4502 116.318 26.4952 115.528 26.9302 115.148C27.3353 114.793 28.1803 114.893 28.5603 115.343C28.9803 115.843 28.9403 116.603 28.4753 116.993C28.0103 117.383 27.2453 117.288 26.8352 116.788Z" fill="black"/>
<path d="M30.7502 101.954C30.3502 101.434 30.4352 100.939 31.0002 100.484C31.6052 99.9936 32.0702 100.039 32.5302 100.624C32.9052 101.099 32.8252 101.889 32.3702 102.234C31.9002 102.594 31.1402 102.459 30.7502 101.949V101.954Z" fill="black"/>
<path d="M33.1601 67.9573C32.7551 67.4422 32.8401 66.9422 33.4001 66.4872C34.0101 65.9972 34.4701 66.0372 34.9302 66.6172C35.3102 67.0972 35.2352 67.8773 34.7802 68.2273C34.3102 68.5873 33.5551 68.4623 33.1551 67.9523L33.1601 67.9573Z" fill="black"/>
<path d="M32.54 58.5122C32.18 58.0822 32.23 57.3722 32.645 56.9922C33.08 56.5972 33.8401 56.6472 34.2251 57.1022C34.6051 57.5522 34.5251 58.3122 34.06 58.6722C33.615 59.0172 32.91 58.9422 32.545 58.5122H32.54Z" fill="black"/>
<path d="M33.7803 77.6077C33.3803 77.0527 33.5153 76.5727 34.0053 76.1627C34.5154 75.7377 35.1303 75.7977 35.5204 76.3027C35.8954 76.7877 35.8104 77.5377 35.3454 77.8777C34.8704 78.2277 34.1403 78.0977 33.7803 77.6077Z" fill="black"/>
<path d="M14.3848 6.52687C14.0098 6.03186 14.1148 5.41185 14.6448 5.02684C15.1748 4.64184 15.6698 4.68684 16.0949 5.18685C16.4899 5.65186 16.4099 6.41187 15.9499 6.76687C15.4849 7.12688 14.7498 7.01188 14.3798 6.52687H14.3848Z" fill="black"/>
<path d="M26.095 34.7818C25.715 34.3218 25.785 33.5918 26.25 33.2118C26.7101 32.8318 27.4401 32.9018 27.8201 33.3668C28.2001 33.8268 28.1301 34.5568 27.6651 34.9368C27.2051 35.3168 26.4751 35.2468 26.095 34.7818Z" fill="black"/>
<path d="M24.695 131.794C24.225 132.144 23.49 132.024 23.1299 131.529C22.7299 130.979 22.8549 130.499 23.35 130.084C23.86 129.659 24.475 129.714 24.865 130.214C25.24 130.694 25.165 131.449 24.7 131.794H24.695Z" fill="black"/>
<path d="M31.9453 48.7621C31.6103 48.2821 31.4853 47.7671 32.1303 47.3371C32.6753 46.8871 33.1603 46.9221 33.5903 47.4571C33.9804 47.9421 33.9103 48.6171 33.4303 48.9821C32.9603 49.3421 32.3003 49.2671 31.9453 48.7571V48.7621Z" fill="black"/>
<path d="M12.0449 156.673C11.5899 157.048 10.9599 156.973 10.5499 156.503C10.1149 156.003 10.1799 155.483 10.9349 154.873C11.2299 154.663 11.7049 154.558 12.1599 155.143C12.5499 155.643 12.5149 156.293 12.0449 156.678V156.673Z" fill="black"/>
<path d="M25.4 25.1369C25.06 24.6619 24.93 24.1469 25.58 23.7019C26.11 23.2669 26.6051 23.2919 27.0301 23.8169C27.4251 24.3069 27.3601 24.9719 26.8851 25.3469C26.4151 25.7119 25.765 25.6469 25.4 25.1419V25.1369Z" fill="black"/>
<path d="M7.74492 160.405C8.13992 160.895 8.07493 161.565 7.59993 161.935C7.12992 162.3 6.47989 162.235 6.11488 161.725C5.77488 161.245 5.64989 160.735 6.28991 160.295C6.82491 159.85 7.31491 159.88 7.74492 160.41V160.405Z" fill="black"/>
<path d="M34.5705 87.183C34.2255 86.713 34.0904 86.198 34.7855 85.703C35.2705 85.298 35.7555 85.323 36.1855 85.848C36.5855 86.338 36.5305 87.003 36.0555 87.378C35.5955 87.743 34.9355 87.688 34.5705 87.183Z" fill="black"/>
<path d="M3.24456 165.549C3.61457 165.994 3.54457 166.699 3.08956 167.059C2.63455 167.419 1.91454 167.349 1.58453 166.874C1.23452 166.364 1.28454 165.854 1.72955 165.424C2.14456 165.024 2.86955 165.099 3.23956 165.544L3.24456 165.549Z" fill="black"/>
<path d="M19.595 10.9865C19.13 10.4715 19.32 10.0015 19.68 9.59645C20.055 9.18144 20.72 9.29645 21.115 9.77645C21.5 10.2615 21.53 10.7315 21.035 11.1665C20.56 11.5865 20.05 11.4915 19.595 10.9865Z" fill="black"/>
<path d="M31.5003 111.584C31.1003 111.089 31.0953 110.444 31.5853 110.149C32.0403 109.874 32.5653 109.739 32.9603 110.319C33.3903 110.834 33.3703 111.394 32.8803 111.764C32.3703 112.149 31.9103 112.089 31.5003 111.584Z" fill="black"/>
<path d="M27.8152 126.419C27.3102 125.914 27.4302 125.354 27.8452 124.984C28.2102 124.654 28.7852 124.519 29.2102 125.059C29.6552 125.549 29.6652 126.144 29.2102 126.519C28.7252 126.919 28.2652 126.864 27.8152 126.414V126.419Z" fill="black"/>
<path d="M35.3253 96.9276C34.8353 96.4126 34.9652 95.8626 35.3952 95.4976C35.7802 95.1725 36.3503 95.0625 36.7553 95.6176C37.1953 96.1176 37.1903 96.7026 36.7153 97.0726C36.2153 97.4626 35.7603 97.3826 35.3203 96.9276H35.3253Z" fill="black"/>
<path d="M15.0799 149.994C15.5249 149.709 16.0499 149.554 16.4549 150.134C16.8949 150.649 16.885 151.204 16.4099 151.584C15.9099 151.979 15.4399 151.924 15.0299 151.434C14.6199 150.949 14.6049 150.299 15.0849 149.994H15.0799Z" fill="black"/>
<path d="M31.3151 39.2173C30.9451 38.7523 30.9801 38.2673 31.4201 37.8773C31.8901 37.4623 32.4001 37.4823 32.8151 37.9623C33.2351 38.4423 33.1501 38.9273 32.6801 39.4073C32.2001 39.6923 31.7151 39.7273 31.3101 39.2223L31.3151 39.2173Z" fill="black"/>
<path d="M20.81 146.349C20.31 146.684 19.8 146.609 19.4249 146.129C19.0799 145.689 19.0199 145.229 19.555 144.904C20.035 144.469 20.46 144.319 20.905 144.904C21.275 145.389 21.275 146.039 20.81 146.344V146.349Z" fill="black"/>
<path d="M37.7606 62.9075C37.4256 62.4774 37.4755 61.9824 37.8906 61.6274C38.3356 61.2474 38.8506 61.2874 39.2256 61.7324C39.6056 62.1824 39.5006 62.6624 39.1056 63.0825C38.6056 63.3775 38.1206 63.3725 37.7606 62.9075Z" fill="black"/>
<path d="M38.4805 72.4775C38.1355 71.9925 38.1555 71.5625 38.5855 71.1925C39.0305 70.8075 39.5055 70.7725 39.9005 71.2475C40.2755 71.6975 40.2555 72.2225 39.8155 72.5975C39.3705 72.9775 38.8755 72.8575 38.4805 72.4775Z" fill="black"/>
<path d="M36.0304 106.403C35.6604 105.913 35.8054 105.458 36.2804 105.113C36.7404 104.773 37.1654 104.863 37.5704 105.318C37.8254 105.773 37.8454 106.283 37.3704 106.628C36.9054 106.968 36.3904 106.878 36.0354 106.403H36.0304Z" fill="black"/>
<path d="M39.1804 82.0082C38.8154 81.4682 38.9153 81.0282 39.3904 80.6731C39.8454 80.3331 40.2954 80.3781 40.6404 80.8231C41.0004 81.2881 40.9654 81.8132 40.5104 82.1682C40.0504 82.5282 39.5604 82.3982 39.1854 82.0082H39.1804Z" fill="black"/>
<path d="M24.0003 141.049C23.6353 140.514 23.7303 140.074 24.2003 139.714C24.6503 139.369 25.1053 139.409 25.4503 139.849C25.8103 140.309 25.7853 140.834 25.3303 141.194C24.8753 141.559 24.3853 141.429 24.0003 141.044V141.049Z" fill="black"/>
<path d="M30.6054 29.6214C30.2404 29.0814 30.3404 28.6414 30.8154 28.2864C31.2704 27.9464 31.7204 27.9914 32.0654 28.4364C32.4204 28.9014 32.3904 29.4264 31.9354 29.7814C31.4754 30.1415 30.9854 30.0115 30.6104 29.6214H30.6054Z" fill="black"/>
<path d="M32.2503 121.119C31.8853 120.694 31.9352 120.239 32.3603 119.869C32.8053 119.479 33.2553 119.469 33.7103 119.934C34.0153 120.384 34.0403 120.889 33.5953 121.264C33.1503 121.639 32.6303 121.559 32.2503 121.119Z" fill="black"/>
<path d="M37.1354 53.2023C36.7654 52.7123 36.9104 52.2573 37.3804 51.9073C37.8404 51.5673 38.2654 51.6523 38.6504 52.0873C38.9354 52.5673 38.9405 53.0723 38.4704 53.4173C38.0104 53.7574 37.4904 53.6674 37.1354 53.1973V53.2023Z" fill="black"/>
<path d="M24.75 15.5173C24.405 14.9773 24.515 14.5423 24.995 14.1973C25.455 13.8623 25.905 13.9223 26.24 14.3673C26.59 14.8373 26.55 15.3623 26.085 15.7123C25.62 16.0573 25.13 15.9273 24.755 15.5173H24.75Z" fill="black"/>
<path d="M36.3651 43.5168C36.0901 43.1768 35.9301 42.7218 36.5101 42.3068C36.8051 41.9868 37.2401 41.8218 37.6501 42.2468C38.0601 42.6718 38.1351 43.2468 37.6901 43.6618C37.2751 44.0518 36.7201 43.9518 36.3651 43.5168Z" fill="black"/>
<path d="M39.9005 91.6085C39.4804 91.1485 39.4905 90.6984 39.9405 90.3484C40.2905 90.0784 40.7505 89.9634 41.0555 90.4634C41.4505 90.8935 41.5455 91.2935 41.0555 91.6985C40.6355 92.0535 40.2805 92.0285 39.8954 91.6085H39.9005Z" fill="black"/>
<path d="M8.09476 170.149C8.44477 170.559 8.49475 170.944 8.10974 171.354C7.68974 171.674 7.29973 171.699 6.91972 171.269C6.54471 170.844 6.52473 170.379 6.93473 170.044C7.27474 169.759 7.72975 169.719 8.09476 170.149Z" fill="black"/>
<path d="M28.575 135.759C28.15 135.354 28.32 134.909 28.71 134.604C29.115 134.289 29.545 134.319 29.9 134.814C30.215 135.259 30.24 135.609 29.805 135.974C29.33 136.369 28.945 136.259 28.58 135.759H28.575Z" fill="black"/>
<path d="M15.81 160.82C15.455 160.38 15.565 159.945 15.92 159.66C16.33 159.33 16.795 159.39 17.13 159.88C17.455 160.315 17.43 160.715 16.98 161.05C16.52 161.39 16.15 161.24 15.81 160.825V160.82Z" fill="black"/>
<path d="M36.7351 115.759C36.4551 115.469 36.5701 115.004 36.9551 114.689C37.3252 114.384 37.7702 114.449 38.1102 114.869C38.4552 115.294 38.4802 115.689 38.0452 116.054C37.6102 116.419 37.2152 116.329 36.7401 115.759H36.7351Z" fill="black"/>
<path d="M12.4851 166.154C12.0351 166.469 11.6601 166.399 11.3051 165.974C10.9501 165.549 11.005 165.104 11.3601 164.804C11.7451 164.479 12.2101 164.504 12.5701 164.959C12.9201 165.394 12.8951 165.779 12.4851 166.154Z" fill="black"/>
<path d="M30.0052 19.7418C29.6352 19.3218 29.7101 18.8768 30.0452 18.5718C30.4252 18.2268 30.9002 18.2568 31.2602 18.7168C31.6002 19.1318 31.6252 19.5368 31.1852 19.8968C30.7502 20.2519 30.3702 20.1569 30.0102 19.7418H30.0052Z" fill="black"/>
<path d="M35.8254 33.8022C35.4904 33.3822 35.5104 32.9372 35.8954 32.6372C36.2854 32.3372 36.7454 32.3322 37.1104 32.8122C37.4454 33.2572 37.4154 33.6372 36.9954 34.0122C36.5454 34.3172 36.1654 34.2373 35.8254 33.8072V33.8022Z" fill="black"/>
<path d="M3.72956 175.224C4.06956 175.644 4.08954 176.049 3.64454 176.404C3.20453 176.759 2.82953 176.659 2.46953 176.244C2.10452 175.824 2.1695 175.379 2.51451 175.074C2.89452 174.739 3.36955 174.764 3.72956 175.224Z" fill="black"/>
<path d="M19.0499 1.46153C18.6999 1.06652 18.7099 0.621512 19.1049 0.261506C19.5249 -0.118501 19.9899 -0.0935006 20.3549 0.346507C20.6949 0.756514 20.6299 1.17652 20.2499 1.55653C19.8299 1.85653 19.4049 1.86153 19.0499 1.46153Z" fill="black"/>
<path d="M40.6302 101.158C40.3102 100.778 40.3452 100.358 40.7253 100.033C41.1103 99.7034 41.5053 99.7834 41.8653 100.113C42.1353 100.523 42.1453 100.928 41.7603 101.253C41.3753 101.573 40.9553 101.538 40.6353 101.158H40.6302Z" fill="black"/>
<path d="M32.9501 130.693C32.5851 130.303 32.7251 129.943 33.0401 129.613C33.4251 129.333 33.7951 129.208 34.1451 129.633C34.4801 130.043 34.4751 130.493 34.0801 130.823C33.7151 131.128 33.2851 131.048 32.9551 130.693H32.9501Z" fill="black"/>
<path d="M20.3553 155.694C20.0253 155.274 20.2003 154.924 20.6203 154.569C20.9503 154.394 21.3303 154.299 21.6403 154.749C21.9153 155.149 21.9054 155.584 21.5303 155.879C21.1253 156.194 20.6803 156.109 20.3553 155.694Z" fill="black"/>
<path d="M43.0503 67.1582C42.7703 66.7582 42.9053 66.4282 43.2453 66.1482C43.6253 65.8332 43.9903 65.8281 44.4053 66.2932C44.5904 66.6382 44.6554 67.0932 44.2153 67.3982C43.8053 67.6832 43.3603 67.6032 43.0453 67.1632L43.0503 67.1582Z" fill="black"/>
<path d="M42.2355 57.4871C41.9505 57.0871 42.0855 56.7571 42.4255 56.4771C42.8005 56.1621 43.1705 56.1521 43.5505 56.5721C43.8005 56.9571 43.8255 57.4121 43.4055 57.7171C43.0005 58.0121 42.5505 57.9271 42.2355 57.4871Z" fill="black"/>
<path d="M24.1348 5.58688C23.8548 5.18687 23.9898 4.85687 24.3298 4.57686C24.7098 4.26186 25.0748 4.25686 25.4548 4.68186C25.6948 5.06687 25.7248 5.52188 25.2998 5.82188C24.8898 6.11189 24.4448 6.02689 24.1348 5.58688Z" fill="black"/>
<path d="M24.69 150.539C24.38 150.149 24.5 149.809 24.9 149.504C25.23 149.209 25.59 149.214 25.895 149.594C26.2 149.979 26.185 150.424 25.81 150.719C25.435 151.009 25.005 150.929 24.695 150.539H24.69Z" fill="black"/>
<path d="M41.6853 47.8377C41.3753 47.4327 41.5203 47.1077 41.9403 46.7827C42.2503 46.5077 42.6153 46.5327 42.9053 46.9127C43.2053 47.3027 43.1853 47.7477 42.8003 48.0377C42.4203 48.3177 41.9953 48.2327 41.6853 47.8377Z" fill="black"/>
<path d="M44.3956 86.3678C44.0856 85.9628 44.2407 85.6378 44.6657 85.3078C44.9707 85.0378 45.3307 85.0728 45.6207 85.4528C45.9157 85.8428 45.9007 86.2878 45.5107 86.5728C45.1307 86.8528 44.7057 86.7678 44.4007 86.3678H44.3956Z" fill="black"/>
<path d="M43.7302 76.8882C43.4552 76.5232 43.4952 76.1032 43.8552 75.8182C44.2452 75.5132 44.6852 75.5682 44.9752 75.9782C45.2352 76.3482 45.1402 76.7382 44.7952 77.0682C44.4052 77.2532 44.0102 77.2632 43.7302 76.8932V76.8882Z" fill="black"/>
<path d="M35.2451 24.2862C34.9601 23.9712 34.9751 23.5812 35.2801 23.2862C35.6201 22.9612 35.9951 23.0012 36.3501 23.3262C36.5901 23.6662 36.6101 24.0262 36.3001 24.3262C35.9601 24.6512 35.5551 24.6312 35.2451 24.2862Z" fill="black"/>
<path d="M29.3302 145.379C29.0252 145.009 29.0003 144.669 29.3853 144.374C29.7753 144.074 30.0853 144.224 30.3753 144.589C30.6753 144.964 30.6603 145.254 30.2653 145.519C29.8902 145.874 29.6152 145.729 29.3302 145.384V145.379Z" fill="black"/>
<path d="M41.3106 110.668C40.9756 110.348 40.9556 109.993 41.3206 109.683C41.6906 109.373 42.0156 109.478 42.3156 109.848C42.6056 110.203 42.6456 110.478 42.2556 110.793C41.8856 111.093 41.5906 111.088 41.3106 110.668Z" fill="black"/>
<path d="M29.4103 10.092C29.1003 9.71697 29.0903 9.38196 29.4753 9.08696C29.8753 8.78695 30.1753 8.95695 30.4653 9.31696C30.7703 9.69697 30.7303 9.98697 30.3403 10.247C29.9603 10.607 29.6903 10.437 29.4103 10.097V10.092Z" fill="black"/>
<path d="M37.5654 125.449C37.2554 125.069 37.2554 124.734 37.6404 124.444C38.0454 124.139 38.3454 124.329 38.6254 124.684C38.9354 125.069 38.8754 125.354 38.5004 125.604C38.1054 125.964 37.8404 125.784 37.5654 125.444V125.449Z" fill="black"/>
<path d="M45.2052 95.848C44.9502 95.523 44.9452 95.193 45.2402 94.928C45.5652 94.633 45.9152 94.688 46.2102 95.028C46.5003 95.368 46.5202 95.723 46.1752 96.008C45.8302 96.288 45.4902 96.198 45.2102 95.848H45.2052Z" fill="black"/>
<path d="M41.1353 38.3025C40.8303 37.9925 40.7752 37.6374 41.0703 37.3174C41.3853 36.9824 41.7303 37.0824 41.9953 37.3224C42.3303 37.7024 42.3803 38.0525 42.0503 38.3575C41.7502 38.6325 41.4203 38.5875 41.1353 38.2975V38.3025Z" fill="black"/>
<path d="M48.2055 71.4876C47.9105 71.1426 48.1006 70.9126 48.3556 70.6876C48.6556 70.4526 48.9356 70.3176 49.2256 70.7176C49.4656 71.0526 49.4806 71.3926 49.1756 71.6426C48.8355 71.9226 48.4955 71.8276 48.2055 71.4826V71.4876Z" fill="black"/>
<path d="M40.3452 28.6519C40.0452 28.3019 40.2452 28.0769 40.5002 27.8519C40.8002 27.6169 41.0852 27.4819 41.3702 27.8869C41.6053 28.2219 41.6203 28.5619 41.3153 28.8119C40.9752 29.0919 40.6352 28.9919 40.3452 28.6469V28.6519Z" fill="black"/>
<path d="M41.9655 120.143C41.7205 119.883 42.0354 119.653 42.3005 119.433C42.5855 119.198 42.8605 119.168 43.1055 119.518C43.3405 119.853 43.3555 120.193 43.0505 120.443C42.7105 120.728 42.3555 120.623 41.9655 120.143Z" fill="black"/>
<path d="M33.8452 140.215C33.5552 139.88 33.7052 139.645 34.0552 139.35C34.2652 139.19 34.5452 139.015 34.8452 139.42C35.0902 139.75 35.1102 140.09 34.8152 140.35C34.4852 140.64 34.1352 140.55 33.8402 140.215H33.8452Z" fill="black"/>
<path d="M45.7103 105.393C45.4453 105.133 45.7103 104.883 45.9903 104.653C46.2653 104.428 46.5353 104.338 46.8003 104.698C47.0653 105.058 47.0803 105.413 46.7253 105.678C46.4053 105.913 46.0703 105.818 45.7103 105.393Z" fill="black"/>
<path d="M47.6504 61.8821C47.3154 61.5271 47.4754 61.2671 47.9304 60.9021C48.0904 60.7571 48.3754 60.6921 48.6454 61.0821C48.8754 61.4171 48.8804 61.7571 48.5704 62.0071C48.2604 62.2571 47.9304 62.1771 47.6504 61.8821Z" fill="black"/>
<path d="M34.6553 14.4967C34.3203 14.1217 34.5453 13.8817 34.7453 13.7067C35.1053 13.4217 35.3703 13.3217 35.6353 13.6767C35.9053 14.0317 35.9203 14.3917 35.5703 14.6567C35.2553 14.8917 34.9303 14.8017 34.6553 14.4917V14.4967Z" fill="black"/>
<path d="M12.3351 175.584C12.0951 175.309 12.1251 174.969 12.3951 174.734C12.6701 174.494 13.0051 174.524 13.2451 174.794C13.4851 175.069 13.4251 175.379 13.1901 175.659C12.8901 175.849 12.5751 175.859 12.3351 175.584Z" fill="black"/>
<path d="M47.0553 52.3872C46.7903 52.1221 46.8203 51.7971 47.0653 51.5371C47.3303 51.2571 47.6603 51.2921 47.8903 51.5621C48.1103 51.8221 48.0753 52.1421 47.8153 52.4572C47.5803 52.5972 47.2903 52.6172 47.0603 52.3872H47.0553Z" fill="black"/>
<path d="M21.215 165.344C20.9499 165.079 20.98 164.754 21.225 164.494C21.49 164.214 21.82 164.249 22.05 164.519C22.27 164.779 22.235 165.099 21.975 165.414C21.74 165.554 21.45 165.574 21.22 165.344H21.215Z" fill="black"/>
<path d="M16.6649 170.439C16.4199 170.164 16.4549 169.839 16.7199 169.589C16.9999 169.329 17.3199 169.364 17.5399 169.659C17.7449 169.934 17.6949 170.249 17.4549 170.514C17.1699 170.684 16.8749 170.679 16.6649 170.439Z" fill="black"/>
<path d="M38.3554 134.999C38.1804 134.664 38.2154 134.354 38.5104 134.144C38.7754 133.954 39.0854 133.974 39.2704 134.254C39.4754 134.564 39.4604 134.924 39.1254 135.144C38.8504 135.324 38.5704 135.229 38.3554 134.999Z" fill="black"/>
<path d="M49.0804 81.1424C48.8104 80.8824 48.8404 80.5574 49.0804 80.2924C49.3404 80.0074 49.6754 80.0424 49.9054 80.3124C50.1304 80.5724 50.0954 80.8924 49.8304 81.2124C49.6004 81.3474 49.3104 81.3774 49.0754 81.1474L49.0804 81.1424Z" fill="black"/>
<path d="M7.78468 180.655C7.55467 180.405 7.61468 180.11 7.84968 179.88C8.12469 179.615 8.44968 179.625 8.68469 179.905C8.90469 180.17 8.8747 180.49 8.6347 180.77C8.32969 180.94 8.01969 180.915 7.78968 180.655H7.78468Z" fill="black"/>
<path d="M3.26979 185.795C3.02979 185.55 3.07479 185.255 3.29979 185.02C3.5598 184.75 3.88983 184.735 4.13483 185.005C4.36483 185.26 4.34483 185.585 4.09482 185.895C3.81982 186.04 3.50979 186.045 3.26479 185.795H3.26979Z" fill="black"/>
<path d="M46.6454 114.963C46.4304 114.698 46.3704 114.458 46.6754 114.218C46.9804 113.973 47.2054 114.088 47.4054 114.363C47.6404 114.618 47.6754 114.863 47.3754 115.103C47.0704 115.343 46.8554 115.233 46.6404 114.963H46.6454Z" fill="black"/>
<path d="M49.7354 90.7228C49.5154 90.4478 49.4904 90.2128 49.7954 89.9828C50.1104 89.7378 50.3154 89.9028 50.5254 90.1528C50.7554 90.4278 50.7605 90.6678 50.3855 90.9578C50.1555 91.1328 49.9404 90.9928 49.7354 90.7278V90.7228Z" fill="black"/>
<path d="M30.1704 154.819C29.9654 154.559 29.8604 154.329 30.1704 154.069C30.4604 153.824 30.6854 153.909 30.9054 154.174C31.1204 154.434 31.2055 154.669 30.9805 154.864C30.6205 155.164 30.3904 155.099 30.1704 154.819Z" fill="black"/>
<path d="M39.8904 18.9272C39.6754 18.6622 39.6154 18.4222 39.9204 18.1822C40.2254 17.9372 40.4504 18.0522 40.6504 18.3272C40.8854 18.5822 40.9204 18.8272 40.6204 19.0672C40.3154 19.3072 40.1004 19.1972 39.8854 18.9272H39.8904Z" fill="black"/>
<path d="M50.5007 100.319C50.3157 100.099 50.3407 99.8885 50.5607 99.7035C50.7857 99.5135 51.0157 99.4285 51.2407 99.7135C51.4257 99.9535 51.4407 100.209 51.1957 100.409C50.9557 100.609 50.7057 100.554 50.5007 100.314V100.319Z" fill="black"/>
<path d="M52.9004 66.3177C52.6804 66.0427 52.7954 65.8377 53.0354 65.6527C53.2604 65.4777 53.4704 65.4927 53.6504 65.7227C53.8454 65.9727 53.8155 66.2027 53.6055 66.4327C53.3355 66.5877 53.1004 66.5628 52.9054 66.3177H52.9004Z" fill="black"/>
<path d="M34.7353 149.724C34.5503 149.514 34.5453 149.304 34.7653 149.109C34.9853 148.919 35.2103 148.814 35.4453 149.089C35.6503 149.329 35.6353 149.564 35.4403 149.804C35.1853 149.974 34.9453 149.964 34.7353 149.729V149.724Z" fill="black"/>
<path d="M45.7603 33.0316C45.5403 32.7566 45.6553 32.5516 45.8953 32.3666C46.1203 32.1916 46.3303 32.2066 46.5103 32.4366C46.7053 32.6866 46.6753 32.9166 46.4653 33.1466C46.1953 33.3016 45.9603 33.2766 45.7653 33.0316H45.7603Z" fill="black"/>
<path d="M42.9855 129.804C42.7105 129.529 42.8555 129.324 43.0855 129.134C43.3005 128.954 43.5105 128.949 43.7005 129.179C43.9005 129.419 43.9055 129.674 43.6705 129.879C43.4305 130.084 43.1855 130.024 42.9855 129.804Z" fill="black"/>
<path d="M34.1502 4.94184C33.9452 4.69683 33.8902 4.49183 34.1253 4.28683C34.3403 4.09682 34.5603 3.96682 34.8053 4.23683C35.0153 4.46683 35.0403 4.72183 34.8203 4.94184C34.5953 5.16684 34.3453 5.11184 34.1553 4.94184H34.1502Z" fill="black"/>
<path d="M46.3305 42.7474C46.1405 42.5074 46.1505 42.2474 46.3755 42.0424C46.6255 41.8124 46.9055 41.8074 47.1405 42.0674C47.3705 42.3224 47.3405 42.5924 47.0905 42.8424C46.8155 43.0324 46.5505 43.0224 46.3305 42.7524V42.7474Z" fill="black"/>
<path d="M25.65 160.019C25.45 159.784 25.455 159.524 25.67 159.309C25.91 159.074 26.1951 159.054 26.4351 159.309C26.6701 159.554 26.6601 159.829 26.4051 160.084C26.1401 160.284 25.875 160.284 25.645 160.019H25.65Z" fill="black"/>
<path d="M47.2805 124.584C47.0005 124.309 47.2705 124.164 47.4405 124.029C47.5955 123.914 47.7855 123.729 47.9555 124.039C48.0805 124.269 48.1105 124.484 47.9305 124.699C47.6805 124.829 47.4655 124.764 47.2805 124.584Z" fill="black"/>
<path d="M53.5206 75.7134C53.3856 75.5684 53.5856 75.4234 53.7356 75.2934C53.8857 75.1684 54.0757 74.9734 54.2657 75.2134C54.4357 75.4334 54.5157 75.7234 54.2557 75.9234C54.0407 76.0934 53.8007 75.9784 53.5206 75.7134Z" fill="black"/>
<path d="M45.0653 23.4418C44.7853 23.2218 44.9953 23.0618 45.1403 22.9318C45.3003 22.7868 45.4954 22.5468 45.7204 22.8618C45.8704 23.0718 45.8954 23.3018 45.6954 23.5568C45.4854 23.6518 45.2754 23.6068 45.0704 23.4418H45.0653Z" fill="black"/>
<path d="M52.1454 56.6524C51.9654 56.4224 52.1955 56.2724 52.3555 56.1524C52.5155 56.0374 52.7054 55.8674 52.8704 56.1524C53.0004 56.3824 53.0605 56.6374 52.8404 56.8074C52.5854 57.0074 52.3104 56.8674 52.1454 56.6524Z" fill="black"/>
<path d="M51.6154 47.0722C51.3354 46.8522 51.5504 46.6922 51.6904 46.5672C51.8504 46.4222 52.0454 46.1822 52.2704 46.5022C52.4154 46.7172 52.4404 46.9422 52.2604 47.1722C52.0254 47.3122 51.8204 47.2372 51.6154 47.0772V47.0722Z" fill="black"/>
<path d="M54.2206 85.4685C53.9556 85.2435 54.1656 85.0885 54.3106 84.9635C54.4756 84.8185 54.6706 84.5835 54.8856 84.9135C55.0306 85.1335 55.0506 85.3585 54.8706 85.5785C54.6306 85.7136 54.4206 85.6385 54.2206 85.4735V85.4685Z" fill="black"/>
<path d="M39.1655 9.28615C38.9855 9.05615 39.2155 8.90615 39.3755 8.78615C39.5355 8.67114 39.7255 8.50114 39.8905 8.78615C40.0205 9.01615 40.0805 9.27115 39.8605 9.44116C39.6055 9.64116 39.3305 9.50116 39.1655 9.28615Z" fill="black"/>
<path d="M51.1954 109.788C50.9704 109.558 51.1954 109.413 51.3404 109.283C51.4904 109.153 51.6654 108.998 51.8304 109.163C52.0104 109.438 52.0854 109.693 51.8954 109.883C51.6604 110.113 51.3954 109.993 51.1954 109.783V109.788Z" fill="black"/>
<path d="M39.0056 144.469C38.7906 144.239 39.0156 144.089 39.1656 143.969C39.3206 143.844 39.4956 143.679 39.6456 143.854C39.8306 144.144 39.9006 144.399 39.7056 144.584C39.4656 144.809 39.2006 144.684 39.0056 144.474V144.469Z" fill="black"/>
</svg>
