<svg width="55" height="186" viewBox="0 0 55 186" fill="none" xmlns="http://www.w3.org/2000/svg">
<path d="M54.8152 72.5835C54.0602 72.3835 53.1952 72.6535 52.7402 73.2786C52.1002 74.1436 52.2102 75.5486 53.0452 76.1986C53.5302 76.5786 54.2052 76.6786 54.8152 76.5286V72.5835Z" fill="black"/>
<path d="M54.8155 62.873C54.2405 62.898 53.6755 63.1631 53.3255 63.6331C52.6905 64.4981 52.8005 65.9031 53.6355 66.5531C53.9705 66.8131 54.3855 66.9381 54.8155 66.9431V62.873Z" fill="black"/>
<path d="M54.8152 53.4326C54.5802 53.5226 54.3751 53.6626 54.2101 53.8626C53.3801 54.8776 53.4401 56.2277 54.3502 56.9627C54.4952 57.0777 54.6502 57.1577 54.8152 57.2277V53.4326Z" fill="black"/>
<path d="M54.8154 82.4676C54.0103 81.9076 52.8053 82.0876 52.1253 82.8976C51.3603 83.8126 51.4153 84.8677 52.2553 85.5627C53.1553 86.3077 54.1253 86.3427 54.8154 85.6877V82.4676Z" fill="black"/>
<path d="M51.5055 95.2779C52.3655 96.013 53.5305 95.928 54.2506 95.0729C55.0106 94.1779 54.9556 92.9579 54.1205 92.2229C53.3755 91.5629 52.0255 91.7079 51.3455 92.5279C50.6005 93.4229 50.6655 94.5629 51.5055 95.2779Z" fill="black"/>
<path d="M54.8156 44.3926C54.7856 44.4276 54.7456 44.4526 54.7156 44.4876C54.0456 45.2876 54.1056 46.3826 54.8156 47.0976V44.3926Z" fill="black"/>
<path d="M48.575 70.9729C49.37 71.6129 50.6501 71.4729 51.2951 70.6529C52.0101 69.7529 51.9351 68.6579 50.97 67.9779C50.255 67.2578 48.955 67.3628 48.355 68.1729C47.695 69.0629 47.755 70.3079 48.575 70.9729Z" fill="black"/>
<path d="M47.8851 80.5277C48.6501 81.1327 49.9401 80.9827 50.5501 80.2227C51.2901 79.2977 51.1702 78.2727 50.2351 77.5226C49.3251 76.7926 48.3251 76.8976 47.6001 77.8026C46.9651 78.5927 47.1001 79.9027 47.8851 80.5277Z" fill="black"/>
<path d="M49.0952 61.2472C49.7852 61.8972 51.1502 61.8722 51.7603 61.1022C52.4553 60.2222 52.7453 59.3771 51.6252 58.4121C50.7552 57.6571 49.9252 57.5271 48.9852 58.5121C48.2952 59.2571 48.3452 60.5422 49.0952 61.2472Z" fill="black"/>
<path d="M54.8153 116.679C54.7903 116.709 54.7553 116.729 54.7303 116.759C53.9353 117.724 53.9602 118.879 54.8003 119.589C54.8003 119.589 54.8103 119.594 54.8153 119.599V116.679Z" fill="black"/>
<path d="M47.2701 90.1232C48.0501 90.7832 49.3352 90.6532 49.9652 89.8082C50.6502 88.8931 50.5952 88.0231 49.6552 87.2281C48.7651 86.4481 47.6601 86.6881 47.1451 87.3531C46.4101 88.3081 46.4501 89.4332 47.2651 90.1232H47.2701Z" fill="black"/>
<path d="M49.8951 51.7279C50.6902 52.3829 51.9652 52.2429 52.5902 51.3929C53.2552 50.4879 53.2052 49.6479 52.3252 48.8629C51.4302 48.1329 50.4302 48.1479 49.8102 48.8979C49.0151 49.8629 49.0501 51.0279 49.8951 51.7279Z" fill="black"/>
<path d="M50.7302 102.263C50.0752 103.133 50.2002 104.333 51.0152 104.968C51.8153 105.593 53.0403 105.453 53.6703 104.663C54.3003 103.868 54.1703 102.643 53.3853 102.003C52.6053 101.368 51.3052 101.493 50.7302 102.258V102.263Z" fill="black"/>
<path d="M50.7651 41.9566C51.5652 42.6166 52.5752 42.4666 53.2952 41.7116C53.9852 40.9915 53.9202 39.8415 53.1402 39.1365C52.3802 38.4465 51.2701 38.5765 50.6001 39.3915C49.8901 40.2515 49.9601 41.2915 50.7601 41.9566H50.7651Z" fill="black"/>
<path d="M46.6504 99.6078C47.4504 100.253 48.5104 100.118 49.1755 99.2878C49.8205 98.4828 49.7455 97.4128 48.9955 96.7528C48.2604 96.1078 47.0854 96.2528 46.4204 97.0728C45.7504 97.8978 45.8454 98.9628 46.6504 99.6078Z" fill="black"/>
<path d="M50.3601 114.403C51.1601 115.053 52.2201 114.923 52.8851 114.093C53.5452 113.273 53.4401 112.083 52.6551 111.508C51.8451 110.918 50.7951 111.068 50.1401 111.868C49.4651 112.693 49.5601 113.758 50.3601 114.403Z" fill="black"/>
<path d="M44.9251 56.0272C45.6451 56.6422 46.7501 56.5622 47.3851 55.8572C48.0351 55.1272 47.9551 53.9772 47.2101 53.3422C46.4901 52.7272 45.3851 52.8072 44.7501 53.5122C44.1 54.2422 44.18 55.3922 44.9251 56.0272Z" fill="black"/>
<path d="M42.8601 84.9535C43.6002 85.5085 44.7702 85.3585 45.3502 84.6185C46.0052 83.7885 45.8802 82.8584 45.0252 82.1734C44.3902 81.5034 43.1701 81.6284 42.5251 82.4734C41.9751 83.1934 42.2601 84.5035 42.8601 84.9535Z" fill="black"/>
<path d="M43.4001 75.2684C44.1351 75.9034 45.2752 75.7934 45.9002 75.0384C46.5252 74.2783 46.4152 73.1633 45.6552 72.5383C44.9202 71.9433 43.8001 72.0233 43.2251 72.7183C42.5551 73.5283 42.6301 74.6033 43.4001 75.2684Z" fill="black"/>
<path d="M44.1349 65.7331C44.8849 66.3532 46.0149 66.2331 46.6299 65.4631C47.245 64.6931 47.1149 63.5781 46.3449 62.9681C45.6049 62.3831 44.4849 62.4831 43.9199 63.1881C43.2599 64.0081 43.3499 65.0831 44.1349 65.7331Z" fill="black"/>
<path d="M51.4103 32.3272C52.1453 32.8972 53.3303 32.7372 53.9003 31.9872C54.5153 31.1822 54.3803 30.2122 53.5703 29.5722C52.7553 28.9322 51.7903 29.0322 51.1503 29.8272C50.5603 30.5572 50.6853 31.7622 51.4103 32.3272Z" fill="black"/>
<path d="M54.8154 125.979C54.5004 126.074 54.2104 126.264 53.9654 126.559C53.3604 127.284 53.4654 128.474 54.1854 129.064C54.3704 129.214 54.5854 129.314 54.8154 129.374V125.984V125.979Z" fill="black"/>
<path d="M42.1753 94.4732C42.8954 95.0232 43.9954 94.8982 44.5654 94.1932C45.1554 93.4681 45.0204 92.3131 44.2804 91.7481C43.5604 91.1981 42.4604 91.3231 41.8904 92.0281C41.3004 92.7531 41.4353 93.9081 42.1753 94.4732Z" fill="black"/>
<path d="M45.55 46.3629C46.2251 46.9279 47.4551 46.7829 48.0351 46.0729C48.6501 45.3229 48.4851 44.1278 47.7951 43.7228C46.9401 43.0228 46.0101 43.0828 45.3501 43.8828C44.7701 44.5879 44.865 45.7879 45.55 46.3579V46.3629Z" fill="black"/>
<path d="M45.9401 109.129C46.6552 109.719 47.8002 109.604 48.3902 108.884C48.9802 108.169 48.8652 107.024 48.1452 106.434C47.4302 105.844 46.2852 105.959 45.6951 106.679C45.1051 107.394 45.2201 108.539 45.9401 109.129Z" fill="black"/>
<path d="M49.8752 123.934C50.6502 124.559 51.5002 124.464 52.1402 123.684C52.8502 122.819 52.7952 121.949 51.9852 121.304C51.2152 120.689 50.3602 120.779 49.7402 121.544C49.0051 122.444 49.0502 123.269 49.8752 123.934Z" fill="black"/>
<path d="M46.2151 34.3518C45.5251 35.1718 45.5701 36.0819 46.3401 36.7119C47.0752 37.3169 47.9752 37.2469 48.5852 36.5319C49.2952 35.6969 49.2602 34.7668 48.5002 34.1168C47.8202 33.5368 46.8101 33.6418 46.2151 34.3518Z" fill="black"/>
<path d="M45.3453 118.819C46.0703 119.404 47.0103 119.299 47.6054 118.569C48.2454 117.783 48.1804 116.748 47.4554 116.183C46.7203 115.608 45.7203 115.768 45.0903 116.563C44.5103 117.298 44.6153 118.238 45.3453 118.824V118.819Z" fill="black"/>
<path d="M41.5952 103.988C42.3302 104.598 43.2352 104.538 43.8402 103.828C44.5602 102.988 44.5352 102.083 43.7802 101.408C43.1252 100.828 42.0802 100.923 41.4902 101.618C40.7902 102.443 40.8302 103.348 41.5952 103.983V103.988Z" fill="black"/>
<path d="M39.1448 69.9573C39.8998 70.6073 40.8248 70.5523 41.4498 69.8123C42.1498 68.9822 42.1098 68.0322 41.3498 67.3972C40.6498 66.8172 39.6698 66.9272 39.0648 67.6472C38.3998 68.4422 38.4297 69.3372 39.1448 69.9573Z" fill="black"/>
<path d="M38.4801 79.5681C39.1901 80.1482 40.1701 80.0632 40.7551 79.3631C41.3451 78.6581 41.2701 77.6731 40.5751 77.0831C39.8751 76.4831 38.8901 76.5481 38.2951 77.2331C37.665 77.9531 37.745 78.9681 38.4801 79.5681Z" fill="black"/>
<path d="M40.5052 50.7981C41.1702 51.3581 42.2453 51.2281 42.8253 50.5281C43.3703 49.8631 43.3052 48.7931 42.6752 48.2231C42.0702 47.6681 40.9002 47.8031 40.3352 48.4931C39.7502 49.2081 39.8202 50.2281 40.5052 50.7981Z" fill="black"/>
<path d="M39.5549 58.0876C38.9749 58.7976 39.0699 59.7777 39.7749 60.3627C40.4799 60.9477 41.4649 60.8677 42.0549 60.1727C42.6699 59.4476 42.57 58.4326 41.83 57.8426C41.1149 57.2726 40.1349 57.3776 39.5599 58.0926L39.5549 58.0876Z" fill="black"/>
<path d="M54.8157 21.1219C54.7507 20.7419 54.5507 20.3868 54.2107 20.1168C53.4957 19.5518 52.5157 19.6618 51.9407 20.3768C51.3657 21.0919 51.4656 22.0669 52.1757 22.6519C52.8857 23.2319 53.8657 23.1469 54.4507 22.4469C54.6507 22.2069 54.7707 21.9319 54.8157 21.6519V21.1219Z" fill="black"/>
<path d="M37.7152 89.2523C38.3952 89.7723 39.4552 89.6273 39.9902 88.9373C40.5552 88.2123 40.4303 87.3073 39.6852 86.7223C38.9552 86.1473 38.0202 86.2523 37.4602 86.9723C36.9252 87.6573 37.0502 88.7373 37.7152 89.2523Z" fill="black"/>
<path d="M54.8154 135.864C54.2904 135.774 53.7654 135.959 53.3804 136.429C52.8254 137.109 52.9204 138.174 53.5804 138.714C53.9254 138.994 54.3804 139.094 54.8154 139.029V135.859V135.864Z" fill="black"/>
<path d="M46.8905 24.6719C46.2405 25.4519 46.2854 26.537 46.9954 27.072C47.6455 27.567 48.7005 27.442 49.2105 26.777C49.7655 26.052 49.7755 25.1769 48.9405 24.6019C48.2255 24.0269 47.4055 24.0569 46.8905 24.6769V24.6719Z" fill="black"/>
<path d="M41.0498 38.7568C40.4198 39.5168 40.4448 40.5269 41.0998 41.1069C41.7198 41.6519 42.8499 41.5419 43.3799 40.8519C43.9449 40.1169 43.8949 39.2818 43.1649 38.7218C42.3849 38.1168 41.5798 38.1118 41.0448 38.7568H41.0498Z" fill="black"/>
<path d="M49.1902 133.463C49.8352 133.963 50.8852 133.853 51.4103 133.188C51.9703 132.473 51.9953 131.598 51.1602 131.008C50.4202 130.408 49.5752 130.453 49.0502 131.118C48.4452 131.883 48.5102 132.933 49.1902 133.463Z" fill="black"/>
<path d="M40.9402 113.544C41.5802 114.049 42.6353 113.939 43.1603 113.274C43.7203 112.564 43.7553 111.684 42.9203 111.094C42.1803 110.489 41.3352 110.529 40.8102 111.194C40.2052 111.959 40.2652 113.004 40.9402 113.539V113.544Z" fill="black"/>
<path d="M37.08 98.8177C37.71 99.3777 38.765 99.2877 39.31 98.6327C39.8501 97.9827 39.7351 96.9277 39.0701 96.4126C38.425 95.9076 37.425 96.0176 36.905 96.6477C36.385 97.2727 36.465 98.2777 37.08 98.8177Z" fill="black"/>
<path d="M44.7301 128.243C45.4451 128.823 46.1951 128.723 46.7951 127.978C47.4051 127.223 47.3451 126.423 46.6351 125.858C45.9401 125.303 45.1351 125.423 44.5301 126.173C43.9301 126.918 44.0001 127.663 44.7251 128.248L44.7301 128.243Z" fill="black"/>
<path d="M34.6648 62.6221C33.9898 63.4321 34.0198 64.1372 34.7598 64.7422C35.4998 65.3572 36.2099 65.2922 36.8149 64.5622C37.4899 63.7471 37.4549 62.9921 36.7099 62.3921C36.0148 61.8321 35.2498 61.9171 34.6648 62.6221Z" fill="black"/>
<path d="M54.8154 10.5069C54.8154 10.5069 54.7954 10.4869 54.7854 10.4769C54.0554 9.90693 53.3254 10.0219 52.6954 10.8069C52.0854 11.562 52.1504 12.267 52.8804 12.862C53.5754 13.427 54.2204 13.387 54.8204 12.762V10.5069H54.8154Z" fill="black"/>
<path d="M34.0099 74.3327C34.6699 74.8877 35.5849 74.8127 36.135 74.1527C36.685 73.4877 36.5949 72.5726 35.9249 72.0326C35.2799 71.5126 34.3949 71.5876 33.8549 72.2076C33.2899 72.8576 33.3549 73.7827 34.0099 74.3327Z" fill="black"/>
<path d="M41.9351 31.4917C42.6102 32.0317 43.4552 31.9167 44.0202 31.2017C44.5202 30.5717 44.4352 29.5667 43.8402 29.1067C43.2252 28.6266 42.2352 28.7916 41.7052 29.4617C41.1801 30.1267 41.2751 30.9667 41.9351 31.4917Z" fill="black"/>
<path d="M33.2098 81.9583C32.7098 82.6133 32.8299 83.4983 33.4849 84.0133C34.1399 84.5233 35.0199 84.4183 35.5449 83.7633C36.0649 83.1083 35.9699 82.2333 35.3249 81.7033C34.6549 81.1533 33.7399 81.2683 33.2098 81.9583Z" fill="black"/>
<path d="M35.3698 55.1482C36.0249 55.6682 36.8999 55.5732 37.4299 54.9282C37.9799 54.2582 37.8699 53.3431 37.1749 52.8131C36.5199 52.3131 35.6349 52.4331 35.1198 53.0881C34.6098 53.7431 34.7148 54.6232 35.3698 55.1482Z" fill="black"/>
<path d="M49.7953 17.1921C50.3703 16.5321 50.3152 15.5321 49.6752 15.027C49.0952 14.577 48.1552 14.652 47.7002 15.187C47.0852 15.9071 47.1002 16.8321 47.7352 17.3771C48.3252 17.8821 49.2653 17.7971 49.7953 17.1921Z" fill="black"/>
<path d="M36.48 108.333C37.125 108.853 38.03 108.748 38.545 108.093C39.055 107.443 38.935 106.538 38.275 106.033C37.645 105.553 36.775 105.653 36.27 106.268C35.745 106.908 35.835 107.813 36.485 108.333H36.48Z" fill="black"/>
<path d="M32.7398 93.4976C33.3249 93.9976 34.2999 93.9026 34.8049 93.2976C35.3899 92.5976 35.3199 91.8926 34.6099 91.2976C33.8899 90.6975 33.1899 90.7425 32.5999 91.4226C32.0848 92.0226 32.1449 92.9926 32.7349 93.4976H32.7398Z" fill="black"/>
<path d="M40.2849 122.978C40.8799 123.473 41.845 123.363 42.35 122.748C42.92 122.048 42.84 121.338 42.125 120.748C41.4049 120.153 40.6999 120.208 40.1199 120.903C39.6099 121.513 39.6899 122.483 40.2849 122.973V122.978Z" fill="black"/>
<path d="M54.8154 145.929C54.8154 145.929 54.7854 145.899 54.7654 145.884C54.0353 145.314 53.3303 145.389 52.7653 146.104C52.2753 146.724 52.3853 147.699 52.9953 148.169C53.5203 148.574 54.2953 148.524 54.8154 148.109V145.924V145.929Z" fill="black"/>
<path d="M48.5553 142.874C49.0653 143.314 50.0904 143.194 50.5654 142.659C51.0704 142.089 51.0304 141.274 50.4754 140.794C49.6454 140.079 49.0554 140.074 48.4554 140.769C47.7603 141.289 48.1153 142.489 48.5553 142.869V142.874Z" fill="black"/>
<path d="M38.9802 35.5825C39.4902 34.9275 39.3952 34.2175 38.7252 33.6724C37.9652 33.0524 37.4002 33.1324 36.7552 33.7974C36.2052 34.3675 36.4702 35.4625 36.9202 35.8525C37.4552 36.3175 38.5252 36.1675 38.9802 35.5825Z" fill="black"/>
<path d="M44.6352 21.702C45.1002 21.147 45.0302 20.242 44.4852 19.752C43.9251 19.252 42.9651 19.327 42.4801 19.907C42.0151 20.462 42.0851 21.367 42.6301 21.857C43.1901 22.3571 44.1501 22.2821 44.6352 21.702Z" fill="black"/>
<path d="M35.8952 43.5126C35.3952 44.1126 35.4602 45.0126 36.0452 45.5276C36.6302 46.0426 37.5352 46.0026 38.0652 45.4326C38.6202 44.8376 38.5752 43.8926 37.9702 43.3576C37.3602 42.8176 36.4202 42.8876 35.9002 43.5126H35.8952Z" fill="black"/>
<path d="M32.2199 59.4022C32.7 58.8272 32.6249 57.9522 32.0499 57.4722C31.4749 56.9922 30.5999 57.0672 30.1199 57.6422C29.6399 58.2172 29.7149 59.0922 30.2899 59.5722C30.8649 60.0523 31.7399 59.9772 32.2199 59.4022Z" fill="black"/>
<path d="M54.8153 0.825941C54.3353 0.700939 53.8403 0.825941 53.5053 1.21595C52.9953 1.81596 53.0453 2.76098 53.6153 3.25598C53.9353 3.53099 54.3903 3.60599 54.8153 3.50599V0.825941Z" fill="black"/>
<path d="M31.8352 101.119C31.3302 101.729 31.4002 102.679 31.9852 103.154C32.5453 103.609 33.4703 103.494 33.9703 102.914C34.4403 102.364 34.3353 101.479 33.7453 100.999C33.1302 100.494 32.3102 100.549 31.8352 101.124V101.119Z" fill="black"/>
<path d="M35.9098 117.909C36.4548 118.374 37.3848 118.274 37.8949 117.699C38.3849 117.149 38.2949 116.274 37.6999 115.779C37.0849 115.274 36.2598 115.314 35.7848 115.874C35.2748 116.479 35.3298 117.424 35.9048 117.909H35.9098Z" fill="black"/>
<path d="M29.4447 67.0976C28.9347 67.6977 28.9897 68.6427 29.5597 69.1327C30.1247 69.6177 31.1198 69.4877 31.5998 68.8677C32.0298 68.3077 31.9248 67.4727 31.3598 67.0076C30.7448 66.5026 29.9198 66.5376 29.4447 67.0926V67.0976Z" fill="black"/>
<path d="M44.2101 137.845C44.7851 138.29 45.6201 138.2 46.0901 137.65C46.5802 137.075 46.5002 136.19 45.9152 135.71C45.3301 135.23 44.4501 135.32 43.9751 135.915C43.5001 136.51 43.6051 137.385 44.2051 137.85L44.2101 137.845Z" fill="black"/>
<path d="M28.9898 78.7772C29.5748 79.2622 30.4548 79.1722 30.9298 78.5822C31.3849 78.0172 31.3148 77.1772 30.7698 76.6971C30.2048 76.1971 29.3148 76.2621 28.8248 76.8371C28.3348 77.4122 28.4098 78.2972 28.9948 78.7772H28.9898Z" fill="black"/>
<path d="M32.9851 49.6571C33.5451 48.977 33.5201 48.252 32.9201 47.742C32.3051 47.222 31.575 47.322 31.025 47.992C30.485 48.652 30.545 49.337 31.185 49.8521C31.7951 50.3421 32.4801 50.2671 32.9851 49.6571Z" fill="black"/>
<path d="M28.1898 86.413C27.6448 87.073 27.6998 87.758 28.3348 88.278C28.9448 88.773 29.6299 88.703 30.1399 88.098C30.7099 87.413 30.6899 86.693 30.0899 86.178C29.4849 85.658 28.7348 85.748 28.1898 86.413Z" fill="black"/>
<path d="M50.3653 7.56618C50.9753 6.84617 50.9503 6.11615 50.2953 5.59615C49.7003 5.12114 48.9703 5.22114 48.4552 5.84115C47.9002 6.50616 47.9402 7.19617 48.5602 7.70618C49.1702 8.21119 49.8652 8.16119 50.3653 7.56618Z" fill="black"/>
<path d="M39.4199 25.9114C40.0049 25.2414 39.9299 24.6314 39.3098 24.0064C38.7898 23.4814 37.9798 23.6164 37.4848 24.2164C36.9348 24.8764 36.9848 25.6264 37.6148 26.1264C38.1948 26.5864 38.9198 26.4914 39.4248 25.9164L39.4199 25.9114Z" fill="black"/>
<path d="M39.7102 132.644C40.2852 133.109 41.0202 133.024 41.5202 132.444C42.0653 131.809 42.0303 131.019 41.4353 130.524C40.8652 130.049 40.0902 130.139 39.5952 130.734C39.0452 131.394 39.0902 132.144 39.7102 132.644Z" fill="black"/>
<path d="M31.4398 112.709C31.9998 113.184 32.7848 113.099 33.2848 112.519C33.7698 111.949 33.7298 111.094 33.1948 110.619C32.7198 110.199 31.8098 110.289 31.3648 110.799C30.8248 111.419 30.8548 112.219 31.4398 112.709Z" fill="black"/>
<path d="M33.59 39.9875C34.075 39.4175 34.03 38.5575 33.495 38.0874C33.025 37.6774 32.105 37.7674 31.665 38.2724C31.125 38.8925 31.1599 39.6925 31.745 40.1825C32.31 40.6525 33.09 40.5725 33.585 39.9875H33.59Z" fill="black"/>
<path d="M35.0949 125.584C34.6599 126.139 34.7399 126.944 35.2699 127.384C35.7999 127.824 36.6149 127.744 37.0699 127.209C37.5749 126.619 37.5049 125.909 36.8949 125.409C36.2749 124.904 35.5799 124.969 35.0949 125.584Z" fill="black"/>
<path d="M45.2604 11.8118C45.7454 11.2068 45.6554 10.5068 45.0254 10.0168C44.4254 9.54678 43.7604 9.61678 43.2804 10.1918C42.8104 10.7568 42.8954 11.6118 43.4654 12.0468C44.0154 12.4668 44.8204 12.3568 45.2604 11.8118Z" fill="black"/>
<path d="M26.4049 73.2582C26.8099 72.7532 26.7249 71.9332 26.2299 71.5182C25.7099 71.0832 24.8349 71.1882 24.4349 71.7282C24.0498 72.2482 24.1599 73.0732 24.6699 73.4632C25.1849 73.8582 26.0049 73.7632 26.4099 73.2582H26.4049Z" fill="black"/>
<path d="M29.5398 97.7478C30.0048 97.1878 29.9099 96.3428 29.3298 95.9028C28.7748 95.4828 27.9748 95.5828 27.5448 96.1328C27.1148 96.6828 27.2048 97.4828 27.7448 97.9228C28.2848 98.3628 29.0898 98.2828 29.5398 97.7478Z" fill="black"/>
<path d="M52.5201 157.679C53.0201 158.054 53.9052 157.924 54.3102 157.424C54.7502 156.884 54.6652 156.174 54.1102 155.714C53.4952 155.209 52.8451 155.229 52.4151 155.764C51.9301 156.369 51.9801 157.274 52.5201 157.679Z" fill="black"/>
<path d="M48.0703 152.419C48.5553 152.804 49.4403 152.699 49.8653 152.204C50.3253 151.664 50.2303 150.914 49.6403 150.439C49.0603 149.974 48.4203 149.999 48.0053 150.504C47.5103 151.104 47.5403 151.994 48.0703 152.419Z" fill="black"/>
<path d="M27.1647 63.6775C27.6047 63.1375 27.5197 62.4224 26.9647 61.9674C26.3496 61.4624 25.6996 61.4774 25.2696 62.0124C24.7846 62.6175 24.8346 63.5175 25.3746 63.9275C25.8696 64.3025 26.7547 64.1775 27.1647 63.6775Z" fill="black"/>
<path d="M25.7399 82.9677C26.1099 82.4226 26.2799 81.8776 25.5049 81.2776C24.9599 80.8426 24.2949 80.8476 23.9149 81.2926C23.4048 81.8926 23.4248 82.7827 23.9648 83.2127C24.4649 83.6127 25.3599 83.5227 25.7399 82.9677Z" fill="black"/>
<path d="M27.7449 53.9827C28.2399 53.2477 28.0999 52.7577 27.4948 52.2927C26.9498 51.8577 26.2848 51.8727 25.9098 52.3227C25.3998 52.9327 25.4298 53.8177 25.9748 54.2427C26.4798 54.6377 27.3749 54.5377 27.7499 53.9827H27.7449Z" fill="black"/>
<path d="M34.2952 30.3523C34.7902 29.6173 34.6552 29.1273 34.0452 28.6623C33.5002 28.2273 32.8352 28.2373 32.4602 28.6873C31.9502 29.2973 31.9802 30.1823 32.5202 30.6073C33.0252 31.0023 33.9202 30.9023 34.2952 30.3523Z" fill="black"/>
<path d="M43.5449 147.24C44.0549 147.67 44.8449 147.6 45.2699 147.085C45.6749 146.595 45.6199 145.845 45.1449 145.415C44.6549 144.965 43.8549 145.01 43.4149 145.515C42.9749 146.015 43.0349 146.81 43.5399 147.245L43.5449 147.24Z" fill="black"/>
<path d="M30.8249 122.128C31.4499 122.643 31.9349 122.593 32.4549 121.953C33.0099 121.273 32.9799 120.763 32.3599 120.263C31.7499 119.778 31.2399 119.868 30.6899 120.553C30.1999 121.163 30.2449 121.648 30.8249 122.128Z" fill="black"/>
<path d="M27.0349 105.683C26.4849 106.338 26.5049 106.828 27.0999 107.323C27.7249 107.843 28.215 107.798 28.73 107.168C29.28 106.493 29.26 105.968 28.6549 105.478C28.0649 104.998 27.5499 105.063 27.0349 105.683Z" fill="black"/>
<path d="M40.0002 16.2722C40.5652 15.5922 40.5502 15.0772 39.9552 14.5772C39.3402 14.0622 38.8352 14.1322 38.2802 14.8122C37.7552 15.4572 37.8001 15.9422 38.4252 16.4422C39.0152 16.9172 39.5052 16.8622 39.9952 16.2672L40.0002 16.2722Z" fill="black"/>
<path d="M28.3398 44.4176C28.8248 43.8476 28.7848 43.1275 28.2498 42.7125C27.7848 42.3575 27.0648 42.4475 26.6698 42.9075C26.1548 43.5126 26.1648 44.0876 26.7048 44.5576C27.2598 45.0426 27.8548 44.9926 28.3448 44.4176H28.3398Z" fill="black"/>
<path d="M39.0951 142.069C39.6601 142.524 40.2352 142.444 40.7252 141.834C41.1602 141.294 41.1102 140.589 40.6052 140.189C40.1202 139.799 39.3901 139.904 38.9701 140.429C38.4801 141.039 38.5251 141.609 39.0951 142.069Z" fill="black"/>
<path d="M24.96 92.4382C25.375 91.9182 25.31 91.1732 24.815 90.7932C24.32 90.4132 23.6 90.5282 23.185 91.0532C22.6999 91.6582 22.75 92.2382 23.33 92.6932C23.9 93.1382 24.47 93.0532 24.96 92.4382Z" fill="black"/>
<path d="M45.8953 2.11658C46.2303 1.69157 46.1703 0.816555 45.7853 0.486549C45.3753 0.141543 44.4753 0.271545 44.1153 0.731553C43.6753 1.29156 43.7253 1.91157 44.2403 2.34158C44.7853 2.79659 45.4253 2.70659 45.8953 2.11158V2.11658Z" fill="black"/>
<path d="M34.7351 135.204C34.2901 135.694 34.2801 136.444 34.7151 136.864C35.1501 137.284 35.9451 137.234 36.3651 136.764C36.7951 136.284 36.7701 135.454 36.3101 135.064C35.9201 134.729 35.1001 134.809 34.7351 135.209V135.204Z" fill="black"/>
<path d="M34.7749 20.6762C35.1699 20.2112 35.1449 19.4462 34.7249 19.0312C34.3599 18.6712 33.4649 18.7512 33.0949 19.1812C32.6649 19.6762 32.6849 20.4362 33.1299 20.8362C33.5799 21.2412 34.3599 21.1662 34.7749 20.6762Z" fill="black"/>
<path d="M28.1648 116.788C28.5498 116.318 28.5048 115.528 28.0698 115.148C27.6647 114.793 26.8197 114.893 26.4397 115.343C26.0197 115.843 26.0597 116.603 26.5247 116.993C26.9897 117.383 27.7547 117.288 28.1648 116.788Z" fill="black"/>
<path d="M24.2497 101.954C24.6497 101.434 24.5647 100.939 23.9997 100.484C23.3947 99.9936 22.9297 100.039 22.4697 100.624C22.0947 101.099 22.1747 101.889 22.6297 102.234C23.0997 102.594 23.8597 102.459 24.2497 101.949V101.954Z" fill="black"/>
<path d="M21.84 67.9573C22.245 67.4422 22.16 66.9422 21.6 66.4872C20.99 65.9972 20.53 66.0372 20.07 66.6172C19.69 67.0972 19.765 67.8773 20.22 68.2273C20.69 68.5873 21.445 68.4623 21.845 67.9523L21.84 67.9573Z" fill="black"/>
<path d="M22.46 58.5122C22.82 58.0822 22.77 57.3722 22.355 56.9922C21.92 56.5972 21.1599 56.6472 20.7749 57.1022C20.3949 57.5522 20.4749 58.3122 20.94 58.6722C21.385 59.0172 22.09 58.9422 22.455 58.5122H22.46Z" fill="black"/>
<path d="M21.2197 77.6077C21.6197 77.0527 21.4847 76.5727 20.9947 76.1627C20.4846 75.7377 19.8697 75.7977 19.4796 76.3027C19.1046 76.7877 19.1896 77.5377 19.6546 77.8777C20.1296 78.2277 20.8597 78.0977 21.2197 77.6077Z" fill="black"/>
<path d="M40.615 6.52687C40.9901 6.03186 40.8851 5.41185 40.3551 5.02684C39.8251 4.64184 39.33 4.68684 38.905 5.18685C38.51 5.65186 38.59 6.41187 39.05 6.76687C39.515 7.12688 40.25 7.01188 40.6201 6.52687H40.615Z" fill="black"/>
<path d="M28.9051 34.7818C29.2851 34.3218 29.2151 33.5918 28.7501 33.2118C28.2901 32.8318 27.56 32.9018 27.18 33.3668C26.8 33.8268 26.87 34.5568 27.335 34.9368C27.795 35.3168 28.5251 35.2468 28.9051 34.7818Z" fill="black"/>
<path d="M30.3049 131.794C30.7749 132.144 31.5099 132.024 31.8699 131.529C32.2699 130.979 32.1449 130.499 31.6499 130.084C31.1399 129.659 30.5249 129.714 30.1349 130.214C29.7599 130.694 29.8349 131.449 30.2999 131.794H30.3049Z" fill="black"/>
<path d="M23.0547 48.7621C23.3897 48.2821 23.5147 47.7671 22.8697 47.3371C22.3247 46.8871 21.8397 46.9221 21.4097 47.4571C21.0196 47.9421 21.0897 48.6171 21.5697 48.9821C22.0397 49.3421 22.6997 49.2671 23.0547 48.7571V48.7621Z" fill="black"/>
<path d="M42.9552 156.673C43.4102 157.048 44.0402 156.973 44.4502 156.503C44.8853 156.003 44.8202 155.483 44.0652 154.873C43.7702 154.663 43.2952 154.558 42.8402 155.143C42.4502 155.643 42.4852 156.293 42.9552 156.678V156.673Z" fill="black"/>
<path d="M29.6 25.1369C29.94 24.6619 30.07 24.1469 29.42 23.7019C28.89 23.2669 28.3949 23.2919 27.9699 23.8169C27.5749 24.3069 27.6399 24.9719 28.1149 25.3469C28.5849 25.7119 29.235 25.6469 29.6 25.1419V25.1369Z" fill="black"/>
<path d="M47.2551 160.405C46.8601 160.895 46.9251 161.565 47.4001 161.935C47.8701 162.3 48.5201 162.235 48.8851 161.725C49.2251 161.245 49.3501 160.735 48.7101 160.295C48.1751 159.85 47.6851 159.88 47.2551 160.41V160.405Z" fill="black"/>
<path d="M20.4297 87.183C20.7747 86.713 20.9097 86.198 20.2147 85.703C19.7297 85.298 19.2446 85.323 18.8146 85.848C18.4146 86.338 18.4696 87.003 18.9446 87.378C19.4047 87.743 20.0647 87.688 20.4297 87.183Z" fill="black"/>
<path d="M51.7554 165.549C51.3854 165.994 51.4554 166.699 51.9104 167.059C52.3654 167.419 53.0855 167.349 53.4155 166.874C53.7655 166.364 53.7155 165.854 53.2704 165.424C52.8554 165.024 52.1304 165.099 51.7604 165.544L51.7554 165.549Z" fill="black"/>
<path d="M35.405 10.9865C35.87 10.4715 35.68 10.0015 35.32 9.59645C34.945 9.18144 34.28 9.29645 33.885 9.77645C33.5 10.2615 33.47 10.7315 33.965 11.1665C34.44 11.5865 34.95 11.4915 35.405 10.9865Z" fill="black"/>
<path d="M23.4997 111.584C23.8997 111.089 23.9047 110.444 23.4147 110.149C22.9597 109.874 22.4347 109.739 22.0397 110.319C21.6097 110.834 21.6297 111.394 22.1197 111.764C22.6297 112.149 23.0897 112.089 23.4997 111.584Z" fill="black"/>
<path d="M27.1847 126.419C27.6897 125.914 27.5697 125.354 27.1547 124.984C26.7897 124.654 26.2147 124.519 25.7897 125.059C25.3447 125.549 25.3347 126.144 25.7897 126.519C26.2747 126.919 26.7347 126.864 27.1847 126.414V126.419Z" fill="black"/>
<path d="M19.6747 96.9276C20.1647 96.4126 20.0348 95.8626 19.6048 95.4976C19.2198 95.1725 18.6497 95.0625 18.2447 95.6176C17.8047 96.1176 17.8097 96.7026 18.2847 97.0726C18.7847 97.4626 19.2397 97.3826 19.6797 96.9276H19.6747Z" fill="black"/>
<path d="M39.9201 149.994C39.4751 149.709 38.9501 149.554 38.5451 150.134C38.1051 150.649 38.115 151.204 38.5901 151.584C39.0901 151.979 39.5601 151.924 39.9701 151.434C40.3801 150.949 40.3951 150.299 39.9151 149.994H39.9201Z" fill="black"/>
<path d="M23.6849 39.2173C24.0549 38.7523 24.0199 38.2673 23.5799 37.8773C23.1099 37.4623 22.5999 37.4823 22.1849 37.9623C21.7649 38.4423 21.8499 38.9273 22.3199 39.4073C22.7999 39.6923 23.2849 39.7273 23.6899 39.2223L23.6849 39.2173Z" fill="black"/>
<path d="M34.19 146.349C34.69 146.684 35.2 146.609 35.5751 146.129C35.9201 145.689 35.9801 145.229 35.445 144.904C34.965 144.469 34.54 144.319 34.095 144.904C33.725 145.389 33.725 146.039 34.19 146.344V146.349Z" fill="black"/>
<path d="M17.2395 62.9075C17.5746 62.4774 17.5246 61.9824 17.1096 61.6274C16.6646 61.2474 16.1495 61.2874 15.7745 61.7324C15.3945 62.1824 15.4995 62.6624 15.8945 63.0825C16.3945 63.3775 16.8795 63.3725 17.2395 62.9075Z" fill="black"/>
<path d="M16.5194 72.4775C16.8644 71.9925 16.8444 71.5625 16.4144 71.1925C15.9694 70.8075 15.4944 70.7725 15.0994 71.2475C14.7244 71.6975 14.7443 72.2225 15.1844 72.5975C15.6294 72.9775 16.1244 72.8575 16.5194 72.4775Z" fill="black"/>
<path d="M18.9697 106.403C19.3397 105.913 19.1947 105.458 18.7197 105.113C18.2597 104.773 17.8347 104.863 17.4297 105.318C17.1747 105.773 17.1547 106.283 17.6297 106.628C18.0947 106.968 18.6097 106.878 18.9647 106.403H18.9697Z" fill="black"/>
<path d="M15.8195 82.0082C16.1845 81.4682 16.0845 81.0282 15.6095 80.6731C15.1545 80.3331 14.7045 80.3781 14.3595 80.8231C13.9995 81.2881 14.0345 81.8132 14.4895 82.1682C14.9495 82.5282 15.4395 82.3982 15.8145 82.0082H15.8195Z" fill="black"/>
<path d="M30.9996 141.049C31.3646 140.514 31.2696 140.074 30.7996 139.714C30.3496 139.369 29.8946 139.409 29.5496 139.849C29.1895 140.309 29.2146 140.834 29.6696 141.194C30.1246 141.559 30.6146 141.429 30.9996 141.044V141.049Z" fill="black"/>
<path d="M24.3946 29.6214C24.7596 29.0814 24.6596 28.6414 24.1846 28.2864C23.7296 27.9464 23.2796 27.9914 22.9346 28.4364C22.5796 28.9014 22.6096 29.4264 23.0646 29.7814C23.5246 30.1415 24.0146 30.0115 24.3896 29.6214H24.3946Z" fill="black"/>
<path d="M22.7497 121.119C23.1147 120.694 23.0648 120.239 22.6397 119.869C22.1947 119.479 21.7447 119.469 21.2897 119.934C20.9847 120.384 20.9597 120.889 21.4047 121.264C21.8497 121.639 22.3697 121.559 22.7497 121.119Z" fill="black"/>
<path d="M17.8646 53.2023C18.2346 52.7123 18.0896 52.2573 17.6196 51.9073C17.1596 51.5673 16.7346 51.6523 16.3496 52.0873C16.0646 52.5673 16.0595 53.0723 16.5296 53.4173C16.9896 53.7574 17.5096 53.6674 17.8646 53.1973V53.2023Z" fill="black"/>
<path d="M30.2501 15.5173C30.5951 14.9773 30.4851 14.5423 30.0051 14.1973C29.5451 13.8623 29.0951 13.9223 28.7601 14.3673C28.4101 14.8373 28.4501 15.3623 28.9151 15.7123C29.3801 16.0573 29.8701 15.9273 30.2451 15.5173H30.2501Z" fill="black"/>
<path d="M18.6349 43.5168C18.9099 43.1768 19.0699 42.7218 18.4899 42.3068C18.1949 41.9868 17.7599 41.8218 17.3499 42.2468C16.9399 42.6718 16.8649 43.2468 17.3099 43.6618C17.7249 44.0518 18.2799 43.9518 18.6349 43.5168Z" fill="black"/>
<path d="M15.0994 91.6085C15.5194 91.1485 15.5094 90.6984 15.0594 90.3484C14.7094 90.0784 14.2494 89.9634 13.9444 90.4634C13.5494 90.8935 13.4544 91.2935 13.9444 91.6985C14.3644 92.0535 14.7194 92.0285 15.1044 91.6085H15.0994Z" fill="black"/>
<path d="M46.9052 170.149C46.5552 170.559 46.5052 170.944 46.8903 171.354C47.3103 171.674 47.7003 171.699 48.0803 171.269C48.4553 170.844 48.4753 170.379 48.0653 170.044C47.7253 169.759 47.2702 169.719 46.9052 170.149Z" fill="black"/>
<path d="M26.4251 135.759C26.8501 135.354 26.6801 134.909 26.2901 134.604C25.8851 134.289 25.4551 134.319 25.1001 134.814C24.7851 135.259 24.7601 135.609 25.1951 135.974C25.6701 136.369 26.0551 136.259 26.4201 135.759H26.4251Z" fill="black"/>
<path d="M39.19 160.82C39.545 160.38 39.435 159.945 39.08 159.66C38.67 159.33 38.205 159.39 37.87 159.88C37.545 160.315 37.57 160.715 38.02 161.05C38.48 161.39 38.85 161.24 39.19 160.825V160.82Z" fill="black"/>
<path d="M18.2649 115.759C18.5449 115.469 18.4299 115.004 18.0449 114.689C17.6748 114.384 17.2298 114.449 16.8898 114.869C16.5448 115.294 16.5198 115.689 16.9548 116.054C17.3898 116.419 17.7848 116.329 18.2599 115.759H18.2649Z" fill="black"/>
<path d="M42.5148 166.154C42.9648 166.469 43.3398 166.399 43.6948 165.974C44.0498 165.549 43.9948 165.104 43.6398 164.804C43.2548 164.479 42.7898 164.504 42.4298 164.959C42.0798 165.394 42.1048 165.779 42.5148 166.154Z" fill="black"/>
<path d="M24.9949 19.7418C25.365 19.3218 25.29 18.8768 24.955 18.5718C24.575 18.2268 24.0999 18.2568 23.7399 18.7168C23.3999 19.1318 23.3749 19.5368 23.8149 19.8968C24.2499 20.2519 24.6299 20.1569 24.9899 19.7418H24.9949Z" fill="black"/>
<path d="M19.1746 33.8022C19.5096 33.3822 19.4896 32.9372 19.1046 32.6372C18.7146 32.3372 18.2546 32.3322 17.8896 32.8122C17.5546 33.2572 17.5846 33.6372 18.0046 34.0122C18.4546 34.3172 18.8346 34.2373 19.1746 33.8072V33.8022Z" fill="black"/>
<path d="M51.2704 175.224C50.9304 175.644 50.9105 176.049 51.3555 176.404C51.7955 176.759 52.1705 176.659 52.5305 176.244C52.8955 175.824 52.8305 175.379 52.4855 175.074C52.1055 174.739 51.6304 174.764 51.2704 175.224Z" fill="black"/>
<path d="M35.9501 1.46153C36.3001 1.06652 36.2901 0.621512 35.8951 0.261506C35.4751 -0.118501 35.0101 -0.0935006 34.6451 0.346507C34.3051 0.756514 34.3701 1.17652 34.7501 1.55653C35.1701 1.85653 35.5951 1.86153 35.9501 1.46153Z" fill="black"/>
<path d="M14.3696 101.158C14.6896 100.778 14.6546 100.358 14.2746 100.033C13.8896 99.7034 13.4946 99.7834 13.1346 100.113C12.8646 100.523 12.8546 100.928 13.2396 101.253C13.6246 101.573 14.0446 101.538 14.3646 101.158H14.3696Z" fill="black"/>
<path d="M22.0499 130.693C22.4149 130.303 22.2749 129.943 21.9599 129.613C21.5749 129.333 21.2049 129.208 20.8549 129.633C20.5199 130.043 20.5249 130.493 20.9199 130.823C21.2849 131.128 21.7149 131.048 22.0449 130.693H22.0499Z" fill="black"/>
<path d="M34.6448 155.694C34.9748 155.274 34.7998 154.924 34.3798 154.569C34.0498 154.394 33.6698 154.299 33.3598 154.749C33.0848 155.149 33.0948 155.584 33.4698 155.879C33.8748 156.194 34.3198 156.109 34.6448 155.694Z" fill="black"/>
<path d="M11.9499 67.1582C12.2299 66.7582 12.0949 66.4282 11.7549 66.1482C11.3749 65.8332 11.0099 65.8281 10.5949 66.2932C10.4099 66.6382 10.3449 67.0932 10.7849 67.3982C11.1949 67.6832 11.6399 67.6032 11.9549 67.1632L11.9499 67.1582Z" fill="black"/>
<path d="M12.7644 57.4871C13.0494 57.0871 12.9144 56.7571 12.5744 56.4771C12.1994 56.1621 11.8294 56.1521 11.4493 56.5721C11.1993 56.9571 11.1743 57.4121 11.5943 57.7171C11.9993 58.0121 12.4494 57.9271 12.7644 57.4871Z" fill="black"/>
<path d="M30.865 5.58688C31.145 5.18687 31.01 4.85687 30.67 4.57686C30.29 4.26186 29.925 4.25686 29.545 4.68186C29.305 5.06687 29.275 5.52188 29.7 5.82188C30.11 6.11189 30.555 6.02689 30.865 5.58688Z" fill="black"/>
<path d="M30.31 150.539C30.62 150.149 30.5 149.809 30.1 149.504C29.77 149.209 29.41 149.214 29.105 149.594C28.8 149.979 28.815 150.424 29.19 150.719C29.565 151.009 29.995 150.929 30.305 150.539H30.31Z" fill="black"/>
<path d="M13.315 47.8377C13.625 47.4327 13.48 47.1077 13.06 46.7827C12.75 46.5077 12.3849 46.5327 12.0949 46.9127C11.7949 47.3027 11.815 47.7477 12.2 48.0377C12.58 48.3177 13.005 48.2327 13.315 47.8377Z" fill="black"/>
<path d="M10.6044 86.3678C10.9144 85.9628 10.7593 85.6378 10.3343 85.3078C10.0293 85.0378 9.66933 85.0728 9.37932 85.4528C9.08432 85.8428 9.0993 86.2878 9.48931 86.5728C9.86932 86.8528 10.2943 86.7678 10.5993 86.3678H10.6044Z" fill="black"/>
<path d="M11.2697 76.8882C11.5447 76.5232 11.5047 76.1032 11.1447 75.8182C10.7547 75.5132 10.3147 75.5682 10.0247 75.9782C9.76466 76.3482 9.85968 76.7382 10.2047 77.0682C10.5947 77.2532 10.9897 77.2632 11.2697 76.8932V76.8882Z" fill="black"/>
<path d="M19.7549 24.2862C20.0399 23.9712 20.0249 23.5812 19.7199 23.2862C19.3799 22.9612 19.0049 23.0012 18.6499 23.3262C18.4099 23.6662 18.3899 24.0262 18.6999 24.3262C19.0399 24.6512 19.4449 24.6312 19.7549 24.2862Z" fill="black"/>
<path d="M25.6698 145.379C25.9748 145.009 25.9997 144.669 25.6147 144.374C25.2247 144.074 24.9147 144.224 24.6247 144.589C24.3247 144.964 24.3397 145.254 24.7347 145.519C25.1098 145.874 25.3848 145.729 25.6698 145.384V145.379Z" fill="black"/>
<path d="M13.6896 110.668C14.0246 110.348 14.0446 109.993 13.6795 109.683C13.3095 109.373 12.9845 109.478 12.6845 109.848C12.3945 110.203 12.3545 110.478 12.7445 110.793C13.1145 111.093 13.4096 111.088 13.6896 110.668Z" fill="black"/>
<path d="M25.5896 10.092C25.8996 9.71697 25.9096 9.38196 25.5246 9.08696C25.1246 8.78695 24.8246 8.95695 24.5346 9.31696C24.2296 9.69697 24.2696 9.98697 24.6596 10.247C25.0396 10.607 25.3096 10.437 25.5896 10.097V10.092Z" fill="black"/>
<path d="M17.4346 125.449C17.7446 125.069 17.7446 124.734 17.3596 124.444C16.9546 124.139 16.6546 124.329 16.3746 124.684C16.0646 125.069 16.1246 125.354 16.4996 125.604C16.8946 125.964 17.1596 125.784 17.4346 125.444V125.449Z" fill="black"/>
<path d="M9.79477 95.848C10.0498 95.523 10.0548 95.193 9.75977 94.928C9.43476 94.633 9.08476 94.688 8.78975 95.028C8.49975 95.368 8.47975 95.723 8.82476 96.008C9.16976 96.288 9.50976 96.198 9.78977 95.848H9.79477Z" fill="black"/>
<path d="M13.8647 38.3025C14.1697 37.9925 14.2248 37.6374 13.9297 37.3174C13.6147 36.9824 13.2697 37.0824 13.0047 37.3224C12.6697 37.7024 12.6197 38.0525 12.9497 38.3575C13.2498 38.6325 13.5797 38.5875 13.8647 38.2975V38.3025Z" fill="black"/>
<path d="M6.79434 71.4876C7.08935 71.1426 6.89932 70.9126 6.64432 70.6876C6.34431 70.4526 6.06431 70.3176 5.77431 70.7176C5.5343 71.0526 5.51932 71.3926 5.82433 71.6426C6.16433 71.9226 6.50434 71.8276 6.79434 71.4826V71.4876Z" fill="black"/>
<path d="M14.6546 28.6519C14.9546 28.3019 14.7546 28.0769 14.4996 27.8519C14.1996 27.6169 13.9146 27.4819 13.6296 27.8869C13.3946 28.2219 13.3796 28.5619 13.6846 28.8119C14.0246 29.0919 14.3646 28.9919 14.6546 28.6469V28.6519Z" fill="black"/>
<path d="M13.0345 120.143C13.2795 119.883 12.9646 119.653 12.6995 119.433C12.4145 119.198 12.1395 119.168 11.8945 119.518C11.6595 119.853 11.6445 120.193 11.9495 120.443C12.2895 120.728 12.6445 120.623 13.0345 120.143Z" fill="black"/>
<path d="M21.1548 140.215C21.4448 139.88 21.2948 139.645 20.9448 139.35C20.7348 139.19 20.4548 139.015 20.1548 139.42C19.9098 139.75 19.8898 140.09 20.1848 140.35C20.5148 140.64 20.8648 140.55 21.1598 140.215H21.1548Z" fill="black"/>
<path d="M9.28972 105.393C9.55473 105.133 9.28973 104.883 9.00972 104.653C8.73472 104.428 8.46471 104.338 8.19971 104.698C7.9347 105.058 7.91969 105.413 8.27469 105.678C8.5947 105.913 8.92972 105.818 9.28972 105.393Z" fill="black"/>
<path d="M7.3496 61.8821C7.6846 61.5271 7.5246 61.2671 7.06959 60.9021C6.90959 60.7571 6.62459 60.6921 6.35459 61.0821C6.12458 61.4171 6.11956 61.7571 6.42957 62.0071C6.73957 62.2571 7.06959 62.1771 7.3496 61.8821Z" fill="black"/>
<path d="M20.3447 14.4967C20.6797 14.1217 20.4547 13.8817 20.2547 13.7067C19.8947 13.4217 19.6297 13.3217 19.3647 13.6767C19.0947 14.0317 19.0797 14.3917 19.4297 14.6567C19.7447 14.8917 20.0697 14.8017 20.3447 14.4917V14.4967Z" fill="black"/>
<path d="M42.665 175.584C42.905 175.309 42.875 174.969 42.605 174.734C42.33 174.494 41.995 174.524 41.755 174.794C41.515 175.069 41.575 175.379 41.81 175.659C42.11 175.849 42.425 175.859 42.665 175.584Z" fill="black"/>
<path d="M7.94472 52.3872C8.20972 52.1221 8.17971 51.7971 7.93471 51.5371C7.6697 51.2571 7.33972 51.2921 7.10971 51.5621C6.88971 51.8221 6.92469 52.1421 7.18469 52.4572C7.4197 52.5972 7.70971 52.6172 7.93971 52.3872H7.94472Z" fill="black"/>
<path d="M33.785 165.344C34.0501 165.079 34.02 164.754 33.775 164.494C33.51 164.214 33.18 164.249 32.95 164.519C32.73 164.779 32.765 165.099 33.025 165.414C33.26 165.554 33.55 165.574 33.78 165.344H33.785Z" fill="black"/>
<path d="M38.335 170.439C38.58 170.164 38.545 169.839 38.28 169.589C38 169.329 37.68 169.364 37.46 169.659C37.255 169.934 37.305 170.249 37.545 170.514C37.83 170.684 38.125 170.679 38.335 170.439Z" fill="black"/>
<path d="M16.6447 134.999C16.8197 134.664 16.7847 134.354 16.4897 134.144C16.2247 133.954 15.9147 133.974 15.7297 134.254C15.5247 134.564 15.5397 134.924 15.8747 135.144C16.1497 135.324 16.4297 135.229 16.6447 134.999Z" fill="black"/>
<path d="M5.91963 81.1424C6.18963 80.8824 6.15963 80.5574 5.91963 80.2924C5.65962 80.0074 5.32461 80.0424 5.0946 80.3124C4.8696 80.5724 4.90461 80.8924 5.16962 81.2124C5.39962 81.3474 5.6896 81.3774 5.9246 81.1474L5.91963 81.1424Z" fill="black"/>
<path d="M47.2153 180.655C47.4453 180.405 47.3853 180.11 47.1503 179.88C46.8753 179.615 46.5503 179.625 46.3153 179.905C46.0953 180.17 46.1253 180.49 46.3653 180.77C46.6703 180.94 46.9803 180.915 47.2103 180.655H47.2153Z" fill="black"/>
<path d="M51.7303 185.795C51.9703 185.55 51.9253 185.255 51.7003 185.02C51.4403 184.75 51.1103 184.735 50.8653 185.005C50.6353 185.26 50.6553 185.585 50.9053 185.895C51.1803 186.04 51.4903 186.045 51.7353 185.795H51.7303Z" fill="black"/>
<path d="M8.35459 114.963C8.5696 114.698 8.6296 114.458 8.32459 114.218C8.01959 113.973 7.79457 114.088 7.59457 114.363C7.35956 114.618 7.32456 114.863 7.62457 115.103C7.92957 115.343 8.14459 115.233 8.3596 114.963H8.35459Z" fill="black"/>
<path d="M5.2647 90.7228C5.4847 90.4478 5.50971 90.2128 5.2047 89.9828C4.8897 89.7378 4.68468 89.9028 4.47468 90.1528C4.24467 90.4278 4.23966 90.6678 4.61466 90.9578C4.84467 91.1328 5.0597 90.9928 5.2647 90.7278V90.7228Z" fill="black"/>
<path d="M24.8296 154.819C25.0346 154.559 25.1396 154.329 24.8296 154.069C24.5396 153.824 24.3146 153.909 24.0946 154.174C23.8796 154.434 23.7945 154.669 24.0195 154.864C24.3795 155.164 24.6096 155.099 24.8296 154.819Z" fill="black"/>
<path d="M15.1097 18.9272C15.3247 18.6622 15.3847 18.4222 15.0797 18.1822C14.7747 17.9372 14.5497 18.0522 14.3497 18.3272C14.1147 18.5822 14.0797 18.8272 14.3797 19.0672C14.6847 19.3072 14.8997 19.1972 15.1147 18.9272H15.1097Z" fill="black"/>
<path d="M4.49932 100.319C4.68433 100.099 4.65933 99.8885 4.43932 99.7035C4.21432 99.5135 3.98432 99.4285 3.75932 99.7135C3.57432 99.9535 3.5593 100.209 3.8043 100.409C4.04431 100.609 4.29432 100.554 4.49932 100.314V100.319Z" fill="black"/>
<path d="M2.09945 66.3177C2.31945 66.0427 2.20444 65.8377 1.96443 65.6527C1.73943 65.4777 1.52944 65.4927 1.34943 65.7227C1.15443 65.9727 1.18441 66.2027 1.39442 66.4327C1.66442 66.5877 1.89944 66.5628 2.09444 66.3177H2.09945Z" fill="black"/>
<path d="M20.2649 149.724C20.4499 149.514 20.4549 149.304 20.2349 149.109C20.0149 148.919 19.7898 148.814 19.5548 149.089C19.3498 149.329 19.3648 149.564 19.5598 149.804C19.8148 149.974 20.0549 149.964 20.2649 149.729V149.724Z" fill="black"/>
<path d="M9.23957 33.0316C9.45957 32.7566 9.34459 32.5516 9.10459 32.3666C8.87958 32.1916 8.66956 32.2066 8.48956 32.4366C8.29455 32.6866 8.32457 32.9166 8.53457 33.1466C8.80457 33.3016 9.03959 33.2766 9.23459 33.0316H9.23957Z" fill="black"/>
<path d="M12.0144 129.804C12.2894 129.529 12.1444 129.324 11.9144 129.134C11.6994 128.954 11.4894 128.949 11.2994 129.179C11.0994 129.419 11.0944 129.674 11.3294 129.879C11.5694 130.084 11.8144 130.024 12.0144 129.804Z" fill="black"/>
<path d="M20.8498 4.94184C21.0548 4.69683 21.1098 4.49183 20.8747 4.28683C20.6597 4.09682 20.4397 3.96682 20.1947 4.23683C19.9847 4.46683 19.9597 4.72183 20.1797 4.94184C20.4047 5.16684 20.6547 5.11184 20.8447 4.94184H20.8498Z" fill="black"/>
<path d="M8.66964 42.7474C8.85964 42.5074 8.84963 42.2474 8.62462 42.0424C8.37462 41.8124 8.09463 41.8074 7.85962 42.0674C7.62962 42.3224 7.65961 42.5924 7.90961 42.8424C8.18462 43.0324 8.44963 43.0224 8.66964 42.7524V42.7474Z" fill="black"/>
<path d="M29.3501 160.019C29.5501 159.784 29.5451 159.524 29.3301 159.309C29.0901 159.074 28.8051 159.054 28.5651 159.309C28.3301 159.554 28.3401 159.829 28.5951 160.084C28.8601 160.284 29.1251 160.284 29.3551 160.019H29.3501Z" fill="black"/>
<path d="M7.71951 124.584C7.99952 124.309 7.72951 124.164 7.55951 124.029C7.40451 123.914 7.21452 123.729 7.04451 124.039C6.91951 124.269 6.88951 124.484 7.06951 124.699C7.31951 124.829 7.53451 124.764 7.71951 124.584Z" fill="black"/>
<path d="M1.47923 75.7134C1.61423 75.5684 1.41423 75.4234 1.26423 75.2934C1.11423 75.1684 0.924224 74.9734 0.734221 75.2134C0.564218 75.4334 0.484196 75.7234 0.7442 75.9234C0.959204 76.0934 1.19922 75.9784 1.47923 75.7134Z" fill="black"/>
<path d="M9.93465 23.4418C10.2147 23.2218 10.0047 23.0618 9.85967 22.9318C9.69967 22.7868 9.50465 22.5468 9.27964 22.8618C9.12964 23.0718 9.10463 23.3018 9.30464 23.5568C9.51464 23.6518 9.72465 23.6068 9.92965 23.4418H9.93465Z" fill="black"/>
<path d="M2.85445 56.6524C3.03445 56.4224 2.80443 56.2724 2.64442 56.1524C2.48442 56.0374 2.29443 55.8674 2.12943 56.1524C1.99943 56.3824 1.93943 56.6374 2.15943 56.8074C2.41444 57.0074 2.68945 56.8674 2.85445 56.6524Z" fill="black"/>
<path d="M3.38451 47.0722C3.66452 46.8522 3.4495 46.6922 3.3095 46.5672C3.1495 46.4222 2.95451 46.1822 2.7295 46.5022C2.5845 46.7172 2.55948 46.9422 2.73948 47.1722C2.97449 47.3122 3.17951 47.2372 3.38451 47.0772V47.0722Z" fill="black"/>
<path d="M0.779397 85.4685C1.0444 85.2435 0.834402 85.0885 0.689399 84.9635C0.524396 84.8185 0.329381 84.5835 0.114377 84.9135C-0.0306257 85.1335 -0.0506115 85.3585 0.129392 85.5785C0.369396 85.7136 0.579394 85.6385 0.779397 85.4735V85.4685Z" fill="black"/>
<path d="M15.8346 9.28615C16.0146 9.05615 15.7847 8.90615 15.6246 8.78615C15.4646 8.67114 15.2747 8.50114 15.1097 8.78615C14.9797 9.01615 14.9197 9.27115 15.1397 9.44116C15.3947 9.64116 15.6696 9.50116 15.8346 9.28615Z" fill="black"/>
<path d="M3.80449 109.788C4.0295 109.558 3.8045 109.413 3.6595 109.283C3.5095 109.153 3.3345 108.998 3.1695 109.163C2.9895 109.438 2.91449 109.693 3.1045 109.883C3.3395 110.113 3.60449 109.993 3.80449 109.783V109.788Z" fill="black"/>
<path d="M15.9943 144.469C16.2093 144.239 15.9843 144.089 15.8343 143.969C15.6793 143.844 15.5043 143.679 15.3543 143.854C15.1693 144.144 15.0993 144.399 15.2943 144.584C15.5343 144.809 15.7993 144.684 15.9943 144.474V144.469Z" fill="black"/>
</svg>
