<svg width="103" height="129" viewBox="0 0 103 129" fill="none" xmlns="http://www.w3.org/2000/svg">
<path d="M2.04954 59.3345C2.82838 59.4378 4.5914 59.6067 5.40304 59.6735C6.21468 59.7428 7.80759 59.9092 7.4686 59.6735C7.1296 59.4402 6.9267 59.0308 6.96315 58.6225C6.99596 58.2167 7.57188 58.0466 7.80881 58.3868C8.04453 58.7258 8.115 58.8254 8.6569 58.8254C9.19881 58.8254 10.3166 58.7586 10.5195 58.9287C10.7224 59.0988 11.0955 59.6407 11.5013 59.6735C11.9071 59.7063 13.0942 59.0308 13.737 58.5897C14.3821 58.1511 16.9203 56.2508 17.9045 55.4391C18.8862 54.6275 21.3941 53.2375 22.4755 52.8305C23.5593 52.4246 25.4596 51.4769 26.0683 50.8317C26.677 50.189 28.067 48.9023 28.779 47.9181C29.4874 46.9363 30.7085 45.2438 31.2504 44.2256C31.7923 43.2111 33.1799 41.0422 33.9612 40.363C34.74 39.6875 35.418 39.3485 35.9575 38.7397C36.4994 38.1274 39.4835 36.2647 40.125 35.8929C40.7678 35.5199 41.7519 34.4021 42.1578 34.2332C42.5636 34.0631 43.2416 33.6245 43.4457 33.2514C43.6486 32.8784 42.8005 30.4739 42.8005 30.271C42.8005 30.0681 42.3947 27.2905 42.3619 27.1544C42.3291 27.0183 42.0229 26.4764 41.922 26.6453C41.8188 26.8154 41.3461 27.0876 41.21 26.9175C41.0739 26.7474 40.498 26.4084 40.498 26.1727C40.498 25.9369 40.2623 25.5275 40.1918 25.2577C40.125 24.9856 40.159 24.3768 40.159 24.1727C40.159 23.9686 39.9889 23.6308 39.9889 23.6308C39.9889 23.6308 39.786 23.6636 39.7532 23.3951C39.7204 23.1229 39.7204 22.7499 39.7532 22.547C39.786 22.3441 39.6499 21.7682 39.6499 21.7682L39.4774 21.8678C39.4774 21.8678 39.3474 21.3952 39.4835 21.123C39.6171 20.8533 39.447 20.8204 39.4835 20.7172C39.5163 20.6175 39.5831 20.5143 39.6499 20.3782C39.7192 20.2445 39.8893 20.1084 40.1918 19.8727C40.498 19.6334 40.1918 19.8727 40.3802 19.6662C40.5685 19.4633 40.2951 19.1935 40.3947 18.9906C40.498 18.7877 40.3279 18.5155 40.3947 18.1875C40.464 17.857 40.6013 18.0757 40.8042 17.9056C41.0071 17.7355 41.21 17.7027 41.21 17.7027C41.21 17.7027 41.3097 17.4305 41.4798 17.3297C41.6499 17.2264 41.4129 17.0575 41.4798 16.9566C41.549 16.8534 41.6499 16.8874 41.6499 16.8874L41.9889 16.8546C41.9889 16.8546 42.1249 16.7209 42.3315 16.5156C42.5405 16.3127 42.3619 16.213 42.3619 16.213C42.3619 16.213 42.2951 15.9737 42.3619 15.8741C42.4287 15.7708 42.8005 15.738 42.8005 15.738C42.8005 15.738 42.9706 15.738 43.21 15.6383C43.4457 15.5351 43.21 15.6383 43.2768 15.4354C43.3436 15.2289 43.3436 15.2993 43.4797 15.0624C43.6158 14.823 43.8187 14.5873 43.8187 14.5873L44.1249 14.3844C44.2124 14.3273 44.2488 14.2994 44.261 14.2969C44.2549 14.3091 44.1638 14.3844 44.2245 14.3844C44.3278 14.3844 44.5975 14.4513 44.5975 14.4513V14.8243C44.5975 14.8243 44.7676 14.7574 44.9365 14.5885C45.1066 14.4184 45.1394 14.4525 45.6485 14.3164C46.1576 14.1827 46.5294 14.3164 46.5294 14.3164C46.5294 14.3164 46.9025 14.3164 47.0349 14.3528C47.171 14.3856 47.6132 14.6226 47.9498 14.7258C48.2888 14.8255 48.3228 14.7927 48.5257 14.8255C48.7323 14.8583 48.8647 14.9288 49.2037 15.1645C49.5427 15.4002 49.2037 15.1645 49.4066 15.4707C49.5419 15.6724 49.6893 15.9097 49.8489 16.1827C50.0846 16.5885 50.0846 16.3856 50.2875 16.5885C50.4905 16.7914 50.4904 16.891 50.6265 17.0271C50.7626 17.1632 50.7262 17.23 50.827 17.4001C50.9242 17.5702 50.8635 17.6723 50.8294 17.942C50.7966 18.2142 50.9995 18.3807 51.0652 18.518C51.1344 18.654 51.3373 19.1631 51.3373 19.1631C51.3373 19.1631 51.5074 19.7719 51.573 20.0781C51.6399 20.3806 51.6399 20.6868 51.6399 20.9565V21.9747C51.6399 22.2809 51.7431 22.3477 51.8428 22.5166L51.946 22.6867L51.9133 22.8568C51.9133 22.8568 51.81 23.1266 51.6411 23.4328C51.471 23.7353 51.4054 23.8714 51.4054 23.8714C51.4054 23.8714 51.6083 23.9406 51.7116 24.3805C51.8112 24.8191 51.7116 24.3805 51.7116 24.9892C51.7116 25.598 51.6423 25.3622 51.5755 25.6344C51.5086 25.9041 51.5427 26.0402 51.4394 26.4132C51.3398 26.7863 50.8307 26.8191 50.8307 26.8191L50.8817 26.9223C50.9364 27.022 50.9303 29.0887 50.8963 29.4605C50.8635 29.8336 50.8963 30.8505 50.8963 30.8505L51.0992 30.8833C51.0992 30.8833 51.7772 30.9526 51.8804 30.9526C51.9837 30.9526 52.3859 30.8165 52.4892 30.746C52.5888 30.6792 52.9618 30.8153 53.2012 30.9854C53.4369 31.1555 53.8767 31.1883 54.4891 31.2879C55.0979 31.3912 56.8937 31.0522 58.8572 31.0522C60.8206 31.0522 62.9226 31.3912 64.0065 31.9671C65.0915 32.5431 68.174 34.2696 68.6831 34.5758C69.1886 34.882 70.4765 35.3547 71.2918 35.5236C72.1034 35.6937 72.6794 35.6596 73.5943 35.8625C74.5092 36.0655 75.9988 36.4044 76.7449 36.3716C77.4897 36.3388 79.5564 35.2866 80.3013 35.0181C81.0461 34.7459 84.8746 33.0194 85.3837 32.5431C85.8928 32.0704 87.3825 30.8165 87.5854 30.6464C87.7883 30.4763 88.3642 30.2406 88.3642 30.2406C88.3642 30.2406 89.0762 29.6987 89.2463 29.4593C89.4164 29.2236 89.719 27.9685 89.685 26.9879C89.6522 26.0062 90.7032 25.2614 90.7032 25.2614C90.7032 25.2614 90.397 24.5166 89.8551 23.5312C89.3131 22.5494 84.8746 20.1109 80.7107 17.6371C80.3839 17.4463 80.068 17.2312 79.7691 17.004C78.2187 15.8291 77.0182 14.2289 76.158 12.4938C75.5031 11.1707 74.7559 9.43438 74.9466 7.92653C75.3743 4.57911 78.1822 1.39816 81.3863 0.499039C81.6706 0.417631 81.9586 0.344729 82.2465 0.283977C84.0059 -0.103618 85.9123 -0.154648 87.5659 0.647273C89.4711 1.57434 90.4978 3.16117 91.3435 5.03961C91.8465 6.15744 92.3313 7.28985 92.6642 8.45993C92.9364 9.41373 93.1089 10.393 93.1089 11.4076C93.1089 12.6615 92.7359 15.9117 92.6338 16.727C92.5342 17.5386 92.1952 21.2311 92.3313 21.4681C92.4649 21.7038 92.7371 21.5713 93.0761 21.5713C93.4151 21.5713 93.4127 21.705 93.5816 22.3502C93.7517 22.9929 93.6848 23.841 93.6848 23.841L94.1575 23.7049C94.6326 23.5713 94.9388 23.7377 95.1757 24.2468C95.4114 24.7559 95.3118 25.6368 95.3118 25.6368C95.3118 25.6368 95.6848 25.6696 95.8172 26.1095C95.9533 26.5518 95.9533 27.2273 95.9533 27.2273C95.9533 27.2273 96.1562 27.2638 96.2923 27.3974C96.4284 27.5335 96.3251 28.2455 96.3251 28.4812C96.3251 28.7169 96.0226 29.2965 95.7492 29.5322C95.4794 29.7679 94.6982 30.616 94.5645 30.8202C94.4284 31.0231 94.1222 31.8347 93.6836 32.0741C93.245 32.3098 91.9899 33.2587 91.4152 34.0035C90.8368 34.7484 88.7713 36.4749 88.3314 36.8151C87.8916 37.1541 85.4178 39.6267 84.4688 40.2051C83.5211 40.781 80.3365 42.3703 78.9465 42.6558C77.5589 42.9401 75.4241 43.1163 73.7632 43.1163C72.1022 43.1163 70.0379 43.0495 70.0379 43.0495C70.0379 43.0495 69.7317 43.7615 69.5628 44.1673C69.3927 44.5731 69.3599 44.3702 69.1242 44.3702C68.8885 44.3702 67.5677 43.8976 66.9225 43.5586C66.2798 43.2196 65.4317 42.4043 65.1632 42.3715C64.891 42.3387 64.7877 42.5416 64.6213 43.1163C64.4512 43.6922 63.9433 45.2183 63.9093 46.1332C63.8765 47.0481 63.8765 49.8585 63.9093 50.1623C63.9421 50.4684 63.9421 51.6883 63.9421 51.9253C63.9421 52.1622 64.145 52.8062 64.4147 53.2132C64.6869 53.619 64.5848 54.9398 64.6213 55.4148C64.6541 55.8875 65.0599 56.1268 65.3661 56.5995C65.6686 57.0746 66.2118 58.8011 66.4147 59.0745C66.6176 59.3442 67.1267 60.0222 67.3296 60.2592C67.5325 60.4949 67.7354 61.2069 67.942 61.7828C68.1449 62.3587 68.0416 62.9699 68.4474 64.0877C68.8532 65.2056 68.6503 66.6964 68.8204 67.9831C68.9905 69.2711 68.7536 70.6939 68.8204 71.0304C68.8897 71.3694 69.0598 71.8117 69.2627 72.2843C69.4656 72.7594 69.5324 73.3353 69.4984 74.0801C69.4656 74.825 69.5652 75.2308 69.7341 75.9768C69.9042 76.7216 69.9042 77.1979 70.0731 77.6706C70.2432 78.1457 70.7183 78.8249 70.852 79.3303C70.988 79.8394 71.2614 82.5842 71.4971 83.2257C71.7329 83.8709 72.7146 87.663 72.7146 87.663C72.7146 87.663 73.0208 89.426 73.1897 90.0675C73.3598 90.7127 74.1714 92.6094 74.8834 93.76C75.5954 94.9143 78.2697 96.7077 81.1846 98.0309C84.0982 99.3516 85.5891 102.096 86.4372 102.975C87.2828 103.856 88.8417 105.922 90.4322 108.463C92.0251 111.005 94.4977 113.849 94.7006 114.052C94.9035 114.255 95.9545 115.409 96.3968 115.712C96.8354 116.018 96.2607 114.866 96.7333 114.866C97.206 114.866 97.4454 115 98.2242 115.745C99.0055 116.49 100.123 117.238 100.326 117.778C100.529 118.319 101.038 119.508 101.341 119.644C101.647 119.777 102.629 120.116 102.968 121.135C103.307 122.149 100.902 123.064 99.3445 124.012C97.7844 124.96 95.9217 126.351 95.2097 126.96C94.4977 127.568 91.7894 129.128 90.2998 128.992C88.8065 128.856 88.5367 126.994 89.2488 126.079C89.9608 125.164 91.2815 122.999 91.4844 122.05C91.6873 121.098 91.2815 119.236 90.8392 118.357C90.3994 117.476 88.9426 115.543 88.9426 115.543L77.8323 106.261C77.8323 106.261 76.0365 103.959 74.107 102.739C72.1739 101.518 69.9395 100.065 67.5702 98.235C65.1984 96.4052 65.0951 95.4902 64.4171 94.0334C63.7416 92.5766 62.3516 89.6629 62.3516 89.6629C62.3516 89.6629 61.8097 89.6301 61.54 89.6629C61.2678 89.6957 60.7247 89.9691 60.3188 89.6301C59.913 89.2911 57.1683 83.1929 57.1355 83.0933C57.1027 82.99 55.5085 80.4153 55.5085 80.4153C55.5085 80.4153 55.1355 80.5186 54.6276 80.6875C54.1222 80.8576 51.3106 82.617 49.9534 83.4991C48.5999 84.38 45.9219 85.7675 45.4821 86.2766C45.0422 86.7857 44.6 87.0883 43.8892 87.0883C43.1784 87.0883 41.6535 85.8003 41.6535 85.8003C41.6535 85.8003 40.8747 85.8696 40.063 86.0397C39.2478 86.2098 35.9975 87.1575 34.9806 87.6994C33.966 88.2413 32.915 89.1903 32.7449 90.0688C32.5748 90.9497 32.2698 95.8973 32.169 97.4902C32.0657 99.0807 31.5603 101.791 30.1362 104.06C28.7122 106.328 28.6126 108.024 28.5433 108.7C28.4765 109.378 27.8678 112.798 27.8678 112.798C27.8678 112.798 28.2408 112.699 28.5105 112.529C28.7827 112.359 29.0864 112.496 29.0864 112.868C29.0864 113.239 28.7474 114.73 28.8167 116.254C28.8835 117.778 30.9163 119.031 29.7316 120.827C28.5445 122.623 24.0064 121.436 21.7343 121.47C19.4658 121.506 18.2812 121.47 17.297 121.64C16.3152 121.81 13.4016 121.573 12.3166 121.202C11.2352 120.829 10.217 120.151 10.217 119.881C10.217 119.611 10.5232 119.136 10.7261 118.627C10.929 118.118 12.7248 117.373 13.3348 117.476C13.9435 117.576 15.7733 117.103 16.2156 116.868C16.6542 116.628 18.6201 114.902 19.0272 114.459C19.433 114.021 21.4986 112.463 21.569 112.36C21.6359 112.26 22.2118 111.784 22.3479 111.581C22.4815 111.378 22.6869 111.581 22.6869 111.581C22.6869 111.581 22.9226 110.53 22.9226 109.887C22.9226 109.244 23.2288 101.857 23.2288 100.808C23.2288 99.7598 23.3952 96.7065 23.7342 95.2533C24.0732 93.7965 24.3466 89.7978 24.4462 89.053C24.5495 88.3082 25.055 85.5634 25.2943 83.9037C25.53 82.2439 27.8325 81.702 28.3088 81.2294C28.7839 80.7543 32.0681 78.4154 32.5772 77.7398C33.0863 77.0618 34.1009 76.2137 34.7133 75.8407C35.322 75.4677 40.1991 71.9125 40.6414 71.5395C41.0812 71.1665 43.419 69.7437 43.9281 69.3379C44.4335 68.9321 44.7069 69.3707 45.1127 68.8993C45.5185 68.4242 46.1977 68.5262 46.1977 68.0512C46.1977 67.5761 46.2974 65.8848 46.2974 65.3769C46.2974 64.869 45.6546 63.7171 45.0459 63.0379C44.4335 62.36 42.4712 57.9919 42.029 57.077C41.5903 56.1621 39.5236 51.3518 39.5236 51.3518C39.5236 51.3518 38.0667 51.4879 37.458 51.4879C36.8493 51.4879 35.9307 51.7904 35.6282 51.9605C35.322 52.1306 34.6768 53.0783 34.4739 53.4173C34.271 53.7563 33.8652 54.0261 33.4253 53.9592C32.983 53.8924 31.2237 52.7746 31.2237 52.7746C31.2237 52.7746 28.988 54.1621 28.3769 54.7709C27.7681 55.3832 27.8009 55.619 27.3951 56.2277C26.9893 56.8401 25.8022 57.5156 24.2446 58.4293C22.6881 59.3442 22.9906 59.4135 21.433 60.0222C19.8728 60.631 16.8596 61.8849 16.4197 61.9845C15.9775 62.0878 14.2181 62.7658 13.9787 62.7998C13.743 62.8326 13.3032 63.0027 12.997 63.2056C12.6908 63.4085 11.9824 63.8836 11.4065 64.1533C10.8281 64.4255 9.16843 64.6952 8.69579 64.6952H6.93278C6.42732 64.6952 6.32402 64.8982 6.08709 65.0342C5.84772 65.1703 5.578 65.3404 5.51116 65.5093C5.44191 65.6758 5.3751 65.982 5.3751 66.1849C5.3751 66.3878 5.30827 66.7268 5.30827 66.7268C5.30827 66.7268 4.93524 66.9625 4.69588 66.9625C4.45652 66.9625 4.39334 66.4898 4.39334 66.084C4.39334 65.6782 4.52699 65.3028 4.59624 65.0658C4.66307 64.8301 4.93524 64.287 4.93524 64.1181C4.93524 63.9492 4.55981 64.0853 4.22325 64.2214C3.88425 64.355 3.78097 64.6272 3.54525 64.7973C3.30953 64.9674 3.13943 65.2031 3.00335 65.5421C2.86727 65.8811 2.56472 65.8447 2.3606 65.8119C2.15404 65.7791 2.19048 65.5093 2.25731 64.9662C2.32413 64.4243 2.86606 63.7451 3.03616 63.5094C3.20627 63.27 3.54525 62.7974 3.54525 62.7974L2.93652 62.7305C2.93652 62.7305 2.15525 63.1036 1.98879 63.3065C1.81869 63.5094 1.24398 63.7123 0.90377 63.7123C0.563568 63.7123 0.834511 63.0343 1.17351 62.7305C1.5125 62.4244 2.29135 61.7792 2.76643 61.5763C3.23907 61.3734 4.15397 61.3733 4.32286 61.4062C4.49297 61.4426 4.493 61.1704 4.29008 61.0331C4.08717 60.8995 3.47844 60.7974 3.10542 60.6601C2.73241 60.5265 1.81747 60.3576 1.40922 60.3576C1.00097 60.3576 0.530769 60.2883 0.461517 59.8035C0.394691 59.3163 1.27679 59.2398 2.05441 59.3406L2.04954 59.3345ZM86.617 13.772C86.8029 13.772 86.9536 13.6214 86.9536 13.4355C86.9536 13.2496 86.8029 13.0989 86.617 13.0989C86.4311 13.0989 86.2804 13.2496 86.2804 13.4355C86.2804 13.6214 86.4311 13.772 86.617 13.772ZM86.617 11.7636C86.8029 11.7636 86.9536 11.6129 86.9536 11.427C86.9536 11.2411 86.8029 11.0905 86.617 11.0905C86.4311 11.0905 86.2804 11.2411 86.2804 11.427C86.2804 11.6129 86.4311 11.7636 86.617 11.7636ZM87.1686 9.856C87.3545 9.856 87.5052 9.70534 87.5052 9.51944C87.5052 9.33354 87.3545 9.18287 87.1686 9.18287C86.9827 9.18287 86.8321 9.33354 86.8321 9.51944C86.8321 9.70534 86.9827 9.856 87.1686 9.856ZM85.9439 10.5291C86.1298 10.5291 86.2804 10.3785 86.2804 10.1926C86.2804 10.0067 86.1298 9.856 85.9439 9.856C85.758 9.856 85.6073 10.0067 85.6073 10.1926C85.6073 10.3785 85.758 10.5291 85.9439 10.5291ZM85.6778 11.9191C85.6778 11.7332 85.5271 11.5826 85.3412 11.5826C85.1553 11.5826 85.0047 11.7332 85.0047 11.9191C85.0047 12.105 85.1553 12.2557 85.3412 12.2557C85.5271 12.2557 85.6778 12.105 85.6778 11.9191ZM85.176 14.2168C85.3619 14.2168 85.5125 14.0661 85.5125 13.8802C85.5125 13.6943 85.3619 13.5436 85.176 13.5436C84.9901 13.5436 84.8394 13.6943 84.8394 13.8802C84.8394 14.0661 84.9901 14.2168 85.176 14.2168ZM84.8394 11.0917C85.0253 11.0917 85.176 10.941 85.176 10.7551C85.176 10.5692 85.0253 10.4186 84.8394 10.4186C84.6535 10.4186 84.5028 10.5692 84.5028 10.7551C84.5028 10.941 84.6535 11.0917 84.8394 11.0917ZM85.176 7.31294C85.176 7.12704 85.0253 6.97638 84.8394 6.97638C84.6535 6.97638 84.5028 7.12704 84.5028 7.31294C84.5028 7.49884 84.6535 7.6495 84.8394 7.6495C85.0253 7.6495 85.176 7.49884 85.176 7.31294ZM84.2185 14.9968C84.4044 14.9968 84.5551 14.8461 84.5551 14.6602C84.5551 14.4743 84.4044 14.3237 84.2185 14.3237C84.0326 14.3237 83.882 14.4743 83.882 14.6602C83.882 14.8461 84.0326 14.9968 84.2185 14.9968ZM84.2185 12.9288C84.4044 12.9288 84.5551 12.7782 84.5551 12.5923C84.5551 12.4064 84.4044 12.2557 84.2185 12.2557C84.0326 12.2557 83.882 12.4064 83.882 12.5923C83.882 12.7782 84.0326 12.9288 84.2185 12.9288ZM84.2185 9.85721C84.4044 9.85721 84.5551 9.70655 84.5551 9.52065C84.5551 9.33475 84.4044 9.18409 84.2185 9.18409C84.0326 9.18409 83.882 9.33475 83.882 9.52065C83.882 9.70655 84.0326 9.85721 84.2185 9.85721ZM83.882 8.0857C83.882 7.8998 83.7313 7.74913 83.5454 7.74913C83.3595 7.74913 83.2088 7.8998 83.2088 8.0857C83.2088 8.2716 83.3595 8.42226 83.5454 8.42226C83.7313 8.42226 83.882 8.2716 83.882 8.0857ZM82.967 11.4878C82.967 11.6737 83.1177 11.8244 83.3036 11.8244C83.4895 11.8244 83.6402 11.6737 83.6402 11.4878C83.6402 11.3019 83.4895 11.1512 83.3036 11.1512C83.1177 11.1512 82.967 11.3019 82.967 11.4878ZM83.1675 6.97638C83.1675 6.79048 83.0169 6.63981 82.831 6.63981C82.6451 6.63981 82.4944 6.79048 82.4944 6.97638C82.4944 7.16227 82.6451 7.31294 82.831 7.31294C83.0169 7.31294 83.1675 7.16227 83.1675 6.97638ZM83.3036 16.0357C83.4895 16.0357 83.6402 15.885 83.6402 15.6991C83.6402 15.5132 83.4895 15.3625 83.3036 15.3625C83.1177 15.3625 82.967 15.5132 82.967 15.6991C82.967 15.885 83.1177 16.0357 83.3036 16.0357ZM82.967 13.8802C83.1529 13.8802 83.3036 13.7295 83.3036 13.5436C83.3036 13.3577 83.1529 13.2071 82.967 13.2071C82.7811 13.2071 82.6305 13.3577 82.6305 13.5436C82.6305 13.7295 82.7811 13.8802 82.967 13.8802ZM82.967 9.99208C82.967 9.80618 82.8164 9.65552 82.6305 9.65552C82.4446 9.65552 82.2939 9.80618 82.2939 9.99208C82.2939 10.178 82.4446 10.3286 82.6305 10.3286C82.8164 10.3286 82.967 10.178 82.967 9.99208ZM82.4944 12.2557C82.4944 12.0698 82.3437 11.9191 82.1578 11.9191C81.9719 11.9191 81.8213 12.0698 81.8213 12.2557C81.8213 12.4416 81.9719 12.5923 82.1578 12.5923C82.3437 12.5923 82.4944 12.4416 82.4944 12.2557ZM81.9573 9.18409C82.1432 9.18409 82.2939 9.03342 82.2939 8.84752C82.2939 8.66162 82.1432 8.51096 81.9573 8.51096C81.7714 8.51096 81.6208 8.66162 81.6208 8.84752C81.6208 9.03342 81.7714 9.18409 81.9573 9.18409ZM81.413 10.7551C81.2271 10.7551 81.0764 10.9058 81.0764 11.0917C81.0764 11.2776 81.2271 11.4283 81.413 11.4283C81.5989 11.4283 81.7496 11.2776 81.7496 11.0917C81.7496 10.9058 81.5989 10.7551 81.413 10.7551ZM81.9573 14.9968C82.1432 14.9968 82.2939 14.8461 82.2939 14.6602C82.2939 14.4743 82.1432 14.3237 81.9573 14.3237C81.7714 14.3237 81.6208 14.4743 81.6208 14.6602C81.6208 14.8461 81.7714 14.9968 81.9573 14.9968ZM81.0764 13.2654C81.2623 13.2654 81.413 13.1147 81.413 12.9288C81.413 12.7429 81.2623 12.5923 81.0764 12.5923C80.8905 12.5923 80.7399 12.7429 80.7399 12.9288C80.7399 13.1147 80.8905 13.2654 81.0764 13.2654ZM80.7399 9.9933C80.9258 9.9933 81.0764 9.84264 81.0764 9.65674C81.0764 9.47084 80.9258 9.32017 80.7399 9.32017C80.554 9.32017 80.4033 9.47084 80.4033 9.65674C80.4033 9.84264 80.554 9.9933 80.7399 9.9933ZM80.5916 8.42226C80.5916 8.23636 80.441 8.0857 80.2551 8.0857C80.0692 8.0857 79.9185 8.23636 79.9185 8.42226C79.9185 8.60816 80.0692 8.75883 80.2551 8.75883C80.441 8.75883 80.5916 8.60816 80.5916 8.42226ZM80.2551 14.2168C80.441 14.2168 80.5916 14.0661 80.5916 13.8802C80.5916 13.6943 80.441 13.5436 80.2551 13.5436C80.0692 13.5436 79.9185 13.6943 79.9185 13.8802C79.9185 14.0661 80.0692 14.2168 80.2551 14.2168ZM80.1263 12.1002C80.3122 12.1002 80.4629 11.9495 80.4629 11.7636C80.4629 11.5777 80.3122 11.427 80.1263 11.427C79.9404 11.427 79.7897 11.5777 79.7897 11.7636C79.7897 11.9495 79.9404 12.1002 80.1263 12.1002ZM79.9197 10.3286C79.9197 10.1427 79.7691 9.99208 79.5832 9.99208C79.3973 9.99208 79.2466 10.1427 79.2466 10.3286C79.2466 10.5145 79.3973 10.6652 79.5832 10.6652C79.7691 10.6652 79.9197 10.5145 79.9197 10.3286ZM79.1178 12.9276C79.3037 12.9276 79.4544 12.7769 79.4544 12.591C79.4544 12.4051 79.3037 12.2545 79.1178 12.2545C78.9319 12.2545 78.7812 12.4051 78.7812 12.591C78.7812 12.7769 78.9319 12.9276 79.1178 12.9276ZM78.1093 11.3371C78.2952 11.3371 78.4459 11.1865 78.4459 11.0006C78.4459 10.8147 78.2952 10.664 78.1093 10.664C77.9234 10.664 77.7728 10.8147 77.7728 11.0006C77.7728 11.1865 77.9234 11.3371 78.1093 11.3371ZM77.4229 8.98239C77.2369 8.98239 77.0863 9.13306 77.0863 9.31896C77.0863 9.50486 77.2369 9.65552 77.4229 9.65552C77.6088 9.65552 77.7594 9.50486 77.7594 9.31896C77.7594 9.13306 77.6088 8.98239 77.4229 8.98239ZM77.9769 7.31172C77.791 7.31172 77.6403 7.46239 77.6403 7.64829C77.6403 7.83419 77.791 7.98485 77.9769 7.98485C78.1628 7.98485 78.3135 7.83419 78.3135 7.64829C78.3135 7.46239 78.1628 7.31172 77.9769 7.31172ZM78.65 5.66293C78.4641 5.66293 78.3135 5.81359 78.3135 5.99949C78.3135 6.18539 78.4641 6.33605 78.65 6.33605C78.8359 6.33605 78.9866 6.18539 78.9866 5.99949C78.9866 5.81359 78.8359 5.66293 78.65 5.66293ZM78.7825 8.50974C78.5966 8.50974 78.4459 8.66041 78.4459 8.84631C78.4459 9.03221 78.5966 9.18287 78.7825 9.18287C78.9684 9.18287 79.119 9.03221 79.119 8.84631C79.119 8.66041 78.9684 8.50974 78.7825 8.50974ZM79.4556 6.73823C79.2697 6.73823 79.119 6.88889 79.119 7.07479C79.119 7.26069 79.2697 7.41136 79.4556 7.41136C79.6415 7.41136 79.7922 7.26069 79.7922 7.07479C79.7922 6.88889 79.6415 6.73823 79.4556 6.73823ZM80.1287 4.82455C79.9428 4.82455 79.7922 4.97522 79.7922 5.16112C79.7922 5.34702 79.9428 5.49768 80.1287 5.49768C80.3146 5.49768 80.4653 5.34702 80.4653 5.16112C80.4653 4.97522 80.3146 4.82455 80.1287 4.82455ZM80.7435 6.0651C80.5576 6.0651 80.407 6.21576 80.407 6.40166C80.407 6.58756 80.5576 6.73823 80.7435 6.73823C80.9294 6.73823 81.0801 6.58756 81.0801 6.40166C81.0801 6.21576 80.9294 6.0651 80.7435 6.0651ZM81.4167 4.00805C81.2308 4.00805 81.0801 4.15872 81.0801 4.34462C81.0801 4.53052 81.2308 4.68118 81.4167 4.68118C81.6026 4.68118 81.7532 4.53052 81.7532 4.34462C81.7532 4.15872 81.6026 4.00805 81.4167 4.00805ZM81.4167 7.31051C81.2308 7.31051 81.0801 7.46117 81.0801 7.64707C81.0801 7.83297 81.2308 7.98363 81.4167 7.98363C81.6026 7.98363 81.7532 7.83297 81.7532 7.64707C81.7532 7.46117 81.6026 7.31051 81.4167 7.31051ZM82.1615 5.49646C81.9756 5.49646 81.8249 5.64713 81.8249 5.83303C81.8249 6.01893 81.9756 6.16959 82.1615 6.16959C82.3474 6.16959 82.498 6.01893 82.498 5.83303C82.498 5.64713 82.3474 5.49646 82.1615 5.49646ZM82.8346 2.71404C82.6487 2.71404 82.498 2.86471 82.498 3.05061C82.498 3.23651 82.6487 3.38717 82.8346 3.38717C83.0205 3.38717 83.1712 3.23651 83.1712 3.05061C83.1712 2.86471 83.0205 2.71404 82.8346 2.71404ZM83.2125 4.34462C83.0266 4.34462 82.8759 4.49528 82.8759 4.68118C82.8759 4.86708 83.0266 5.01774 83.2125 5.01774C83.3984 5.01774 83.549 4.86708 83.549 4.68118C83.549 4.49528 83.3984 4.34462 83.2125 4.34462ZM83.549 6.33484C83.549 6.52074 83.6997 6.6714 83.8856 6.6714C84.0715 6.6714 84.2222 6.52074 84.2222 6.33484C84.2222 6.14894 84.0715 5.99827 83.8856 5.99827C83.6997 5.99827 83.549 6.14894 83.549 6.33484ZM83.9998 3.6727C83.9998 3.8586 84.1505 4.00927 84.3364 4.00927C84.5223 4.00927 84.673 3.8586 84.673 3.6727C84.673 3.4868 84.5223 3.33614 84.3364 3.33614C84.1505 3.33614 83.9998 3.4868 83.9998 3.6727ZM84.843 2.04213C84.6571 2.04213 84.5065 2.19279 84.5065 2.37869C84.5065 2.56459 84.6571 2.71526 84.843 2.71526C85.0289 2.71526 85.1796 2.56459 85.1796 2.37869C85.1796 2.19279 85.0289 2.04213 84.843 2.04213ZM85.0083 4.82455C84.8224 4.82455 84.6717 4.97522 84.6717 5.16112C84.6717 5.34702 84.8224 5.49768 85.0083 5.49768C85.1942 5.49768 85.3449 5.34702 85.3449 5.16112C85.3449 4.97522 85.1942 4.82455 85.0083 4.82455ZM85.2744 8.66041C85.2744 8.84631 85.4251 8.99697 85.611 8.99697C85.7969 8.99697 85.9475 8.84631 85.9475 8.66041C85.9475 8.47451 85.7969 8.32384 85.611 8.32384C85.4251 8.32384 85.2744 8.47451 85.2744 8.66041ZM85.611 6.33362C85.611 6.51952 85.7616 6.67018 85.9475 6.67018C86.1334 6.67018 86.2841 6.51952 86.2841 6.33362C86.2841 6.14772 86.1334 5.99706 85.9475 5.99706C85.7616 5.99706 85.611 6.14772 85.611 6.33362ZM86.2841 3.67149C86.0982 3.67149 85.9475 3.82215 85.9475 4.00805C85.9475 4.19395 86.0982 4.34462 86.2841 4.34462C86.47 4.34462 86.6206 4.19395 86.6206 4.00805C86.6206 3.82215 86.47 3.67149 86.2841 3.67149ZM86.3971 7.74671C86.3971 7.9326 86.5477 8.08327 86.7336 8.08327C86.9195 8.08327 87.0702 7.9326 87.0702 7.74671C87.0702 7.5608 86.9195 7.41014 86.7336 7.41014C86.5477 7.41014 86.3971 7.5608 86.3971 7.74671ZM87.2999 5.32514C87.114 5.32514 86.9633 5.47581 86.9633 5.66171C86.9633 5.84761 87.114 5.99827 87.2999 5.99827C87.4858 5.99827 87.6364 5.84761 87.6364 5.66171C87.6364 5.47581 87.4858 5.32514 87.2999 5.32514ZM87.685 12.8899C87.685 13.0758 87.8357 13.2265 88.0216 13.2265C88.2075 13.2265 88.3581 13.0758 88.3581 12.8899C88.3581 12.704 88.2075 12.5534 88.0216 12.5534C87.8357 12.5534 87.685 12.704 87.685 12.8899ZM88.5477 10.9009C88.5477 10.715 88.397 10.5644 88.2111 10.5644C88.0252 10.5644 87.8746 10.715 87.8746 10.9009C87.8746 11.0868 88.0252 11.2375 88.2111 11.2375C88.397 11.2375 88.5477 11.0868 88.5477 10.9009ZM88.2111 6.73701C88.0252 6.73701 87.8746 6.88768 87.8746 7.07358C87.8746 7.25948 88.0252 7.41014 88.2111 7.41014C88.397 7.41014 88.5477 7.25948 88.5477 7.07358C88.5477 6.88768 88.397 6.73701 88.2111 6.73701ZM88.6935 8.84388C88.5076 8.84388 88.3569 8.99454 88.3569 9.18044C88.3569 9.36634 88.5076 9.517 88.6935 9.517C88.8794 9.517 89.0301 9.36634 89.0301 9.18044C89.0301 8.99454 88.8794 8.84388 88.6935 8.84388ZM89.9304 17.0539L87.086 18.5957C86.9037 18.6954 86.8855 18.9529 87.0532 19.0744C87.8709 19.6747 89.7979 21.0707 89.9462 21.0367C90.1369 20.9942 90.0519 20.4486 90.0519 19.5641C90.0519 18.9007 90.1248 17.7318 90.1576 17.1984C90.1661 17.0769 90.0361 16.9955 89.9304 17.0526V17.0539Z" fill="#702472"/>
</svg>
