<svg xmlns="http://www.w3.org/2000/svg" width="195" height="40" fill="none"><path fill="#673EB6" d="M35.1 0H0v40h35.1z"/><path fill="#fff" d="M28.166 13.758V6.667h-7.077v6.808h-7.643V26.95H6.23v6.524h21.795V26.95h-6.935V13.758z"/><path fill="#673EB6" d="M45.932 32.97V28.9h5.148V18.543l-4.17.254v-4.07l5.798-.364q1.376-.071 2.102.654.726.723.726 2.072V28.9h5.15v4.07zM73.888 18.433q-2.683 0-4.206 1.798-1.523 1.8-1.53 5.47v7.268H63.48V14.727h4.673v2.579l-.834 2.798h1.197q.579-2.579 2.338-4.16 1.76-1.582 4.588-1.581 3.37 0 5.274 2.125 1.905 2.125 1.905 6.124v10.357h-4.636v-9.667q0-2.616-.96-3.743-.961-1.125-3.137-1.126M102.246 28.064q0 5.263-7.942 5.263-4.635 0-6.87-1.836-2.238-1.836-2.23-5.178h4.676q0 3.415 4.533 3.415 3.156 0 3.154-1.743a1.52 1.52 0 0 0-.797-1.38q-.798-.475-2.865-1.128a10 10 0 0 1-.834-.255q-3.59-1.198-4.714-1.889-2.284-1.454-2.317-3.96 0-2.365 1.957-3.69t5.476-1.326q4.17 0 6.164 1.834t1.996 4.598h-4.682q0-2.837-3.517-2.835-2.72 0-2.72 1.527 0 .835.98 1.345.979.51 3.516 1.343 3.627 1.201 4.679 1.818 2.355 1.46 2.357 4.077M112.327 29.262l6.565-.362v4.07l-8.418.363q-1.378.036-2.104-.69-.726-.727-.724-2.146v-11.7h-4.205v-4.07h4.206V10.8l4.677-1.453v5.379h5.839v4.07h-5.836zM121.572 27.954q0-2.36 1.577-3.743 1.578-1.382 5.204-1.817l6.309-.763q-.108-3.415-4.205-3.416-1.923 0-3.065.854-1.141.855-1.141 2.562h-4.425q0-3.234 2.394-5.25t6.237-2.013q3.951 0 6.417 2.167 2.467 2.168 2.471 6.192V28.9h2.639v4.07h-3.698q-1.197 0-1.832-.655-.635-.656-.635-1.818v-.619l.726-2.071h-1.235q-1.305 5.523-7.325 5.525-1.958 0-3.317-.547-1.36-.546-1.976-1.453a6.5 6.5 0 0 1-.871-1.726 5.5 5.5 0 0 1-.249-1.652m4.679-.799q0 1.055.706 1.58.706.528 1.867.527 2.649 0 4.243-1.326 1.594-1.328 1.595-3.47l-5.475.69q-1.56.183-2.247.6-.688.416-.689 1.4M158.376 32.97l-5.149-7.596-3.916 1.962v5.633h-4.678V6.26h4.678v16.245l8.702-4.362-.182-3.415h4.643l.145 3.743q.036 2.217-1.958 3.198l-3.482 1.744 6.528 9.557zM165.629 32.97V28.9h5.149V18.543l-4.17.254v-4.07l5.802-.364q1.377-.071 2.103.654.726.723.725 2.072V28.9h5.149v4.07zM188.437 29.262 195 28.9v4.07l-8.412.363q-1.38.036-2.103-.69-.723-.727-.726-2.146v-11.7h-4.206v-4.07h4.206V10.8l4.678-1.453v5.379h5.838v4.07h-5.838zM169.414 7.517v5.106h5.096V7.517zM50.527 7.517v5.106h5.096V7.517z"/></svg>