<svg width="98" height="335" viewBox="0 0 98 335" fill="none" xmlns="http://www.w3.org/2000/svg">
<path d="M98.4325 130.611C97.0767 130.251 95.5234 130.737 94.7063 131.862C93.5571 133.418 93.7546 135.946 95.2541 137.116C96.125 137.8 97.3371 137.979 98.4325 137.71V130.611Z" fill="#7D287F"/>
<path d="M98.4328 113.139C97.4002 113.184 96.3856 113.66 95.7571 114.506C94.6169 116.063 94.8144 118.591 96.3138 119.76C96.9154 120.228 97.6606 120.453 98.4328 120.462V113.139Z" fill="#7D287F"/>
<path d="M98.4327 96.1523C98.0107 96.3143 97.6426 96.5662 97.3463 96.9261C95.8558 98.7524 95.9636 101.182 97.5977 102.504C97.8581 102.711 98.1364 102.855 98.4327 102.981V96.1523Z" fill="#7D287F"/>
<path d="M98.432 148.398C96.9864 147.39 94.8226 147.714 93.6015 149.171C92.2277 150.818 92.3265 152.716 93.8349 153.967C95.4511 155.307 97.1929 155.37 98.432 154.192V148.398Z" fill="#7D287F"/>
<path d="M92.4888 171.447C94.0332 172.77 96.1252 172.617 97.4181 171.079C98.7829 169.468 98.6841 167.273 97.1847 165.95C95.8468 164.763 93.4226 165.024 92.2015 166.499C90.8637 168.11 90.9804 170.161 92.4888 171.447Z" fill="#7D287F"/>
<path d="M98.4328 79.8867C98.379 79.9497 98.3071 79.9947 98.2533 80.0577C97.0501 81.4972 97.1579 83.4675 98.4328 84.754V79.8867Z" fill="#7D287F"/>
<path d="M87.2265 127.714C88.6541 128.866 90.9527 128.614 92.1109 127.138C93.3949 125.519 93.2602 123.548 91.5273 122.325C90.2433 121.029 87.9089 121.218 86.8315 122.676C85.6463 124.277 85.754 126.517 87.2265 127.714Z" fill="#7D287F"/>
<path d="M85.9883 144.907C87.3621 145.995 89.6785 145.725 90.7739 144.358C92.1027 142.693 91.8873 140.849 90.2083 139.499C88.5742 138.186 86.7784 138.375 85.4765 140.003C84.3362 141.425 84.5787 143.782 85.9883 144.907Z" fill="#7D287F"/>
<path d="M88.1608 110.215C89.3998 111.384 91.851 111.339 92.9464 109.954C94.1945 108.37 94.7152 106.85 92.704 105.114C91.1417 103.755 89.6513 103.521 87.9633 105.293C86.7242 106.634 86.814 108.946 88.1608 110.215Z" fill="#7D287F"/>
<path d="M98.4325 209.954C98.3876 210.008 98.3247 210.044 98.2798 210.098C96.8522 211.834 96.8971 213.913 98.4055 215.19C98.4055 215.19 98.4235 215.199 98.4325 215.208V209.954Z" fill="#7D287F"/>
<path d="M84.8835 162.171C86.2841 163.359 88.5917 163.125 89.723 161.604C90.953 159.958 90.8543 158.392 89.1663 156.962C87.5681 155.558 85.5838 155.99 84.659 157.187C83.3391 158.905 83.411 160.929 84.8745 162.171H84.8835Z" fill="#7D287F"/>
<path d="M89.5972 93.0855C91.0248 94.2641 93.3144 94.0122 94.4367 92.4827C95.6309 90.8543 95.5411 89.3428 93.9609 87.9303C92.3537 86.6168 90.5579 86.6438 89.4446 87.9933C88.017 89.7297 88.0798 91.826 89.5972 93.0855Z" fill="#7D287F"/>
<path d="M91.0969 184.016C89.9207 185.581 90.1452 187.741 91.6087 188.883C93.0453 190.008 95.2451 189.756 96.3764 188.334C97.5077 186.904 97.2743 184.7 95.8646 183.548C94.4639 182.405 92.1295 182.63 91.0969 184.007V184.016Z" fill="#7D287F"/>
<path d="M91.1593 75.5048C92.5958 76.6924 94.4095 76.4225 95.7025 75.064C96.9415 73.7684 96.8248 71.6991 95.4241 70.4306C94.0594 69.189 92.0661 69.4229 90.863 70.8894C89.588 72.4369 89.7137 74.3082 91.1503 75.5048H91.1593Z" fill="#7D287F"/>
<path d="M83.7699 179.239C85.2065 180.399 87.1099 180.156 88.3041 178.663C89.4624 177.214 89.3277 175.289 87.9809 174.101C86.661 172.941 84.5511 173.202 83.3569 174.677C82.1538 176.162 82.3243 178.078 83.7699 179.239Z" fill="#7D287F"/>
<path d="M90.4326 205.861C91.8692 207.03 93.7726 206.796 94.9668 205.303C96.152 203.827 95.9634 201.686 94.5537 200.651C93.0992 199.59 91.2137 199.86 90.0375 201.299C88.8254 202.784 88.996 204.7 90.4326 205.861Z" fill="#7D287F"/>
<path d="M80.6722 100.822C81.9651 101.929 83.9495 101.785 85.0898 100.516C86.257 99.2027 86.1133 97.1334 84.7755 95.9908C83.4825 94.8842 81.4983 95.0282 80.358 96.2967C79.1908 97.6103 79.3344 99.6795 80.6722 100.822Z" fill="#7D287F"/>
<path d="M76.9644 152.868C78.2932 153.867 80.3942 153.597 81.4357 152.266C82.6119 150.772 82.3874 149.099 80.8521 147.866C79.7118 146.661 77.521 146.886 76.3627 148.406C75.3751 149.702 75.8869 152.059 76.9644 152.868Z" fill="#7D287F"/>
<path d="M77.9344 135.442C79.2543 136.585 81.3014 136.387 82.4237 135.028C83.5461 133.661 83.3485 131.654 81.9838 130.53C80.6639 129.459 78.6527 129.603 77.6202 130.854C76.417 132.311 76.5517 134.246 77.9344 135.442Z" fill="#7D287F"/>
<path d="M79.2541 118.285C80.6009 119.401 82.63 119.185 83.7344 117.799C84.8388 116.414 84.6053 114.408 83.2226 113.31C81.8938 112.257 79.8826 112.437 78.868 113.706C77.6828 115.181 77.8444 117.116 79.2541 118.285Z" fill="#7D287F"/>
<path d="M92.3176 58.1767C93.6374 59.2024 95.7653 58.9145 96.7889 57.565C97.8933 56.1165 97.6509 54.3711 96.1963 53.2195C94.7328 52.0679 92.9999 52.2478 91.8507 53.6783C90.7912 54.9919 91.0157 57.1601 92.3176 58.1767Z" fill="#7D287F"/>
<path d="M98.4322 226.688C97.8666 226.859 97.3458 227.201 96.9059 227.732C95.8194 229.037 96.008 231.178 97.3009 232.24C97.6331 232.509 98.0192 232.689 98.4322 232.797V226.697V226.688Z" fill="#7D287F"/>
<path d="M75.7343 169.999C77.0272 170.988 79.0025 170.763 80.0261 169.495C81.0856 168.19 80.8431 166.112 79.5143 165.095C78.2214 164.106 76.2461 164.331 75.2225 165.599C74.163 166.904 74.4054 168.982 75.7343 169.999Z" fill="#7D287F"/>
<path d="M81.7949 83.4316C83.007 84.4482 85.2158 84.1873 86.2573 82.9098C87.3617 81.5602 87.0654 79.41 85.8264 78.6813C84.291 77.4217 82.621 77.5297 81.4358 78.9692C80.3943 80.2377 80.5648 82.397 81.7949 83.4226V83.4316Z" fill="#7D287F"/>
<path d="M82.4957 196.368C83.7796 197.43 85.8358 197.223 86.8952 195.927C87.9547 194.641 87.7482 192.581 86.4552 191.519C85.1713 190.457 83.1152 190.664 82.0557 191.96C80.9962 193.246 81.2027 195.307 82.4957 196.368Z" fill="#7D287F"/>
<path d="M89.5619 223.009C90.9536 224.133 92.48 223.962 93.6293 222.559C94.9043 221.002 94.8055 219.437 93.351 218.276C91.9682 217.17 90.4329 217.332 89.3195 218.708C87.9996 220.328 88.0805 221.812 89.5619 223.009Z" fill="#7D287F"/>
<path d="M82.989 61.8206C81.75 63.2961 81.8308 64.9335 83.2135 66.0671C84.5333 67.1557 86.1495 67.0298 87.2449 65.7432C88.5199 64.2407 88.457 62.5673 87.0923 61.3977C85.8712 60.3541 84.0575 60.543 82.989 61.8206Z" fill="#7D287F"/>
<path d="M81.4266 213.805C82.7285 214.858 84.4165 214.669 85.4849 213.355C86.6342 211.943 86.5175 210.08 85.2156 209.064C83.8957 208.029 82.1 208.317 80.9686 209.747C79.9271 211.07 80.1157 212.761 81.4266 213.814V213.805Z" fill="#7D287F"/>
<path d="M74.6926 187.12C76.0125 188.218 77.6376 188.11 78.724 186.832C80.0169 185.321 79.9721 183.692 78.6163 182.478C77.4401 181.434 75.5635 181.605 74.504 182.855C73.247 184.34 73.3189 185.968 74.6926 187.111V187.12Z" fill="#7D287F"/>
<path d="M70.2931 125.887C71.6489 127.056 73.31 126.957 74.4323 125.626C75.6893 124.132 75.6175 122.423 74.2527 121.28C72.9957 120.237 71.2359 120.435 70.1495 121.73C68.9553 123.161 69.0092 124.771 70.2931 125.887Z" fill="#7D287F"/>
<path d="M69.0988 143.179C70.3738 144.223 72.1336 144.07 73.1841 142.81C74.2436 141.542 74.1089 139.77 72.8609 138.708C71.6039 137.628 69.8351 137.745 68.7666 138.978C67.6353 140.273 67.779 142.1 69.0988 143.179Z" fill="#7D287F"/>
<path d="M72.7357 91.4108C73.9299 92.4185 75.8603 92.1846 76.9018 90.925C77.8805 89.7284 77.7637 87.8031 76.6324 86.7775C75.546 85.7788 73.445 86.0217 72.4304 87.2633C71.3799 88.5498 71.5056 90.3852 72.7357 91.4108Z" fill="#7D287F"/>
<path d="M71.0294 104.529C69.9879 105.807 70.1585 107.57 71.4245 108.623C72.6904 109.675 74.4592 109.531 75.5187 108.281C76.6231 106.976 76.4436 105.15 75.1147 104.088C73.8308 103.063 72.0709 103.252 71.0384 104.538L71.0294 104.529Z" fill="#7D287F"/>
<path d="M98.4323 38.0147C98.3156 37.331 97.9564 36.6922 97.3459 36.2064C96.0619 35.1897 94.3021 35.3877 93.2696 36.6742C92.237 37.9608 92.4166 39.7151 93.6916 40.7678C94.9665 41.8114 96.7264 41.6585 97.7769 40.3989C98.136 39.967 98.3515 39.4722 98.4323 38.9684V38.0147Z" fill="#7D287F"/>
<path d="M67.7252 160.606C68.9463 161.542 70.8497 161.281 71.8104 160.04C72.825 158.735 72.6006 157.107 71.2628 156.054C69.9519 155.019 68.2729 155.208 67.2672 156.504C66.3065 157.736 66.531 159.68 67.7252 160.606Z" fill="#7D287F"/>
<path d="M98.4326 244.475C97.4898 244.313 96.5471 244.646 95.8557 245.492C94.8591 246.715 95.0297 248.632 96.2149 249.603C96.8344 250.107 97.6514 250.287 98.4326 250.17V244.466V244.475Z" fill="#7D287F"/>
<path d="M84.2018 44.4025C83.0346 45.806 83.1153 47.7583 84.3903 48.721C85.5575 49.6117 87.452 49.3868 88.3678 48.1902C89.3645 46.8856 89.3825 45.3112 87.883 44.2766C86.5991 43.2419 85.1266 43.2959 84.2018 44.4115V44.4025Z" fill="#7D287F"/>
<path d="M73.7137 69.7471C72.5824 71.1147 72.6273 72.932 73.8035 73.9757C74.9169 74.9563 76.9461 74.7584 77.8978 73.5168C78.9124 72.1943 78.8226 70.6918 77.5117 69.6842C76.1111 68.5955 74.6655 68.5865 73.7048 69.7471H73.7137Z" fill="#7D287F"/>
<path d="M88.3315 240.156C89.4897 241.055 91.3753 240.857 92.318 239.661C93.3236 238.374 93.3685 236.8 91.8691 235.738C90.5402 234.659 89.0228 234.74 88.0801 235.936C86.9936 237.313 87.1104 239.202 88.3315 240.156Z" fill="#7D287F"/>
<path d="M73.5166 204.313C74.6659 205.221 76.5604 205.024 77.5031 203.827C78.5088 202.549 78.5716 200.966 77.0722 199.904C75.7434 198.816 74.2259 198.888 73.2832 200.084C72.1968 201.461 72.3045 203.341 73.5166 204.304V204.313Z" fill="#7D287F"/>
<path d="M66.5854 177.817C67.7167 178.824 69.6111 178.662 70.5898 177.484C71.5595 176.314 71.353 174.416 70.1589 173.489C69.0006 172.58 67.2049 172.778 66.2711 173.912C65.3373 175.036 65.481 176.845 66.5854 177.817Z" fill="#7D287F"/>
<path d="M80.3221 230.764C81.606 231.807 82.9528 231.627 84.0303 230.287C85.1257 228.928 85.0179 227.489 83.7429 226.472C82.4949 225.474 81.0493 225.689 79.9629 227.039C78.8855 228.379 79.0112 229.72 80.3131 230.773L80.3221 230.764Z" fill="#7D287F"/>
<path d="M62.2483 112.689C61.0362 114.146 61.0901 115.415 62.4189 116.504C63.7478 117.61 65.0227 117.493 66.1091 116.18C67.3213 114.713 67.2584 113.355 65.9206 112.275C64.6725 111.267 63.2988 111.42 62.2483 112.689Z" fill="#7D287F"/>
<path d="M98.4324 18.9148C98.4324 18.9148 98.3965 18.8788 98.3785 18.8608C97.0676 17.8352 95.7568 18.0421 94.6254 19.4546C93.5301 20.8131 93.6468 22.0817 94.9577 23.1523C96.2057 24.1689 97.3639 24.097 98.4414 22.9724V18.9148H98.4324Z" fill="#7D287F"/>
<path d="M61.0724 133.76C62.2576 134.758 63.9006 134.623 64.8883 133.436C65.8759 132.239 65.7143 130.593 64.5112 129.621C63.3529 128.685 61.7637 128.82 60.794 129.936C59.7794 131.105 59.8962 132.77 61.0724 133.76Z" fill="#7D287F"/>
<path d="M75.3031 56.6741C76.5152 57.6458 78.0326 57.4388 79.0472 56.1523C79.9451 55.0187 79.7925 53.2103 78.724 52.3826C77.6196 51.5189 75.8419 51.8158 74.8901 53.0214C73.9474 54.218 74.1179 55.7294 75.3031 56.6741Z" fill="#7D287F"/>
<path d="M59.6355 147.479C58.7377 148.658 58.9532 150.25 60.1294 151.177C61.3056 152.095 62.8858 151.906 63.8286 150.727C64.7624 149.548 64.5918 147.974 63.4335 147.02C62.2304 146.031 60.5873 146.238 59.6355 147.479Z" fill="#7D287F"/>
<path d="M63.5144 99.2386C64.6906 100.174 66.2619 100.003 67.2136 98.8427C68.2013 97.6371 68.0038 95.9907 66.7557 95.0371C65.5795 94.1374 63.9903 94.3533 63.0655 95.5319C62.1497 96.7105 62.3382 98.2939 63.5144 99.2386Z" fill="#7D287F"/>
<path d="M89.4179 30.9433C90.4505 29.7558 90.3517 27.9564 89.2024 27.0477C88.1609 26.238 86.4729 26.3729 85.6559 27.3356C84.5515 28.6311 84.5784 30.2956 85.7187 31.2762C86.7782 32.1849 88.4662 32.032 89.4179 30.9433Z" fill="#7D287F"/>
<path d="M65.5082 194.938C66.6664 195.874 68.2915 195.685 69.2163 194.506C70.1322 193.337 69.9166 191.708 68.7315 190.8C67.6002 189.936 66.0379 190.116 65.131 191.222C64.1883 192.374 64.3499 194.002 65.5171 194.938H65.5082Z" fill="#7D287F"/>
<path d="M58.7917 168.244C59.8422 169.144 61.593 168.973 62.4999 167.884C63.5504 166.624 63.4247 165.356 62.1497 164.285C60.8568 163.206 59.5998 163.287 58.5403 164.51C57.6155 165.59 57.7233 167.335 58.7827 168.244H58.7917Z" fill="#7D287F"/>
<path d="M72.3408 221.289C73.4093 222.18 75.1422 221.982 76.049 220.876C77.0726 219.616 76.9289 218.338 75.645 217.277C74.3521 216.206 73.0861 216.305 72.0445 217.556C71.1287 218.653 71.2724 220.399 72.3408 221.28V221.289Z" fill="#7D287F"/>
<path d="M98.4323 262.586C98.4323 262.586 98.3784 262.532 98.3425 262.505C97.0317 261.479 95.7657 261.614 94.7511 262.901C93.8712 264.016 94.0687 265.771 95.1641 266.616C96.1068 267.345 97.4985 267.255 98.4323 266.508V262.577V262.586Z" fill="#7D287F"/>
<path d="M87.1913 257.089C88.1071 257.88 89.9478 257.665 90.8008 256.702C91.7076 255.676 91.6358 254.21 90.6392 253.346C89.1487 252.06 88.0892 252.051 87.0118 253.301C85.7638 254.237 86.4012 256.396 87.1913 257.08V257.089Z" fill="#7D287F"/>
<path d="M69.9974 64.0338C70.9132 62.8552 70.7426 61.5777 69.5395 60.597C68.1747 59.4814 67.1601 59.6254 66.0019 60.8219C65.0142 61.8476 65.4901 63.8179 66.2982 64.5197C67.2589 65.3564 69.1803 65.0865 69.9974 64.0338Z" fill="#7D287F"/>
<path d="M80.1518 39.0585C80.9868 38.0598 80.8611 36.4314 79.8825 35.5497C78.8769 34.65 77.153 34.785 76.282 35.8286C75.447 36.8272 75.5727 38.4557 76.5514 39.3374C77.557 40.237 79.2809 40.1021 80.1518 39.0585Z" fill="#7D287F"/>
<path d="M64.4571 78.303C63.5592 79.3826 63.676 81.002 64.7265 81.9287C65.777 82.8554 67.4021 82.7834 68.3539 81.7578C69.3505 80.6872 69.2697 78.9867 68.1833 78.0241C67.0879 77.0524 65.3999 77.1784 64.4661 78.303H64.4571Z" fill="#7D287F"/>
<path d="M57.8579 106.895C58.7199 105.86 58.5852 104.286 57.5526 103.422C56.5201 102.558 54.9488 102.693 54.0869 103.728C53.2249 104.763 53.3596 106.337 54.3922 107.201C55.4247 108.064 56.996 107.929 57.8579 106.895Z" fill="#7D287F"/>
<path d="M98.4322 1.49701C97.5702 1.27209 96.6813 1.49701 96.0798 2.19877C95.1639 3.27839 95.2537 4.97879 96.2773 5.86948C96.8519 6.36431 97.669 6.49926 98.4322 6.31932V1.49701Z" fill="#7D287F"/>
<path d="M57.1663 181.955C56.2595 183.053 56.3852 184.762 57.4357 185.617C58.4414 186.436 60.1024 186.229 61.0002 185.185C61.8442 184.196 61.6557 182.603 60.5962 181.74C59.4918 180.831 58.0193 180.93 57.1663 181.964V181.955Z" fill="#7D287F"/>
<path d="M64.4839 212.167C65.4626 213.004 67.1326 212.824 68.0484 211.789C68.9284 210.799 68.7668 209.225 67.6983 208.334C66.5939 207.426 65.1125 207.498 64.2595 208.505C63.3437 209.594 63.4424 211.294 64.475 212.167H64.4839Z" fill="#7D287F"/>
<path d="M52.8746 120.741C51.9588 121.821 52.0575 123.522 53.0811 124.403C54.0957 125.276 55.8825 125.042 56.7444 123.926C57.5166 122.919 57.328 121.416 56.3135 120.58C55.2091 119.671 53.7276 119.734 52.8746 120.732V120.741Z" fill="#7D287F"/>
<path d="M79.3885 248.038C80.421 248.839 81.9205 248.677 82.7645 247.687C83.6444 246.652 83.5008 245.06 82.4503 244.196C81.3998 243.332 79.8195 243.494 78.9665 244.565C78.1136 245.636 78.3021 247.21 79.3796 248.047L79.3885 248.038Z" fill="#7D287F"/>
<path d="M52.0571 141.758C53.1076 142.631 54.6878 142.469 55.5408 141.407C56.3579 140.39 56.2322 138.879 55.2535 138.015C54.2389 137.115 52.6407 137.232 51.7608 138.267C50.8809 139.302 51.0156 140.894 52.0661 141.758H52.0571Z" fill="#7D287F"/>
<path d="M59.2312 89.3605C60.2368 88.1369 60.1919 86.8324 59.1145 85.9147C58.0101 84.979 56.6992 85.159 55.7116 86.3646C54.7419 87.5521 54.8496 88.7847 55.9989 89.7114C57.0943 90.5931 58.3244 90.4581 59.2312 89.3605Z" fill="#7D287F"/>
<path d="M50.6208 155.496C49.6421 156.683 49.7409 157.916 50.8812 158.852C51.9766 159.742 53.2067 159.616 54.1225 158.528C55.1461 157.295 55.1101 156 54.0327 155.073C52.9463 154.137 51.5995 154.299 50.6208 155.496Z" fill="#7D287F"/>
<path d="M90.4413 13.6245C91.5367 12.3289 91.4919 11.0154 90.3157 10.0797C89.2472 9.225 87.9363 9.40494 87.0115 10.5205C86.0149 11.7171 86.0867 12.9587 87.2 13.8764C88.2954 14.785 89.5435 14.6951 90.4413 13.6245Z" fill="#7D287F"/>
<path d="M70.7871 46.6338C71.8376 45.4283 71.7029 44.3306 70.5896 43.206C69.6558 42.2614 68.2013 42.5043 67.3124 43.5839C66.3248 44.7715 66.4145 46.121 67.5458 47.0207C68.5873 47.8484 69.8892 47.6775 70.7961 46.6428L70.7871 46.6338Z" fill="#7D287F"/>
<path d="M71.3079 238.68C72.3404 239.517 73.6603 239.364 74.5582 238.32C75.5368 237.178 75.474 235.756 74.4055 234.866C73.382 234.011 71.9903 234.173 71.1014 235.243C70.1137 236.431 70.1945 237.781 71.3079 238.68Z" fill="#7D287F"/>
<path d="M56.4574 202.811C57.463 203.665 58.8727 203.512 59.7706 202.469C60.6415 201.443 60.5697 199.905 59.609 199.05C58.756 198.294 57.1218 198.456 56.3227 199.374C55.353 200.49 55.4069 201.929 56.4574 202.811Z" fill="#7D287F"/>
<path d="M60.3178 71.9598C61.1888 70.9342 61.108 69.3867 60.1472 68.541C59.3032 67.8033 57.6512 67.9652 56.8611 68.8739C55.8914 69.9895 55.9542 71.429 57.0047 72.3107C58.0193 73.1564 59.42 73.0124 60.3088 71.9598H60.3178Z" fill="#7D287F"/>
<path d="M63.0206 225.978C62.2395 226.976 62.3831 228.425 63.3349 229.216C64.2866 230.008 65.7501 229.864 66.5672 228.901C67.474 227.84 67.3483 226.562 66.2529 225.663C65.1396 224.754 63.8916 224.871 63.0206 225.978Z" fill="#7D287F"/>
<path d="M81.2744 21.2628C82.1453 20.1742 81.9837 18.9146 80.8524 18.0329C79.775 17.1872 78.5808 17.3132 77.7188 18.3478C76.8749 19.3645 77.0275 20.9029 78.0511 21.6857C79.0387 22.4414 80.4843 22.2435 81.2744 21.2628Z" fill="#7D287F"/>
<path d="M47.4154 131.825C48.1427 130.916 47.99 129.441 47.1012 128.694C46.1674 127.911 44.5961 128.1 43.8778 129.072C43.1864 130.008 43.384 131.492 44.2998 132.194C45.2246 132.905 46.6971 132.734 47.4244 131.825H47.4154Z" fill="#7D287F"/>
<path d="M53.0453 175.892C53.8803 174.884 53.7097 173.364 52.6682 172.572C51.6715 171.816 50.235 171.996 49.4628 172.986C48.6906 173.975 48.8522 175.415 49.8219 176.207C50.7916 176.998 52.2372 176.854 53.0453 175.892Z" fill="#7D287F"/>
<path d="M94.3109 283.728C95.2088 284.403 96.798 284.169 97.5253 283.27C98.3154 282.298 98.1628 281.02 97.1662 280.193C96.0618 279.284 94.8945 279.32 94.1224 280.283C93.2514 281.371 93.3412 283 94.3109 283.728Z" fill="#7D287F"/>
<path d="M86.3199 274.264C87.1908 274.956 88.78 274.768 89.5432 273.877C90.3692 272.905 90.1987 271.556 89.1392 270.701C88.0977 269.864 86.9484 269.909 86.2032 270.818C85.3143 271.898 85.3682 273.499 86.3199 274.264Z" fill="#7D287F"/>
<path d="M48.7807 114.587C49.5708 113.616 49.4181 112.329 48.4215 111.51C47.3171 110.602 46.1499 110.629 45.3777 111.591C44.5068 112.68 44.5966 114.3 45.5663 115.037C46.4552 115.712 48.0444 115.487 48.7807 114.587Z" fill="#7D287F"/>
<path d="M46.2214 149.297C46.8858 148.316 47.1911 147.336 45.7994 146.256C44.8208 145.473 43.6266 145.482 42.9442 146.283C42.0284 147.363 42.0643 148.964 43.034 149.738C43.9319 150.458 45.539 150.296 46.2214 149.297Z" fill="#7D287F"/>
<path d="M49.8222 97.1427C50.7111 95.8202 50.4597 94.9385 49.3733 94.1018C48.3946 93.3191 47.2004 93.3461 46.527 94.1558C45.6112 95.2534 45.6651 96.8458 46.6438 97.6106C47.5506 98.3213 49.1578 98.1414 49.8312 97.1427H49.8222Z" fill="#7D287F"/>
<path d="M61.5845 54.6237C62.4734 53.3011 62.2309 52.4194 61.1355 51.5827C60.1569 50.8 58.9627 50.818 58.2893 51.6277C57.3734 52.7253 57.4273 54.3178 58.397 55.0825C59.3038 55.7932 60.9111 55.6133 61.5845 54.6237Z" fill="#7D287F"/>
<path d="M78.1943 264.943C79.1102 265.716 80.5287 265.59 81.2919 264.664C82.0192 263.782 81.9204 262.432 81.0675 261.659C80.1876 260.849 78.751 260.93 77.9609 261.839C77.1708 262.738 77.2785 264.169 78.1853 264.952L78.1943 264.943Z" fill="#7D287F"/>
<path d="M55.3527 219.761C56.475 220.687 57.346 220.597 58.2798 219.446C59.2764 218.222 59.2225 217.305 58.1092 216.405C57.0138 215.532 56.0979 215.694 55.1103 216.927C54.2304 218.024 54.3112 218.897 55.3527 219.761Z" fill="#7D287F"/>
<path d="M48.5472 190.169C47.5596 191.348 47.5955 192.23 48.664 193.12C49.7863 194.056 50.6662 193.975 51.591 192.841C52.5787 191.627 52.5427 190.682 51.4563 189.8C50.3968 188.937 49.472 189.054 48.5472 190.169Z" fill="#7D287F"/>
<path d="M71.829 29.2879C72.8436 28.0643 72.8167 27.1376 71.7482 26.2379C70.6438 25.3113 69.737 25.4372 68.7403 26.6608C67.7976 27.8214 67.8784 28.6941 69.0007 29.5938C70.0602 30.4485 70.9401 30.3495 71.82 29.2789L71.829 29.2879Z" fill="#7D287F"/>
<path d="M50.8901 79.9318C51.761 78.9062 51.6892 77.6106 50.7285 76.8639C49.8935 76.2251 48.6006 76.387 47.8912 77.2147C46.9664 78.3034 46.9844 79.338 47.9541 80.1837C48.9507 81.0564 50.0192 80.9664 50.8991 79.9318H50.8901Z" fill="#7D287F"/>
<path d="M70.2032 255.64C71.2178 256.459 72.2503 256.315 73.1302 255.217C73.9114 254.246 73.8216 252.977 72.9148 252.257C72.0438 251.556 70.7329 251.744 69.9787 252.689C69.0988 253.787 69.1796 254.812 70.2032 255.64Z" fill="#7D287F"/>
<path d="M44.8209 166.337C45.5661 165.402 45.4494 164.061 44.5606 163.377C43.6717 162.694 42.3787 162.901 41.6335 163.845C40.7626 164.934 40.8524 165.977 41.8939 166.796C42.9175 167.597 43.941 167.444 44.8209 166.337Z" fill="#7D287F"/>
<path d="M82.4143 3.818C83.0159 3.05327 82.9081 1.47883 82.2168 0.885034C81.4805 0.264252 79.8644 0.498169 79.2179 1.32588C78.4278 2.33353 78.5176 3.44913 79.4424 4.22286C80.421 5.04157 81.5703 4.87963 82.4143 3.80901V3.818Z" fill="#7D287F"/>
<path d="M62.3744 243.287C61.5753 244.169 61.5573 245.518 62.3385 246.274C63.1196 247.03 64.5472 246.94 65.3014 246.094C66.0736 245.23 66.0287 243.737 65.2027 243.035C64.5023 242.432 63.0299 242.576 62.3744 243.296V243.287Z" fill="#7D287F"/>
<path d="M62.4463 37.214C63.1556 36.3773 63.1107 35.0008 62.3565 34.2541C61.7011 33.6063 60.0939 33.7502 59.4295 34.524C58.6573 35.4147 58.6932 36.7822 59.4923 37.5019C60.3004 38.2307 61.7011 38.0957 62.4463 37.214Z" fill="#7D287F"/>
<path d="M50.5763 210.152C51.2677 209.307 51.1869 207.885 50.4057 207.201C49.6784 206.562 48.161 206.742 47.4787 207.552C46.7245 208.452 46.7963 209.819 47.6313 210.521C48.4663 211.223 49.8401 211.052 50.5763 210.152Z" fill="#7D287F"/>
<path d="M43.5461 183.458C44.2644 182.522 44.1118 181.632 43.0972 180.813C42.0108 179.931 41.1758 180.012 40.3497 181.065C39.6763 181.919 39.82 183.341 40.6371 183.962C41.4811 184.609 42.8458 184.367 43.5461 183.449V183.458Z" fill="#7D287F"/>
<path d="M39.2183 122.289C39.9455 121.362 39.7929 120.462 38.7873 119.644C37.6919 118.762 36.8659 118.834 36.0398 119.878C35.3575 120.741 35.4921 122.145 36.3092 122.775C37.1532 123.422 38.5089 123.198 39.2272 122.28L39.2183 122.289Z" fill="#7D287F"/>
<path d="M40.3311 105.294C40.9776 104.52 40.8878 103.243 40.1426 102.559C39.3615 101.848 37.9967 101.938 37.3053 102.757C36.623 103.566 36.7666 104.934 37.6016 105.582C38.4007 106.202 39.6668 106.068 40.3222 105.294H40.3311Z" fill="#7D287F"/>
<path d="M38.1047 139.652C38.823 138.653 38.5805 137.79 37.7006 137.052C36.7848 136.287 35.6805 136.395 34.9801 137.304C34.3067 138.176 34.4593 139.526 35.2944 140.138C36.1473 140.767 37.4582 140.534 38.1047 139.652Z" fill="#7D287F"/>
<path d="M72.9329 11.7531C73.6063 10.8624 73.4178 9.74677 72.4661 9.05401C71.5143 8.36125 70.6254 8.44222 69.8622 9.34191C69.1529 10.1786 69.2966 11.5461 70.1226 12.1849C70.9576 12.8327 72.2775 12.6258 72.9419 11.7531H72.9329Z" fill="#7D287F"/>
<path d="M51.9047 62.5949C52.5871 61.7672 52.4614 60.4537 51.6264 59.7699C50.8004 59.0861 49.4895 59.2121 48.8071 60.0488C48.1247 60.8765 48.2504 62.1901 49.0854 62.8738C49.9115 63.5576 51.2224 63.4316 51.9047 62.5949Z" fill="#7D287F"/>
<path d="M54.4193 237.151C55.2633 237.781 56.5832 237.565 57.2297 236.674C57.9479 235.684 57.7235 234.821 56.8346 234.074C55.9188 233.309 54.8144 233.408 54.1141 234.308C53.4407 235.172 53.5753 236.53 54.4103 237.151H54.4193Z" fill="#7D287F"/>
<path d="M41.4 87.7499C42.0016 86.8862 42.2261 85.9595 41.0678 85.1858C40.0891 84.3761 39.2182 84.4391 38.4461 85.4017C37.7457 86.2744 37.8714 87.489 38.7334 88.1458C39.5774 88.7935 40.7625 88.6586 41.4 87.7409V87.7499Z" fill="#7D287F"/>
<path d="M77.1355 281.919C77.9526 282.594 79.0839 282.459 79.8201 281.613C80.6013 280.714 80.4845 279.778 79.1288 278.68C78.599 278.302 77.746 278.114 76.929 279.166C76.2287 280.066 76.2915 281.235 77.1355 281.928V281.919Z" fill="#7D287F"/>
<path d="M53.153 45.2392C53.7635 44.3845 53.997 43.4579 52.8297 42.6571C51.878 41.8744 50.9891 41.9194 50.2259 42.8641C49.5166 43.7457 49.6333 44.9423 50.4863 45.6171C51.3303 46.2739 52.4975 46.1569 53.153 45.2482V45.2392Z" fill="#7D287F"/>
<path d="M84.8563 288.631C84.147 289.513 84.2637 290.718 85.1166 291.384C85.9606 292.041 87.1279 291.924 87.7833 291.006C88.3939 290.142 88.6183 289.225 87.469 288.433C86.5083 287.632 85.6284 287.686 84.8563 288.64V288.631Z" fill="#7D287F"/>
<path d="M36.6863 156.881C37.3058 156.036 37.5482 155.109 36.3002 154.218C35.4293 153.489 34.5584 153.534 33.7862 154.479C33.0679 155.361 33.1667 156.557 34.0197 157.232C34.8457 157.889 36.0308 157.79 36.6863 156.881Z" fill="#7D287F"/>
<path d="M92.9374 297.889C92.273 298.69 92.3987 299.958 93.2158 300.606C94.0328 301.254 95.3258 301.128 95.9183 300.273C96.5469 299.356 96.457 298.438 95.6579 297.664C94.9127 296.944 93.6108 297.079 92.9464 297.88L92.9374 297.889Z" fill="#7D287F"/>
<path d="M63.5774 19.7787C64.4124 18.852 64.0712 18.0063 63.4248 17.2775C62.7514 16.5308 61.5572 16.7377 60.8479 17.6014C60.1566 18.4741 60.1027 19.3198 60.9915 20.1026C61.8445 20.8583 62.7603 20.6873 63.5774 19.7787Z" fill="#7D287F"/>
<path d="M42.1991 200.786C42.9174 199.895 42.9264 198.734 42.0465 198.204C41.2294 197.709 40.2867 197.466 39.5774 198.509C38.8052 199.436 38.8411 200.444 39.721 201.109C40.6368 201.802 41.4629 201.694 42.1991 200.786Z" fill="#7D287F"/>
<path d="M48.8162 227.479C49.723 226.571 49.5075 225.563 48.7623 224.897C48.1069 224.303 47.0743 224.061 46.3112 225.032C45.5121 225.914 45.4941 226.984 46.3112 227.659C47.1821 228.379 48.0081 228.28 48.8162 227.47V227.479Z" fill="#7D287F"/>
<path d="M35.3306 174.416C36.2105 173.49 35.9771 172.5 35.205 171.843C34.5136 171.258 33.49 171.061 32.7627 172.059C31.9726 172.959 31.9816 174.012 32.8346 174.677C33.7324 175.379 34.5495 175.235 35.3396 174.416H35.3306Z" fill="#7D287F"/>
<path d="M71.6851 269.9C70.886 269.387 69.9432 269.108 69.216 270.152C68.4259 271.079 68.4438 272.077 69.2968 272.761C70.1946 273.472 71.0386 273.373 71.7749 272.491C72.5111 271.619 72.5381 270.449 71.6761 269.9H71.6851Z" fill="#7D287F"/>
<path d="M42.5314 70.5745C43.1958 69.7378 43.133 68.8651 42.3429 68.1633C41.4989 67.4166 40.583 67.4526 39.8378 68.3163C39.0836 69.18 39.2362 70.0526 40.0802 70.9163C40.9422 71.4292 41.8131 71.4921 42.5404 70.5835L42.5314 70.5745Z" fill="#7D287F"/>
<path d="M61.395 263.341C62.2929 263.944 63.2087 263.809 63.8821 262.945C64.5016 262.153 64.6094 261.326 63.6487 260.741C62.7867 259.958 62.0235 259.688 61.2244 260.741C60.56 261.613 60.56 262.783 61.395 263.332V263.341Z" fill="#7D287F"/>
<path d="M30.9576 113.201C31.5592 112.428 31.4694 111.537 30.7242 110.898C29.9251 110.214 29.0003 110.286 28.3269 111.087C27.6445 111.897 27.833 112.76 28.5423 113.516C29.4402 114.047 30.3111 114.038 30.9576 113.201Z" fill="#7D287F"/>
<path d="M29.6648 130.422C30.2844 129.549 30.2485 128.776 29.4763 128.11C28.6772 127.417 27.8242 127.354 27.1149 128.209C26.4415 129.019 26.4774 129.963 27.2675 130.638C28.0666 131.322 28.9555 131.106 29.6648 130.422Z" fill="#7D287F"/>
<path d="M34.0645 191.465C34.7289 190.583 34.4686 189.765 33.6156 189.144C32.7895 188.532 32.0263 188.694 31.2991 189.513C30.8412 190.331 30.8053 191.249 31.6582 191.87C32.4933 192.482 33.418 192.32 34.0555 191.465H34.0645Z" fill="#7D287F"/>
<path d="M28.4081 147.57C29.0636 146.598 28.884 145.806 28.031 145.168C27.214 144.556 26.4059 144.637 25.7864 145.437C25.1399 146.274 25.2027 147.219 26.0198 147.858C26.8458 148.505 27.7257 148.271 28.3991 147.57H28.4081Z" fill="#7D287F"/>
<path d="M55.6669 253.804C56.3224 252.842 56.1517 252.05 55.3077 251.402C54.4997 250.781 53.6826 250.853 53.0631 251.645C52.4166 252.473 52.4616 253.417 53.2786 254.065C54.0957 254.722 54.9756 254.488 55.6669 253.795V253.804Z" fill="#7D287F"/>
<path d="M43.8063 53.31C44.4617 52.3383 44.2822 51.5466 43.4292 50.9078C42.6122 50.296 41.8041 50.377 41.1845 51.1777C40.5471 52.0144 40.6009 52.9591 41.418 53.5979C42.244 54.2456 43.124 54.0117 43.7974 53.31H43.8063Z" fill="#7D287F"/>
<path d="M40.852 217.943C41.5075 217.178 41.4177 216.36 40.6545 215.694C39.8554 214.992 39.0473 214.974 38.2303 215.811C37.6826 216.621 37.6377 217.529 38.4368 218.204C39.2359 218.879 40.1697 218.735 40.852 217.943Z" fill="#7D287F"/>
<path d="M32.0801 95.7386C32.7445 94.8569 32.4841 94.0382 31.6401 93.4084C30.8141 92.7966 30.0509 92.9496 29.3596 93.7323C28.8478 94.596 28.8388 95.5047 29.6828 96.1255C30.5088 96.7373 31.4426 96.5753 32.0801 95.7296V95.7386Z" fill="#7D287F"/>
<path d="M54.3207 27.9299C54.9402 26.9582 54.7427 26.1755 53.8807 25.5547C53.0547 24.9519 52.2466 25.0599 51.6451 25.8606C51.0166 26.7063 51.0884 27.651 51.9234 28.2808C52.7584 28.9016 53.6383 28.6676 54.3117 27.9299H54.3207Z" fill="#7D287F"/>
<path d="M33.4628 78.3124C33.9566 77.7007 34.2439 76.8819 33.2024 76.1352C32.6727 75.5594 31.8915 75.2625 31.1553 76.0272C30.419 76.792 30.2843 77.8266 31.0834 78.5734C31.8287 79.2751 32.8253 79.0952 33.4628 78.3124Z" fill="#7D287F"/>
<path d="M27.1151 164.843C27.8693 164.016 27.8513 163.206 27.0432 162.576C26.4147 162.09 25.5887 161.884 25.041 162.783C24.3317 163.557 24.1611 164.277 25.041 165.005C25.7952 165.644 26.4327 165.599 27.1241 164.843H27.1151Z" fill="#7D287F"/>
<path d="M84.2276 306.166C83.5991 306.904 83.5094 307.596 84.2007 308.334C84.9549 308.91 85.6553 308.955 86.3376 308.181C87.011 307.416 87.0469 306.58 86.3107 305.977C85.7001 305.464 84.8831 305.392 84.2276 306.166Z" fill="#7D287F"/>
<path d="M47.4515 244.286C48.2147 243.557 47.9095 242.756 47.2091 242.208C46.4819 241.641 45.7097 241.695 45.0722 242.585C44.5066 243.386 44.4617 244.016 45.2428 244.673C46.0958 245.384 46.7872 245.186 47.4426 244.286H47.4515Z" fill="#7D287F"/>
<path d="M70.3741 289.378C71.0116 288.586 70.8141 287.803 70.1766 287.29C69.4404 286.697 68.6053 286.805 68.0037 287.686C67.4201 288.469 67.465 289.189 68.2731 289.792C69.0991 290.403 69.7636 290.133 70.3741 289.387V289.378Z" fill="#7D287F"/>
<path d="M32.7982 208.299C33.301 207.777 33.0945 206.94 32.4031 206.373C31.7387 205.825 30.9396 205.942 30.3291 206.697C29.7095 207.462 29.6646 208.173 30.4458 208.83C31.2269 209.486 31.9362 209.324 32.7892 208.299H32.7982Z" fill="#7D287F"/>
<path d="M76.3447 298.977C77.1528 299.544 77.8262 299.418 78.4637 298.653C79.1011 297.889 79.0024 297.088 78.3649 296.548C77.6736 295.963 76.8385 296.008 76.192 296.827C75.5635 297.61 75.6085 298.303 76.3447 298.977Z" fill="#7D287F"/>
<path d="M44.884 35.5322C45.5484 34.7765 45.4137 33.9758 44.8122 33.427C44.1298 32.8062 43.2768 32.8602 42.6303 33.6879C42.0198 34.4346 41.9749 35.1634 42.765 35.8111C43.5462 36.4499 44.2285 36.279 44.875 35.5322H44.884Z" fill="#7D287F"/>
<path d="M34.4327 60.8308C35.0342 60.0751 34.9984 59.2744 34.307 58.7346C33.6067 58.1947 32.7806 58.1857 32.1252 59.0494C31.5236 59.8502 31.5775 60.5339 32.3317 61.2087C33.1398 61.7575 33.8221 61.6135 34.4327 60.8398V60.8308Z" fill="#7D287F"/>
<path d="M92.067 315.298C91.4564 316.054 91.4205 316.783 92.2196 317.421C93.0098 318.06 93.6831 317.88 94.3296 317.133C94.985 316.378 94.8683 315.577 94.2488 315.028C93.5664 314.425 92.7134 314.47 92.067 315.298Z" fill="#7D287F"/>
<path d="M64.5557 2.63954C65.1842 1.92879 65.1662 1.12807 64.4569 0.480299C63.7027 -0.203461 62.8677 -0.158477 62.2122 0.633246C61.6017 1.37099 61.7184 2.12672 62.4008 2.81048C63.155 3.35029 63.9182 3.35929 64.5557 2.63954Z" fill="#7D287F"/>
<path d="M25.8042 182.028C26.3788 181.344 26.3159 180.589 25.6336 180.004C24.9422 179.41 24.2329 179.554 23.5865 180.148C23.1016 180.886 23.0836 181.614 23.775 182.199C24.4663 182.775 25.2205 182.712 25.7952 182.028H25.8042Z" fill="#7D287F"/>
<path d="M39.5953 235.172C40.2508 234.47 39.9994 233.823 39.4337 233.229C38.7424 232.725 38.078 232.5 37.4495 233.265C36.8479 234.003 36.8569 234.812 37.5662 235.406C38.2217 235.955 38.9938 235.811 39.5864 235.172H39.5953Z" fill="#7D287F"/>
<path d="M62.2122 280.156C62.8048 279.4 62.4905 278.771 61.7363 278.132C61.1437 277.817 60.4614 277.646 59.9047 278.456C59.4109 279.176 59.4288 279.958 60.1022 280.489C60.8295 281.056 61.6286 280.903 62.2122 280.156Z" fill="#7D287F"/>
<path d="M21.4588 120.849C21.9616 120.13 21.7192 119.536 21.1086 119.032C20.4263 118.465 19.7708 118.456 19.0256 119.293C18.6934 119.914 18.5766 120.732 19.3668 121.281C20.103 121.794 20.9021 121.65 21.4678 120.858L21.4588 120.849Z" fill="#7D287F"/>
<path d="M22.9219 103.449C23.4337 102.729 23.1912 102.136 22.5807 101.632C21.9073 101.065 21.2429 101.047 20.5605 101.803C20.1116 102.496 20.0666 103.314 20.8209 103.863C21.5481 104.394 22.3562 104.241 22.9219 103.449Z" fill="#7D287F"/>
<path d="M55.4247 10.0624C55.9275 9.34265 55.6851 8.74886 55.0745 8.24504C54.3922 7.67824 53.7367 7.66924 53.0543 8.43397C52.6234 9.12673 52.5695 9.94544 53.3327 10.4853C54.0689 11.0071 54.868 10.8541 55.4247 10.0624Z" fill="#7D287F"/>
<path d="M54.4283 270.881C54.985 270.179 54.7695 269.567 54.0512 269.018C53.4586 268.488 52.8121 268.497 52.2645 269.18C51.7168 269.873 51.7437 270.674 52.4171 271.205C53.0905 271.726 53.8626 271.582 54.4193 270.881H54.4283Z" fill="#7D287F"/>
<path d="M23.9098 86.085C24.4665 85.3563 24.2061 84.7715 23.4519 84.1867C22.8952 83.6919 22.2397 83.7368 21.719 84.4206C21.1803 85.1224 21.2162 85.9231 21.9076 86.4449C22.5899 86.9487 23.3531 86.7958 23.9098 86.085Z" fill="#7D287F"/>
<path d="M19.0432 155.415C19.5999 154.687 19.3215 154.102 18.5583 153.508C18.0106 153.022 17.3642 153.085 16.8434 153.769C16.3137 154.471 16.3406 155.271 17.0409 155.784C17.7233 156.288 18.4865 156.135 19.0342 155.415H19.0432Z" fill="#7D287F"/>
<path d="M20.2376 138.357C20.7314 137.7 20.6596 136.944 20.0131 136.431C19.3128 135.883 18.5227 135.982 18.0019 136.719C17.535 137.385 17.7056 138.087 18.3252 138.681C19.0255 139.014 19.7348 139.032 20.2376 138.366V138.357Z" fill="#7D287F"/>
<path d="M35.4741 43.7105C35.9859 43.1437 35.9589 42.4419 35.4112 41.9111C34.8007 41.3263 34.1273 41.3983 33.4898 41.9831C33.0588 42.5949 33.0229 43.2426 33.5796 43.7824C34.1902 44.3672 34.9174 44.3313 35.4741 43.7105Z" fill="#7D287F"/>
<path d="M46.0958 261.595C46.6435 260.93 46.6883 260.318 45.997 259.787C45.2966 259.247 44.74 259.517 44.2192 260.174C43.6805 260.849 43.7075 261.371 44.4168 261.847C45.0902 262.486 45.584 262.225 46.0958 261.604V261.595Z" fill="#7D287F"/>
<path d="M24.5824 199.14C25.184 198.564 25.2199 197.925 24.5644 197.367C23.9 196.809 23.3164 196.998 22.7777 197.664C22.2569 198.303 22.1851 198.798 22.8854 199.365C23.5498 199.904 24.0796 199.895 24.5824 199.14Z" fill="#7D287F"/>
<path d="M45.9517 18.1681C46.5084 17.4933 46.5263 16.8906 45.835 16.3597C45.1167 15.8199 44.578 16.1258 44.0572 16.7736C43.5095 17.4574 43.5813 17.9792 44.2817 18.447C44.964 19.0948 45.4489 18.7889 45.9517 18.1771V18.1681Z" fill="#7D287F"/>
<path d="M31.3078 225.734C31.8644 225.05 31.8645 224.448 31.1731 223.926C30.4459 223.377 29.9071 223.719 29.4043 224.358C28.8476 225.05 28.9554 225.563 29.6288 226.013C30.3381 226.661 30.8139 226.337 31.3078 225.725V225.734Z" fill="#7D287F"/>
<path d="M17.5887 172.473C18.0466 171.888 18.0555 171.294 17.5258 170.818C16.9422 170.287 16.3137 170.386 15.7839 170.997C15.2632 171.609 15.2273 172.248 15.8468 172.761C16.4663 173.265 17.0769 173.103 17.5797 172.473H17.5887Z" fill="#7D287F"/>
<path d="M24.8978 68.9276C25.4455 68.3698 25.5443 67.731 25.0145 67.1552C24.4489 66.5524 23.8294 66.7324 23.3535 67.1642C22.7519 67.848 22.6621 68.4778 23.2547 69.0266C23.7934 69.5214 24.386 69.4404 24.8978 68.9186V68.9276Z" fill="#7D287F"/>
<path d="M12.201 128.641C12.7308 128.02 12.3895 127.606 11.9316 127.201C11.3929 126.778 10.8901 126.535 10.3693 127.255C9.93837 127.858 9.91147 128.47 10.4592 128.92C11.0697 129.423 11.6803 129.253 12.201 128.632V128.641Z" fill="#7D287F"/>
<path d="M26.316 51.5641C26.8547 50.9343 26.4956 50.5295 26.0377 50.1246C25.499 49.7018 24.9872 49.4589 24.4754 50.1876C24.0534 50.7904 24.0265 51.4022 24.5742 51.852C25.1847 52.3558 25.7953 52.1759 26.316 51.5551V51.5641Z" fill="#7D287F"/>
<path d="M23.4068 216.188C23.8468 215.721 23.2811 215.307 22.8053 214.911C22.2935 214.488 21.7996 214.434 21.3597 215.064C20.9377 215.667 20.9108 216.278 21.4585 216.728C22.069 217.241 22.7065 217.052 23.4068 216.188Z" fill="#7D287F"/>
<path d="M37.9879 252.302C38.5087 251.699 38.2393 251.276 37.6108 250.745C37.2337 250.457 36.7309 250.142 36.1922 250.871C35.7522 251.465 35.7163 252.077 36.2461 252.545C36.8387 253.066 37.4672 252.905 37.9969 252.302H37.9879Z" fill="#7D287F"/>
<path d="M16.682 189.648C17.1579 189.18 16.682 188.731 16.1792 188.317C15.6854 187.912 15.2006 187.75 14.7247 188.398C14.2488 189.045 14.2219 189.684 14.8593 190.161C15.434 190.584 16.0356 190.413 16.682 189.648Z" fill="#7D287F"/>
<path d="M13.1984 111.357C13.7999 110.719 13.5126 110.251 12.6956 109.594C12.4082 109.333 11.8965 109.216 11.4116 109.918C10.9986 110.521 10.9896 111.132 11.5463 111.582C12.1029 112.032 12.6956 111.888 13.1984 111.357Z" fill="#7D287F"/>
<path d="M36.5337 26.0947C37.1353 25.4199 36.7313 24.9881 36.3721 24.6732C35.7257 24.1604 35.2498 23.9804 34.7739 24.6192C34.289 25.258 34.2621 25.9058 34.8906 26.3826C35.4563 26.8054 36.0399 26.6435 36.5337 26.0857V26.0947Z" fill="#7D287F"/>
<path d="M76.6138 315.945C77.0448 315.451 76.9909 314.839 76.5061 314.416C76.0123 313.984 75.4107 314.038 74.9797 314.524C74.5487 315.019 74.6565 315.576 75.0785 316.08C75.6172 316.422 76.1829 316.44 76.6138 315.945Z" fill="#7D287F"/>
<path d="M14.2664 94.2727C14.7423 93.7959 14.6884 93.2111 14.2484 92.7433C13.7726 92.2395 13.18 92.3024 12.767 92.7883C12.3719 93.2561 12.4347 93.8319 12.9016 94.3987C13.3236 94.6506 13.8444 94.6866 14.2574 94.2727H14.2664Z" fill="#7D287F"/>
<path d="M60.6678 297.52C61.1436 297.043 61.0897 296.458 60.6498 295.99C60.1739 295.487 59.5814 295.55 59.1683 296.035C58.7733 296.503 58.8361 297.079 59.303 297.646C59.725 297.898 60.2458 297.934 60.6588 297.52H60.6678Z" fill="#7D287F"/>
<path d="M68.839 306.688C69.279 306.193 69.2162 305.608 68.7403 305.159C68.2375 304.691 67.6628 304.754 67.2678 305.285C66.8996 305.779 66.9895 306.346 67.4204 306.823C67.9322 307.129 68.4619 307.12 68.839 306.688Z" fill="#7D287F"/>
<path d="M29.8894 242.918C30.2037 242.315 30.1409 241.757 29.6111 241.38C29.1352 241.038 28.5786 241.074 28.2464 241.577C27.8783 242.135 27.9052 242.783 28.5068 243.179C29.0006 243.503 29.5034 243.332 29.8894 242.918Z" fill="#7D287F"/>
<path d="M10.6296 146.013C11.1145 145.545 11.0606 144.96 10.6296 144.483C10.1627 143.971 9.56113 144.034 9.14811 144.519C8.74407 144.987 8.80694 145.563 9.28281 146.139C9.69583 146.382 10.2165 146.436 10.6385 146.022L10.6296 146.013Z" fill="#7D287F"/>
<path d="M84.7842 325.068C85.1973 324.618 85.0895 324.088 84.6675 323.674C84.1737 323.197 83.5901 323.215 83.1681 323.719C82.773 324.196 82.8269 324.771 83.2579 325.275C83.8056 325.581 84.3622 325.536 84.7753 325.068H84.7842Z" fill="#7D287F"/>
<path d="M92.8927 334.318C93.3237 333.877 93.2429 333.346 92.8388 332.923C92.3719 332.437 91.7793 332.41 91.3394 332.896C90.9263 333.355 90.9623 333.94 91.4112 334.498C91.905 334.758 92.4617 334.767 92.9017 334.318H92.8927Z" fill="#7D287F"/>
<path d="M15.0028 206.867C15.3889 206.391 15.4966 205.959 14.9489 205.527C14.4012 205.086 13.9972 205.293 13.638 205.788C13.216 206.247 13.1532 206.687 13.6919 207.119C14.2396 207.551 14.6257 207.353 15.0118 206.867H15.0028Z" fill="#7D287F"/>
<path d="M9.45353 163.252C9.84859 162.757 9.89349 162.334 9.34579 161.92C8.78013 161.479 8.41199 161.776 8.03488 162.226C7.62187 162.721 7.61286 163.153 8.28626 163.674C8.69928 163.989 9.0854 163.737 9.45353 163.261V163.252Z" fill="#7D287F"/>
<path d="M44.5876 278.582C44.9558 278.114 45.1443 277.7 44.5876 277.232C44.0669 276.791 43.6628 276.944 43.2677 277.421C42.8817 277.889 42.729 278.312 43.133 278.663C43.7795 279.202 44.1926 279.085 44.5876 278.582Z" fill="#7D287F"/>
<path d="M27.1327 34.0656C27.5188 33.5888 27.6265 33.1569 27.0788 32.7251C26.5311 32.2842 26.1271 32.4912 25.7679 32.986C25.3459 33.4448 25.2831 33.8857 25.8218 34.3175C26.3695 34.7494 26.7555 34.5515 27.1416 34.0656H27.1327Z" fill="#7D287F"/>
<path d="M8.0803 180.516C8.41251 180.12 8.36762 179.742 7.97256 179.409C7.56852 179.067 7.15552 178.914 6.75148 179.427C6.41927 179.859 6.3923 180.318 6.83226 180.678C7.26323 181.038 7.71218 180.939 8.0803 180.507V180.516Z" fill="#7D287F"/>
<path d="M3.77043 119.338C4.16549 118.843 3.95896 118.474 3.52799 118.141C3.12395 117.826 2.74686 117.853 2.42363 118.267C2.07346 118.717 2.1273 119.131 2.50441 119.545C2.98926 119.823 3.41127 119.778 3.76144 119.338H3.77043Z" fill="#7D287F"/>
<path d="M36.3897 269.414C36.7219 269.036 36.7308 268.658 36.3358 268.307C35.9407 267.965 35.5366 267.776 35.1146 268.271C34.7465 268.703 34.7735 269.126 35.1236 269.558C35.5815 269.863 36.0125 269.845 36.3897 269.423V269.414Z" fill="#7D287F"/>
<path d="M16.5917 59.4451C16.9868 58.9502 16.7803 58.5814 16.3493 58.2485C15.9453 57.9336 15.5681 57.9606 15.2449 58.3744C14.8947 58.8243 14.9486 59.2381 15.3257 59.652C15.8106 59.9309 16.2326 59.8859 16.5828 59.4451H16.5917Z" fill="#7D287F"/>
<path d="M21.5751 233.57C22.0689 233.076 21.8085 232.707 21.3955 232.365C21.0094 232.041 20.6323 232.032 20.2911 232.446C19.932 232.878 19.923 233.336 20.345 233.705C20.776 234.074 21.216 233.966 21.5751 233.57Z" fill="#7D287F"/>
<path d="M37.4408 8.90079C37.8089 8.45995 37.9077 8.09108 37.4857 7.72221C37.0996 7.38033 36.7046 7.14641 36.2646 7.63224C35.8875 8.04609 35.8426 8.50493 36.2376 8.90079C36.6417 9.30565 37.0906 9.20669 37.4318 8.90079H37.4408Z" fill="#7D287F"/>
<path d="M15.5681 76.9264C15.9093 76.4946 15.8913 76.0268 15.4873 75.6579C15.0384 75.244 14.5356 75.235 14.1136 75.7029C13.7006 76.1617 13.7544 76.6475 14.2034 77.0974C14.6972 77.4393 15.1731 77.4213 15.5681 76.9354V76.9264Z" fill="#7D287F"/>
<path d="M52.7044 287.938C53.0636 287.516 53.0546 287.048 52.6686 286.661C52.2376 286.238 51.7258 286.202 51.2948 286.661C50.8728 287.102 50.8907 287.597 51.3487 288.055C51.8245 288.415 52.3004 288.415 52.7134 287.938H52.7044Z" fill="#7D287F"/>
<path d="M13.8619 224.177C14.3647 223.682 13.8798 223.422 13.5745 223.179C13.2962 222.972 12.955 222.639 12.6498 223.197C12.4253 223.611 12.3714 223.997 12.6946 224.384C13.1436 224.618 13.5296 224.501 13.8619 224.177Z" fill="#7D287F"/>
<path d="M2.65692 136.243C2.89935 135.982 2.54021 135.721 2.27085 135.487C2.00149 135.262 1.6603 134.912 1.31911 135.343C1.01384 135.739 0.870144 136.261 1.33703 136.621C1.72312 136.927 2.15412 136.72 2.65692 136.243Z" fill="#7D287F"/>
<path d="M17.8401 42.1893C18.3429 41.7934 17.9659 41.5055 17.7055 41.2716C17.4182 41.0107 17.068 40.5788 16.6639 41.1456C16.3946 41.5235 16.3497 41.9373 16.7088 42.3962C17.0859 42.5671 17.463 42.4862 17.8311 42.1893H17.8401Z" fill="#7D287F"/>
<path d="M5.12633 101.946C5.44957 101.533 5.03651 101.263 4.74919 101.047C4.46187 100.84 4.12071 100.534 3.82442 101.047C3.59097 101.461 3.48323 101.919 3.87829 102.225C4.3362 102.585 4.83004 102.333 5.12633 101.946Z" fill="#7D287F"/>
<path d="M6.07811 84.7082C6.58091 84.3123 6.19481 84.0244 5.94341 83.7995C5.65609 83.5386 5.30595 83.1068 4.90191 83.6826C4.64153 84.0694 4.59659 84.4743 4.91983 84.8881C5.34182 85.14 5.70998 85.0051 6.07811 84.7172V84.7082Z" fill="#7D287F"/>
<path d="M1.40005 153.795C1.87592 153.39 1.49882 153.111 1.23844 152.886C0.942146 152.625 0.591957 152.203 0.205875 152.796C-0.0545063 153.192 -0.0903947 153.597 0.232837 153.993C0.663812 154.236 1.0409 154.101 1.40005 153.804V153.795Z" fill="#7D287F"/>
<path d="M28.4349 16.7199C28.7581 16.3061 28.3451 16.0362 28.0578 15.8202C27.7705 15.6133 27.4293 15.3074 27.133 15.8202C26.8996 16.2341 26.7918 16.6929 27.1869 16.9988C27.6448 17.3587 28.1386 17.1068 28.4349 16.7199Z" fill="#7D287F"/>
<path d="M6.83244 197.556C7.23648 197.142 6.83246 196.881 6.57208 196.647C6.30272 196.413 5.98848 196.134 5.69219 196.431C5.36896 196.926 5.23427 197.385 5.57546 197.727C5.99746 198.141 6.47329 197.925 6.83244 197.547V197.556Z" fill="#7D287F"/>
<path d="M28.7217 259.958C29.1078 259.544 28.7037 259.275 28.4344 259.059C28.156 258.834 27.8418 258.537 27.5725 258.852C27.2402 259.374 27.1146 259.832 27.4647 260.165C27.8957 260.57 28.3715 260.345 28.7217 259.967V259.958Z" fill="#7D287F"/>
</svg>
