<svg width="559" height="202" viewBox="0 0 559 202" fill="none" xmlns="http://www.w3.org/2000/svg">
<path d="M25.93 166.007C48.14 144.523 75.27 133.912 102.36 136.116C121.51 137.69 139.53 145.245 156.96 152.56C174.24 159.804 192.1 167.3 210.7 168.662C261.84 172.41 301.4 132.69 339.65 94.2719C349.13 84.7526 358.93 74.9127 368.65 66.0248C414.02 24.5609 486.67 -12.013 559 4.1998V9.33016C488.17 -7.09304 416.67 28.9198 372.02 69.7222C362.39 78.52 352.63 88.3199 343.19 97.799C304.14 137.008 263.76 177.57 210.34 173.642C190.92 172.219 172.68 164.564 155.03 157.159C137.96 150.005 120.32 142.6 101.96 141.097C60.85 137.73 24.9399 165.736 5.96997 201.208H0.119995C6.69 188.192 15.45 176.157 25.94 165.997L25.93 166.007Z" fill="#7D287F"/>
</svg>
