<svg width="515" height="139" viewBox="0 0 515 139" fill="none" xmlns="http://www.w3.org/2000/svg">
<path d="M0.830017 126.466C5.72003 87.3971 44.57 46.6046 89.19 50.4624C104.82 51.8252 118.84 58.2882 132.39 64.5409C136.87 66.6051 141.5 68.7494 146.11 70.6632C205.57 95.3632 282.59 87.6075 337.78 51.3642C345.21 46.4844 352.5 40.9933 359.56 35.6825C377.25 22.3656 395.54 8.58775 417.77 3.05657C456.44 -6.5729 493.34 11.9646 515 26.6543V29.0792C493.81 14.4797 456.86 -4.61895 418.25 5.0005C396.42 10.4415 378.29 24.0891 360.76 37.2858C353.68 42.6165 346.36 48.1277 338.88 53.0476C283.16 89.6416 205.39 97.4674 145.35 72.527C140.71 70.6031 136.06 68.4488 131.56 66.3746C118.16 60.1921 104.31 53.7991 89.03 52.4665C45.5 48.7189 7.60001 88.5594 2.83002 126.717C2.32001 130.835 2.08997 134.933 2.08997 139.001H0.0899658C0.0899658 134.853 0.319946 130.675 0.849976 126.476L0.830017 126.466Z" fill="#FCFFFE"/>
</svg>
